Slabo 13px b004.ufo
<glyph name="numbersign" format="1">
  <advance width="480"/>
  <unicode hex="0023"/>
  <outline>
    <contour>
      <point x="431" y="350" type="line"/>
      <point x="426" y="300" type="line"/>
      <point x="335" y="300" type="line"/>
      <point x="323" y="180" type="line"/>
      <point x="413" y="180" type="line"/>
      <point x="408" y="130" type="line"/>
      <point x="318" y="130" type="line"/>
      <point x="305" y="0" type="line"/>
      <point x="251" y="0" type="line"/>
      <point x="264" y="130" type="line"/>
      <point x="144" y="130" type="line"/>
      <point x="131" y="0" type="line"/>
      <point x="77" y="0" type="line"/>
      <point x="90" y="130" type="line"/>
      <point x="0" y="130" type="line"/>
      <point x="5" y="180" type="line"/>
      <point x="95" y="180" type="line"/>
      <point x="108" y="300" type="line"/>
      <point x="18" y="300" type="line"/>
      <point x="23" y="350" type="line"/>
      <point x="113" y="350" type="line"/>
      <point x="127" y="480" type="line"/>
      <point x="180" y="480" type="line"/>
      <point x="166" y="350" type="line"/>
      <point x="286" y="350" type="line"/>
      <point x="300" y="480" type="line"/>
      <point x="354" y="480" type="line"/>
      <point x="340" y="350" type="line"/>
    </contour>
    <contour>
      <point x="149" y="180" type="line"/>
      <point x="269" y="180" type="line"/>
      <point x="281" y="300" type="line"/>
      <point x="161" y="300" type="line"/>
    </contour>
  </outline>
</glyph>
<glyph name="dollar" format="1">
  <advance width="420"/>
  <unicode hex="0024"/>
  <outline>
    <contour>
      <point x="145" y="-90" type="line"/>
      <point x="145" y="0" type="line"/>
      <point x="71" y="2"/>
      <point x="0" y="31" type="qcurve"/>
      <point x="0" y="140" type="line"/>
      <point x="60" y="140" type="line"/>
      <point x="60" y="69" type="line"/>
      <point x="99" y="56"/>
      <point x="145" y="55" type="qcurve"/>
      <point x="145" y="246" type="line"/>
      <point x="71" y="268"/>
      <point x="-5" y="338"/>
      <point x="-5" y="397" type="qcurve"/>
      <point x="-5" y="455"/>
      <point x="69" y="531"/>
      <point x="145" y="540" type="qcurve"/>
      <point x="145" y="630" type="line"/>
      <point x="200" y="630" type="line"/>
      <point x="200" y="540" type="line"/>
      <point x="275" y="537"/>
      <point x="340" y="508" type="qcurve"/>
      <point x="340" y="400" type="line"/>
      <point x="280" y="400" type="line"/>
      <point x="280" y="471" type="line"/>
      <point x="244" y="483"/>
      <point x="200" y="485" type="qcurve"/>
      <point x="200" y="298" type="line"/>
      <point x="287" y="273"/>
      <point x="365" y="202"/>
      <point x="365" y="147" type="qcurve"/>
      <point x="365" y="79"/>
      <point x="279" y="7"/>
      <point x="200" y="0" type="qcurve"/>
      <point x="200" y="-90" type="line"/>
    </contour>
    <contour>
      <point x="300" y="140" type="qcurve"/>
      <point x="300" y="206"/>
      <point x="200" y="232" type="qcurve"/>
      <point x="200" y="55" type="line"/>
      <point x="300" y="65"/>
    </contour>
    <contour>
      <point x="60" y="402" type="qcurve"/>
      <point x="60" y="338"/>
      <point x="145" y="313" type="qcurve"/>
      <point x="145" y="485" type="line"/>
      <point x="60" y="475"/>
    </contour>
  </outline>
</glyph>
<glyph name="ampersand" format="1">
  <advance width="600"/>
  <unicode hex="0026"/>
  <outline>
    <contour>
      <point x="376" y="144" type="qcurve"/>
      <point x="412" y="198"/>
      <point x="414" y="255" type="qcurve"/>
      <point x="360" y="255" type="line"/>
      <point x="360" y="310" type="line"/>
      <point x="520" y="310" type="line"/>
      <point x="520" y="255" type="line"/>
      <point x="469" y="255" type="line"/>
      <point x="464" y="177"/>
      <point x="415" y="110" type="qcurve"/>
      <point x="453" y="75"/>
      <point x="492" y="55"/>
      <point x="513" y="55" type="qcurve"/>
      <point x="526" y="55"/>
      <point x="540" y="57" type="qcurve"/>
      <point x="540" y="6" type="line"/>
      <point x="523" y="0"/>
      <point x="503" y="0" type="qcurve"/>
      <point x="468" y="0"/>
      <point x="418" y="32"/>
      <point x="378" y="68" type="qcurve"/>
      <point x="310" y="0"/>
      <point x="205" y="0" type="qcurve"/>
      <point x="123" y="0"/>
      <point x="20" y="79"/>
      <point x="20" y="145" type="qcurve"/>
      <point x="20" y="232"/>
      <point x="134" y="292" type="qcurve"/>
      <point x="91" y="335"/>
      <point x="60" y="388"/>
      <point x="60" y="419" type="qcurve"/>
      <point x="60" y="472"/>
      <point x="140" y="540"/>
      <point x="206" y="540" type="qcurve"/>
      <point x="266" y="540"/>
      <point x="340" y="482"/>
      <point x="340" y="429" type="qcurve"/>
      <point x="340" y="386"/>
      <point x="282" y="320"/>
      <point x="222" y="286" type="qcurve"/>
      <point x="306" y="205"/>
    </contour>
    <contour>
      <point x="169" y="259" type="qcurve"/>
      <point x="85" y="217"/>
      <point x="85" y="154" type="qcurve"/>
      <point x="85" y="108"/>
      <point x="155" y="55"/>
      <point x="210" y="55" type="qcurve"/>
      <point x="285" y="55"/>
      <point x="340" y="102" type="qcurve"/>
      <point x="259" y="171"/>
    </contour>
    <contour>
      <point x="280" y="422" type="qcurve"/>
      <point x="280" y="452"/>
      <point x="236" y="485"/>
      <point x="201" y="485" type="qcurve"/>
      <point x="166" y="485"/>
      <point x="120" y="453"/>
      <point x="120" y="422" type="qcurve"/>
      <point x="120" y="400"/>
      <point x="147" y="358"/>
      <point x="190" y="318" type="qcurve"/>
      <point x="280" y="366"/>
    </contour>
  </outline>
</glyph>
<glyph name="quotesingle" format="1">
  <advance width="180"/>
  <unicode hex="0027"/>
  <outline>
    <contour>
      <point x="24" y="550" type="line"/>
      <point x="96" y="550" type="line"/>
      <point x="80" y="370" type="line"/>
      <point x="40" y="370" type="line"/>
    </contour>
  </outline>
</glyph>
<glyph name="parenleft" format="1">
  <advance width="300"/>
  <unicode hex="0028"/>
  <outline>
    <contour>
      <point x="120" y="212" type="qcurve"/>
      <point x="120" y="-16"/>
      <point x="240" y="-180" type="qcurve"/>
      <point x="180" y="-180" type="line"/>
      <point x="55" y="-2"/>
      <point x="55" y="208" type="qcurve"/>
      <point x="55" y="419"/>
      <point x="180" y="600" type="qcurve"/>
      <point x="240" y="600" type="line"/>
      <point x="120" y="436"/>
    </contour>
  </outline>
</glyph>
<glyph name="parenright" format="1">
  <advance width="300"/>
  <unicode hex="0029"/>
  <outline>
    <contour>
      <point x="120" y="212" type="qcurve"/>
      <point x="120" y="436"/>
      <point x="0" y="600" type="qcurve"/>
      <point x="60" y="600" type="line"/>
      <point x="185" y="419"/>
      <point x="185" y="208" type="qcurve"/>
      <point x="185" y="-2"/>
      <point x="60" y="-180" type="qcurve"/>
      <point x="0" y="-180" type="line"/>
      <point x="120" y="-16"/>
    </contour>
  </outline>
</glyph>
<glyph name="asterisk" format="1">
  <advance width="360"/>
  <unicode hex="002A"/>
  <outline>
    <contour>
      <point x="184" y="550" type="line"/>
      <point x="170" y="422" type="line"/>
      <point x="287" y="475" type="line"/>
      <point x="307" y="409" type="line"/>
      <point x="180" y="387" type="line"/>
      <point x="269" y="289" type="line"/>
      <point x="213" y="249" type="line"/>
      <point x="150" y="364" type="line"/>
      <point x="85" y="249" type="line"/>
      <point x="31" y="289" type="line"/>
      <point x="118" y="387" type="line"/>
      <point x="-8" y="411" type="line"/>
      <point x="13" y="475" type="line"/>
      <point x="132" y="422" type="line"/>
      <point x="116" y="550" type="line"/>
    </contour>
  </outline>
</glyph>
<glyph name="plus" format="1">
  <advance width="480"/>
  <unicode hex="002B"/>
  <outline>
    <contour>
      <point x="0" y="200" type="line"/>
      <point x="0" y="255" type="line"/>
      <point x="180" y="255" type="line"/>
      <point x="180" y="435" type="line"/>
      <point x="240" y="435" type="line"/>
      <point x="240" y="255" type="line"/>
      <point x="420" y="255" type="line"/>
      <point x="420" y="200" type="line"/>
      <point x="240" y="200" type="line"/>
      <point x="240" y="20" type="line"/>
      <point x="180" y="20" type="line"/>
      <point x="180" y="200" type="line"/>
    </contour>
  </outline>
</glyph>
<glyph name="comma" format="1">
  <advance width="240"/>
  <unicode hex="002C"/>
  <outline>
    <contour>
      <point x="20" y="-90" type="line"/>
      <point x="60" y="100" type="line"/>
      <point x="141" y="100" type="line"/>
      <point x="76" y="-90" type="line"/>
    </contour>
  </outline>
</glyph>
<glyph name="hyphen" format="1">
  <advance width="240"/>
  <unicode hex="002D"/>
  <outline>
    <contour>
      <point x="0" y="240" type="line"/>
      <point x="180" y="240" type="line"/>
      <point x="180" y="185" type="line"/>
      <point x="0" y="185" type="line"/>
    </contour>
  </outline>
</glyph>
<glyph name="period" format="1">
  <advance width="240"/>
  <unicode hex="002E"/>
  <outline>
    <contour>
      <point x="40" y="49" type="qcurve"/>
      <point x="40" y="73"/>
      <point x="67" y="101"/>
      <point x="91" y="101" type="qcurve"/>
      <point x="114" y="101"/>
      <point x="141" y="74"/>
      <point x="141" y="51" type="qcurve"/>
      <point x="141" y="27"/>
      <point x="113" y="0"/>
      <point x="89" y="0" type="qcurve"/>
      <point x="66" y="0"/>
      <point x="40" y="27"/>
    </contour>
  </outline>
</glyph>
<glyph name="slash" format="1">
  <advance width="300"/>
  <unicode hex="002F"/>
  <outline>
    <contour>
      <point x="220" y="600" type="line"/>
      <point x="280" y="600" type="line"/>
      <point x="60" y="-90" type="line"/>
      <point x="0" y="-90" type="line"/>
    </contour>
  </outline>
</glyph>
<glyph name="zero" format="1">
  <advance width="480"/>
  <unicode hex="0030"/>
  <outline>
    <contour>
      <point x="20" y="240" type="qcurve"/>
      <point x="20" y="350"/>
      <point x="126" y="480"/>
      <point x="215" y="480" type="qcurve"/>
      <point x="298" y="480"/>
      <point x="400" y="354"/>
      <point x="400" y="246" type="qcurve"/>
      <point x="400" y="135"/>
      <point x="295" y="0"/>
      <point x="208" y="0" type="qcurve"/>
      <point x="122" y="0"/>
      <point x="20" y="132"/>
    </contour>
    <contour>
      <point x="85" y="243" type="qcurve"/>
      <point x="85" y="155"/>
      <point x="151" y="55"/>
      <point x="210" y="55" type="qcurve"/>
      <point x="270" y="55"/>
      <point x="335" y="157"/>
      <point x="335" y="244" type="qcurve"/>
      <point x="335" y="328"/>
      <point x="274" y="425"/>
      <point x="211" y="425" type="qcurve"/>
      <point x="151" y="425"/>
      <point x="85" y="331"/>
    </contour>
  </outline>
</glyph>
<glyph name="one" format="1">
  <advance width="240"/>
  <unicode hex="0031"/>
  <outline>
    <contour>
      <point x="60" y="0" type="line"/>
      <point x="60" y="425" type="line"/>
      <point x="0" y="425" type="line"/>
      <point x="0" y="480" type="line"/>
      <point x="120" y="480" type="line"/>
      <point x="120" y="0" type="line"/>
    </contour>
  </outline>
</glyph>
<glyph name="two" format="1">
  <advance width="420"/>
  <unicode hex="0032"/>
  <outline>
    <contour>
      <point x="340" y="0" type="line"/>
      <point x="10" y="0" type="line"/>
      <point x="10" y="47" type="line"/>
      <point x="135" y="143"/>
      <point x="255" y="290"/>
      <point x="255" y="348" type="qcurve"/>
      <point x="255" y="381"/>
      <point x="212" y="425"/>
      <point x="161" y="425" type="qcurve"/>
      <point x="115" y="425"/>
      <point x="78" y="407" type="qcurve"/>
      <point x="78" y="350" type="line"/>
      <point x="20" y="350" type="line"/>
      <point x="20" y="437" type="line"/>
      <point x="91" y="480"/>
      <point x="169" y="480" type="qcurve"/>
      <point x="238" y="480"/>
      <point x="320" y="415"/>
      <point x="320" y="358" type="qcurve"/>
      <point x="320" y="292"/>
      <point x="202" y="136"/>
      <point x="100" y="55" type="qcurve"/>
      <point x="340" y="55" type="line"/>
    </contour>
  </outline>
</glyph>
<glyph name="three" format="1">
  <advance width="420"/>
  <unicode hex="0033"/>
  <outline>
    <contour>
      <point x="0" y="-43" type="line"/>
      <point x="64" y="-65"/>
      <point x="130" y="-65" type="qcurve"/>
      <point x="196" y="-65"/>
      <point x="268" y="-2"/>
      <point x="268" y="57" type="qcurve"/>
      <point x="268" y="114"/>
      <point x="201" y="170"/>
      <point x="135" y="170" type="qcurve"/>
      <point x="100" y="170" type="line"/>
      <point x="100" y="223" type="line"/>
      <point x="122" y="223" type="line"/>
      <point x="179" y="223"/>
      <point x="240" y="279"/>
      <point x="240" y="334" type="qcurve"/>
      <point x="240" y="379"/>
      <point x="192" y="425"/>
      <point x="146" y="425" type="qcurve"/>
      <point x="99" y="425"/>
      <point x="60" y="406" type="qcurve"/>
      <point x="60" y="350" type="line"/>
      <point x="2" y="350" type="line"/>
      <point x="2" y="437" type="line"/>
      <point x="71" y="480"/>
      <point x="149" y="480" type="qcurve"/>
      <point x="222" y="480"/>
      <point x="309" y="404"/>
      <point x="309" y="340" type="qcurve"/>
      <point x="309" y="248"/>
      <point x="212" y="206" type="qcurve"/>
      <point x="212" y="205" type="line"/>
      <point x="273" y="190"/>
      <point x="340" y="115"/>
      <point x="340" y="59" type="qcurve"/>
      <point x="340" y="-21"/>
      <point x="221" y="-120"/>
      <point x="127" y="-120" type="qcurve"/>
      <point x="61" y="-120"/>
      <point x="0" y="-100" type="qcurve"/>
    </contour>
  </outline>
</glyph>
<glyph name="four" format="1">
  <advance width="420"/>
  <unicode hex="0034"/>
  <outline>
    <contour>
      <point x="240" y="65" type="line"/>
      <point x="0" y="65" type="line"/>
      <point x="0" y="113" type="line"/>
      <point x="251" y="480" type="line"/>
      <point x="300" y="480" type="line"/>
      <point x="300" y="120" type="line"/>
      <point x="380" y="120" type="line"/>
      <point x="380" y="65" type="line"/>
      <point x="300" y="65" type="line"/>
      <point x="300" y="-60" type="line"/>
      <point x="240" y="-60" type="line"/>
    </contour>
    <contour>
      <point x="67" y="120" type="line"/>
      <point x="240" y="120" type="line"/>
      <point x="240" y="373" type="line"/>
      <point x="238" y="373" type="line"/>
      <point x="67" y="122" type="line"/>
    </contour>
  </outline>
</glyph>
<glyph name="five" format="1">
  <advance width="420"/>
  <unicode hex="0035"/>
  <outline>
    <contour>
      <point x="20" y="-46" type="line"/>
      <point x="76" y="-65"/>
      <point x="124" y="-65" type="qcurve"/>
      <point x="193" y="-65"/>
      <point x="268" y="11"/>
      <point x="268" y="82" type="qcurve"/>
      <point x="268" y="151"/>
      <point x="193" y="220"/>
      <point x="116" y="220" type="qcurve"/>
      <point x="81" y="220"/>
      <point x="40" y="214" type="qcurve"/>
      <point x="40" y="480" type="line"/>
      <point x="320" y="480" type="line"/>
      <point x="320" y="425" type="line"/>
      <point x="104" y="425" type="line"/>
      <point x="104" y="272" type="line"/>
      <point x="121" y="274"/>
      <point x="140" y="274" type="qcurve"/>
      <point x="236" y="274"/>
      <point x="340" y="178"/>
      <point x="340" y="86" type="qcurve"/>
      <point x="340" y="-8"/>
      <point x="219" y="-120"/>
      <point x="122" y="-120" type="qcurve"/>
      <point x="70" y="-120"/>
      <point x="20" y="-105" type="qcurve"/>
    </contour>
  </outline>
</glyph>
<glyph name="six" format="1">
  <advance width="480"/>
  <unicode hex="0036"/>
  <outline>
    <contour>
      <point x="360" y="541" type="line"/>
      <point x="324" y="545"/>
      <point x="298" y="545" type="qcurve"/>
      <point x="195" y="545"/>
      <point x="89" y="419"/>
      <point x="84" y="298" type="qcurve"/>
      <point x="87" y="297" type="line"/>
      <point x="147" y="360"/>
      <point x="231" y="360" type="qcurve"/>
      <point x="303" y="360"/>
      <point x="400" y="264"/>
      <point x="400" y="192" type="qcurve"/>
      <point x="400" y="114"/>
      <point x="301" y="0"/>
      <point x="216" y="0" type="qcurve"/>
      <point x="125" y="0"/>
      <point x="20" y="141"/>
      <point x="20" y="271" type="qcurve"/>
      <point x="20" y="424"/>
      <point x="168" y="600"/>
      <point x="299" y="600" type="qcurve"/>
      <point x="327" y="600"/>
      <point x="360" y="595" type="qcurve"/>
    </contour>
    <contour>
      <point x="86" y="242" type="qcurve"/>
      <point x="91" y="160"/>
      <point x="157" y="55"/>
      <point x="217" y="55" type="qcurve"/>
      <point x="268" y="55"/>
      <point x="335" y="123"/>
      <point x="335" y="182" type="qcurve"/>
      <point x="335" y="236"/>
      <point x="273" y="305"/>
      <point x="219" y="305" type="qcurve"/>
      <point x="144" y="305"/>
    </contour>
  </outline>
</glyph>
<glyph name="seven" format="1">
  <advance width="420"/>
  <unicode hex="0037"/>
  <outline>
    <contour>
      <point x="108" y="-120" type="line"/>
      <point x="110" y="-48"/>
      <point x="147" y="100"/>
      <point x="201" y="242"/>
      <point x="265" y="372"/>
      <point x="296" y="425" type="qcurve"/>
      <point x="57" y="425" type="line"/>
      <point x="57" y="350" type="line"/>
      <point x="0" y="350" type="line"/>
      <point x="0" y="480" type="line"/>
      <point x="360" y="480" type="line"/>
      <point x="360" y="434" type="line"/>
      <point x="328" y="379"/>
      <point x="264" y="251"/>
      <point x="214" y="109"/>
      <point x="181" y="-43"/>
      <point x="180" y="-120" type="qcurve"/>
    </contour>
  </outline>
</glyph>
<glyph name="eight" format="1">
  <advance width="480"/>
  <unicode hex="0038"/>
  <outline>
    <contour>
      <point x="274" y="312" type="line"/>
      <point x="338" y="281"/>
      <point x="400" y="206"/>
      <point x="400" y="157" type="qcurve"/>
      <point x="400" y="89"/>
      <point x="290" y="0"/>
      <point x="204" y="0" type="qcurve"/>
      <point x="120" y="0"/>
      <point x="20" y="85"/>
      <point x="20" y="150" type="qcurve"/>
      <point x="20" y="251"/>
      <point x="141" y="310" type="qcurve"/>
      <point x="141" y="312" type="line"/>
      <point x="85" y="341"/>
      <point x="30" y="411"/>
      <point x="30" y="455" type="qcurve"/>
      <point x="30" y="518"/>
      <point x="135" y="600"/>
      <point x="217" y="600" type="qcurve"/>
      <point x="294" y="600"/>
      <point x="390" y="524"/>
      <point x="390" y="463" type="qcurve"/>
      <point x="390" y="373"/>
      <point x="274" y="314" type="qcurve"/>
    </contour>
    <contour>
      <point x="85" y="154" type="qcurve"/>
      <point x="85" y="108"/>
      <point x="148" y="55"/>
      <point x="207" y="55" type="qcurve"/>
      <point x="267" y="55"/>
      <point x="335" y="109"/>
      <point x="335" y="148" type="qcurve"/>
      <point x="335" y="191"/>
      <point x="269" y="250"/>
      <point x="187" y="288" type="qcurve"/>
      <point x="85" y="239"/>
    </contour>
    <contour>
      <point x="328" y="458" type="qcurve"/>
      <point x="328" y="498"/>
      <point x="263" y="545"/>
      <point x="210" y="545" type="qcurve"/>
      <point x="158" y="545"/>
      <point x="92" y="500"/>
      <point x="92" y="465" type="qcurve"/>
      <point x="92" y="424"/>
      <point x="164" y="365"/>
      <point x="230" y="334" type="qcurve"/>
      <point x="328" y="381"/>
    </contour>
  </outline>
</glyph>
<glyph name="nine" format="1">
  <advance width="459"/>
  <unicode hex="0039"/>
  <outline>
    <contour>
      <point x="60" y="-60" type="line"/>
      <point x="94" y="-65"/>
      <point x="124" y="-65" type="qcurve"/>
      <point x="226" y="-65"/>
      <point x="330" y="57"/>
      <point x="335" y="180" type="qcurve"/>
      <point x="332" y="181" type="line"/>
      <point x="274" y="120"/>
      <point x="190" y="120" type="qcurve"/>
      <point x="116" y="120"/>
      <point x="20" y="217"/>
      <point x="20" y="292" type="qcurve"/>
      <point x="20" y="371"/>
      <point x="119" y="480"/>
      <point x="203" y="480" type="qcurve"/>
      <point x="296" y="480"/>
      <point x="400" y="343"/>
      <point x="400" y="213" type="qcurve"/>
      <point x="400" y="55"/>
      <point x="253" y="-120"/>
      <point x="124" y="-120" type="qcurve"/>
      <point x="94" y="-120"/>
      <point x="60" y="-114" type="qcurve"/>
    </contour>
    <contour>
      <point x="334" y="237" type="qcurve"/>
      <point x="330" y="325"/>
      <point x="263" y="425"/>
      <point x="202" y="425" type="qcurve"/>
      <point x="148" y="425"/>
      <point x="85" y="356"/>
      <point x="85" y="302" type="qcurve"/>
      <point x="85" y="246"/>
      <point x="145" y="175"/>
      <point x="201" y="175" type="qcurve"/>
      <point x="277" y="175"/>
    </contour>
  </outline>
</glyph>
<glyph name="colon" format="1">
  <advance width="240"/>
  <unicode hex="003A"/>
  <outline>
    <contour>
      <point x="70" y="49" type="qcurve"/>
      <point x="70" y="73"/>
      <point x="97" y="101"/>
      <point x="121" y="101" type="qcurve"/>
      <point x="144" y="101"/>
      <point x="171" y="74"/>
      <point x="171" y="51" type="qcurve"/>
      <point x="171" y="27"/>
      <point x="143" y="0"/>
      <point x="119" y="0" type="qcurve"/>
      <point x="96" y="0"/>
      <point x="70" y="27"/>
    </contour>
    <contour>
      <point x="70" y="368" type="qcurve"/>
      <point x="70" y="392"/>
      <point x="97" y="420"/>
      <point x="121" y="420" type="qcurve"/>
      <point x="144" y="420"/>
      <point x="171" y="393"/>
      <point x="171" y="370" type="qcurve"/>
      <point x="171" y="346"/>
      <point x="143" y="319"/>
      <point x="119" y="319" type="qcurve"/>
      <point x="96" y="319"/>
      <point x="70" y="346"/>
    </contour>
  </outline>
</glyph>
<glyph name="semicolon" format="1">
  <advance width="240"/>
  <unicode hex="003B"/>
  <outline>
    <contour>
      <point x="70" y="368" type="qcurve"/>
      <point x="70" y="392"/>
      <point x="97" y="420"/>
      <point x="121" y="420" type="qcurve"/>
      <point x="144" y="420"/>
      <point x="171" y="393"/>
      <point x="171" y="370" type="qcurve"/>
      <point x="171" y="346"/>
      <point x="143" y="319"/>
      <point x="119" y="319" type="qcurve"/>
      <point x="96" y="319"/>
      <point x="70" y="346"/>
    </contour>
    <contour>
      <point x="40" y="-90" type="line"/>
      <point x="80" y="100" type="line"/>
      <point x="161" y="100" type="line"/>
      <point x="96" y="-90" type="line"/>
    </contour>
  </outline>
</glyph>
<glyph name="less" format="1">
  <advance width="480"/>
  <unicode hex="003C"/>
  <outline>
    <contour>
      <point x="80" y="225" type="line"/>
      <point x="420" y="90" type="line"/>
      <point x="420" y="30" type="line"/>
      <point x="20" y="200" type="line"/>
      <point x="20" y="254" type="line"/>
      <point x="420" y="425" type="line"/>
      <point x="420" y="365" type="line"/>
      <point x="80" y="229" type="line"/>
    </contour>
  </outline>
</glyph>
<glyph name="equal" format="1">
  <advance width="480"/>
  <unicode hex="003D"/>
  <outline>
    <contour>
      <point x="0" y="275" type="line"/>
      <point x="0" y="330" type="line"/>
      <point x="420" y="330" type="line"/>
      <point x="420" y="275" type="line"/>
    </contour>
    <contour>
      <point x="0" y="125" type="line"/>
      <point x="0" y="180" type="line"/>
      <point x="420" y="180" type="line"/>
      <point x="420" y="125" type="line"/>
    </contour>
  </outline>
</glyph>
<glyph name="greater" format="1">
  <advance width="480"/>
  <unicode hex="003E"/>
  <outline>
    <contour>
      <point x="340" y="229" type="line"/>
      <point x="0" y="365" type="line"/>
      <point x="0" y="425" type="line"/>
      <point x="400" y="254" type="line"/>
      <point x="400" y="200" type="line"/>
      <point x="0" y="30" type="line"/>
      <point x="0" y="90" type="line"/>
      <point x="340" y="225" type="line"/>
    </contour>
  </outline>
</glyph>
<glyph name="question" format="1">
  <advance width="300"/>
  <unicode hex="003F"/>
  <outline>
    <contour>
      <point x="65" y="170" type="line"/>
      <point x="55" y="192"/>
      <point x="55" y="217" type="qcurve"/>
      <point x="55" y="246"/>
      <point x="90" y="292"/>
      <point x="117" y="314" type="qcurve"/>
      <point x="147" y="338"/>
      <point x="180" y="382"/>
      <point x="180" y="411" type="qcurve"/>
      <point x="180" y="446"/>
      <point x="133" y="485"/>
      <point x="89" y="485" type="qcurve"/>
      <point x="45" y="485"/>
      <point x="0" y="467" type="qcurve"/>
      <point x="0" y="521" type="line"/>
      <point x="50" y="540"/>
      <point x="98" y="540" type="qcurve"/>
      <point x="163" y="540"/>
      <point x="245" y="475"/>
      <point x="245" y="417" type="qcurve"/>
      <point x="245" y="376"/>
      <point x="209" y="319"/>
      <point x="174" y="293" type="qcurve"/>
      <point x="145" y="271"/>
      <point x="110" y="226"/>
      <point x="110" y="199" type="qcurve"/>
      <point x="110" y="187"/>
      <point x="115" y="170" type="qcurve"/>
    </contour>
    <contour>
      <point x="40" y="49" type="qcurve"/>
      <point x="40" y="73"/>
      <point x="67" y="101"/>
      <point x="91" y="101" type="qcurve"/>
      <point x="114" y="101"/>
      <point x="141" y="74"/>
      <point x="141" y="51" type="qcurve"/>
      <point x="141" y="27"/>
      <point x="113" y="0"/>
      <point x="89" y="0" type="qcurve"/>
      <point x="66" y="0"/>
      <point x="40" y="27"/>
    </contour>
  </outline>
</glyph>
<glyph name="at" format="1">
  <advance width="720"/>
  <unicode hex="0040"/>
  <outline>
    <contour>
      <point x="500" y="-95" type="line"/>
      <point x="415" y="-120"/>
      <point x="333" y="-120" type="qcurve"/>
      <point x="196" y="-120"/>
      <point x="40" y="27"/>
      <point x="40" y="157" type="qcurve"/>
      <point x="40" y="291"/>
      <point x="205" y="480"/>
      <point x="342" y="480" type="qcurve"/>
      <point x="465" y="480"/>
      <point x="620" y="327"/>
      <point x="620" y="211" type="qcurve"/>
      <point x="620" y="123"/>
      <point x="534" y="0"/>
      <point x="467" y="0" type="qcurve"/>
      <point x="392" y="0"/>
      <point x="385" y="91" type="qcurve"/>
      <point x="382" y="91" type="line"/>
      <point x="342" y="0"/>
      <point x="275" y="0" type="qcurve"/>
      <point x="230" y="0"/>
      <point x="180" y="73"/>
      <point x="180" y="138" type="qcurve"/>
      <point x="180" y="229"/>
      <point x="271" y="343"/>
      <point x="348" y="343" type="qcurve"/>
      <point x="392" y="343"/>
      <point x="450" y="325" type="qcurve"/>
      <point x="441" y="211" type="line"/>
      <point x="436" y="152"/>
      <point x="436" y="123" type="qcurve"/>
      <point x="436" y="55"/>
      <point x="474" y="55" type="qcurve"/>
      <point x="509" y="55"/>
      <point x="560" y="136"/>
      <point x="560" y="206" type="qcurve"/>
      <point x="560" y="306"/>
      <point x="441" y="425"/>
      <point x="342" y="425" type="qcurve"/>
      <point x="233" y="425"/>
      <point x="100" y="277"/>
      <point x="100" y="162" type="qcurve"/>
      <point x="100" y="57"/>
      <point x="222" y="-65"/>
      <point x="340" y="-65" type="qcurve"/>
      <point x="418" y="-65"/>
      <point x="500" y="-40" type="qcurve"/>
    </contour>
    <contour>
      <point x="392" y="284" type="line"/>
      <point x="363" y="290"/>
      <point x="344" y="290" type="qcurve"/>
      <point x="295" y="290"/>
      <point x="240" y="209"/>
      <point x="240" y="141" type="qcurve"/>
      <point x="240" y="99"/>
      <point x="263" y="55"/>
      <point x="286" y="55" type="qcurve"/>
      <point x="321" y="55"/>
      <point x="379" y="160"/>
      <point x="386" y="228" type="qcurve"/>
    </contour>
  </outline>
</glyph>
<glyph name="A" format="1">
  <advance width="480"/>
  <unicode hex="0041"/>
  <outline>
    <contour>
      <point x="120" y="55" type="line"/>
      <point x="120" y="0" type="line"/>
      <point x="-60" y="0" type="line"/>
      <point x="-60" y="55" type="line"/>
      <point x="-5" y="55" type="line"/>
      <point x="179" y="540" type="line"/>
      <point x="246" y="540" type="line"/>
      <point x="426" y="55" type="line"/>
      <point x="480" y="55" type="line"/>
      <point x="480" y="0" type="line"/>
      <point x="300" y="0" type="line"/>
      <point x="300" y="55" type="line"/>
      <point x="362" y="55" type="line"/>
      <point x="314" y="185" type="line"/>
      <point x="102" y="185" type="line"/>
      <point x="55" y="55" type="line"/>
    </contour>
    <contour>
      <point x="210" y="470" type="line"/>
      <point x="206" y="470" type="line"/>
      <point x="122" y="240" type="line"/>
      <point x="294" y="240" type="line"/>
    </contour>
  </outline>
</glyph>
<glyph name="B" format="1">
  <advance width="480"/>
  <unicode hex="0042"/>
  <outline>
    <contour>
      <point x="291" y="287" type="line"/>
      <point x="349" y="272"/>
      <point x="400" y="203"/>
      <point x="400" y="153" type="qcurve"/>
      <point x="400" y="78"/>
      <point x="294" y="0"/>
      <point x="185" y="0" type="qcurve"/>
      <point x="0" y="0" type="line"/>
      <point x="0" y="55" type="line"/>
      <point x="60" y="55" type="line"/>
      <point x="60" y="485" type="line"/>
      <point x="0" y="485" type="line"/>
      <point x="0" y="540" type="line"/>
      <point x="183" y="540" type="line"/>
      <point x="288" y="540"/>
      <point x="380" y="478"/>
      <point x="380" y="408" type="qcurve"/>
      <point x="380" y="365"/>
      <point x="340" y="306"/>
      <point x="291" y="290" type="qcurve"/>
    </contour>
    <contour>
      <point x="189" y="55" type="line"/>
      <point x="262" y="55"/>
      <point x="335" y="102"/>
      <point x="335" y="153" type="qcurve"/>
      <point x="335" y="201"/>
      <point x="272" y="255"/>
      <point x="200" y="255" type="qcurve"/>
      <point x="120" y="255" type="line"/>
      <point x="120" y="55" type="line"/>
    </contour>
    <contour>
      <point x="188" y="310" type="line"/>
      <point x="251" y="310"/>
      <point x="315" y="353"/>
      <point x="315" y="401" type="qcurve"/>
      <point x="315" y="448"/>
      <point x="257" y="485"/>
      <point x="179" y="485" type="qcurve"/>
      <point x="120" y="485" type="line"/>
      <point x="120" y="310" type="line"/>
    </contour>
  </outline>
</glyph>
<glyph name="C" format="1">
  <advance width="540"/>
  <unicode hex="0043"/>
  <outline>
    <contour>
      <point x="460" y="51" type="line"/>
      <point x="372" y="0"/>
      <point x="282" y="0" type="qcurve"/>
      <point x="166" y="0"/>
      <point x="25" y="146"/>
      <point x="25" y="269" type="qcurve"/>
      <point x="25" y="398"/>
      <point x="168" y="540"/>
      <point x="285" y="540" type="qcurve"/>
      <point x="372" y="540"/>
      <point x="460" y="498" type="qcurve"/>
      <point x="460" y="360" type="line"/>
      <point x="400" y="360" type="line"/>
      <point x="400" y="460" type="line"/>
      <point x="347" y="485"/>
      <point x="280" y="485" type="qcurve"/>
      <point x="187" y="485"/>
      <point x="90" y="374"/>
      <point x="90" y="274" type="qcurve"/>
      <point x="90" y="172"/>
      <point x="194" y="55"/>
      <point x="287" y="55" type="qcurve"/>
      <point x="367" y="55"/>
      <point x="460" y="107" type="qcurve"/>
    </contour>
  </outline>
</glyph>
<glyph name="D" format="1">
  <advance width="540"/>
  <unicode hex="0044"/>
  <outline>
    <contour>
      <point x="0" y="55" type="line"/>
      <point x="60" y="55" type="line"/>
      <point x="60" y="485" type="line"/>
      <point x="0" y="485" type="line"/>
      <point x="0" y="540" type="line"/>
      <point x="186" y="540" type="line"/>
      <point x="318" y="540"/>
      <point x="455" y="411"/>
      <point x="455" y="285" type="qcurve"/>
      <point x="455" y="142"/>
      <point x="305" y="0"/>
      <point x="176" y="0" type="qcurve"/>
      <point x="0" y="0" type="line"/>
    </contour>
    <contour>
      <point x="120" y="55" type="line"/>
      <point x="182" y="55" type="line"/>
      <point x="282" y="55"/>
      <point x="390" y="166"/>
      <point x="390" y="278" type="qcurve"/>
      <point x="390" y="382"/>
      <point x="291" y="485"/>
      <point x="183" y="485" type="qcurve"/>
      <point x="120" y="485" type="line"/>
    </contour>
  </outline>
</glyph>
<glyph name="E" format="1">
  <advance width="480"/>
  <unicode hex="0045"/>
  <outline>
    <contour>
      <point x="0" y="485" type="line"/>
      <point x="0" y="540" type="line"/>
      <point x="400" y="540" type="line"/>
      <point x="400" y="380" type="line"/>
      <point x="340" y="380" type="line"/>
      <point x="340" y="485" type="line"/>
      <point x="120" y="485" type="line"/>
      <point x="120" y="310" type="line"/>
      <point x="220" y="310" type="line"/>
      <point x="220" y="370" type="line"/>
      <point x="280" y="370" type="line"/>
      <point x="280" y="190" type="line"/>
      <point x="220" y="190" type="line"/>
      <point x="220" y="255" type="line"/>
      <point x="120" y="255" type="line"/>
      <point x="120" y="55" type="line"/>
      <point x="340" y="55" type="line"/>
      <point x="340" y="160" type="line"/>
      <point x="400" y="160" type="line"/>
      <point x="400" y="0" type="line"/>
      <point x="0" y="0" type="line"/>
      <point x="0" y="55" type="line"/>
      <point x="60" y="55" type="line"/>
      <point x="60" y="485" type="line"/>
    </contour>
  </outline>
</glyph>
<glyph name="G" format="1">
  <advance width="600"/>
  <unicode hex="0047"/>
  <outline>
    <contour>
      <point x="480" y="43" type="line"/>
      <point x="389" y="0"/>
      <point x="295" y="0" type="qcurve"/>
      <point x="173" y="0"/>
      <point x="25" y="146"/>
      <point x="25" y="269" type="qcurve"/>
      <point x="25" y="398"/>
      <point x="175" y="540"/>
      <point x="297" y="540" type="qcurve"/>
      <point x="388" y="540"/>
      <point x="480" y="498" type="qcurve"/>
      <point x="480" y="360" type="line"/>
      <point x="420" y="360" type="line"/>
      <point x="420" y="460" type="line"/>
      <point x="364" y="485"/>
      <point x="292" y="485" type="qcurve"/>
      <point x="193" y="485"/>
      <point x="90" y="374"/>
      <point x="90" y="274" type="qcurve"/>
      <point x="90" y="172"/>
      <point x="201" y="55"/>
      <point x="301" y="55" type="qcurve"/>
      <point x="357" y="55"/>
      <point x="420" y="76" type="qcurve"/>
      <point x="420" y="210" type="line"/>
      <point x="360" y="210" type="line"/>
      <point x="360" y="265" type="line"/>
      <point x="540" y="265" type="line"/>
      <point x="540" y="210" type="line"/>
      <point x="480" y="210" type="line"/>
    </contour>
  </outline>
</glyph>
<glyph name="H" format="1">
  <advance width="600"/>
  <unicode hex="0048"/>
  <outline>
    <contour>
      <point x="360" y="55" type="line"/>
      <point x="420" y="55" type="line"/>
      <point x="420" y="255" type="line"/>
      <point x="120" y="255" type="line"/>
      <point x="120" y="55" type="line"/>
      <point x="180" y="55" type="line"/>
      <point x="180" y="0" type="line"/>
      <point x="0" y="0" type="line"/>
      <point x="0" y="55" type="line"/>
      <point x="60" y="55" type="line"/>
      <point x="60" y="485" type="line"/>
      <point x="0" y="485" type="line"/>
      <point x="0" y="540" type="line"/>
      <point x="180" y="540" type="line"/>
      <point x="180" y="485" type="line"/>
      <point x="120" y="485" type="line"/>
      <point x="120" y="310" type="line"/>
      <point x="420" y="310" type="line"/>
      <point x="420" y="485" type="line"/>
      <point x="360" y="485" type="line"/>
      <point x="360" y="540" type="line"/>
      <point x="540" y="540" type="line"/>
      <point x="540" y="485" type="line"/>
      <point x="480" y="485" type="line"/>
      <point x="480" y="55" type="line"/>
      <point x="540" y="55" type="line"/>
      <point x="540" y="0" type="line"/>
      <point x="360" y="0" type="line"/>
    </contour>
  </outline>
</glyph>
<glyph name="I" format="1">
  <advance width="240"/>
  <unicode hex="0049"/>
  <outline>
    <contour>
      <point x="0" y="55" type="line"/>
      <point x="60" y="55" type="line"/>
      <point x="60" y="485" type="line"/>
      <point x="0" y="485" type="line"/>
      <point x="0" y="540" type="line"/>
      <point x="180" y="540" type="line"/>
      <point x="180" y="485" type="line"/>
      <point x="120" y="485" type="line"/>
      <point x="120" y="55" type="line"/>
      <point x="180" y="55" type="line"/>
      <point x="180" y="0" type="line"/>
      <point x="0" y="0" type="line"/>
    </contour>
  </outline>
</glyph>
<glyph name="J" format="1">
  <advance width="240"/>
  <unicode hex="004A"/>
  <outline>
    <contour>
      <point x="-40" y="-64" type="line"/>
      <point x="-27" y="-65"/>
      <point x="-11" y="-65" type="qcurve"/>
      <point x="28" y="-65"/>
      <point x="60" y="-22"/>
      <point x="60" y="27" type="qcurve"/>
      <point x="60" y="485" type="line"/>
      <point x="0" y="485" type="line"/>
      <point x="0" y="540" type="line"/>
      <point x="180" y="540" type="line"/>
      <point x="180" y="485" type="line"/>
      <point x="120" y="485" type="line"/>
      <point x="120" y="32" type="line"/>
      <point x="120" y="-44"/>
      <point x="65" y="-120"/>
      <point x="-6" y="-120" type="qcurve"/>
      <point x="-25" y="-120"/>
      <point x="-40" y="-117" type="qcurve"/>
    </contour>
  </outline>
</glyph>
<glyph name="K" format="1">
  <advance width="540"/>
  <unicode hex="004B"/>
  <outline>
    <contour>
      <point x="480" y="55" type="line"/>
      <point x="480" y="0" type="line"/>
      <point x="300" y="0" type="line"/>
      <point x="300" y="55" type="line"/>
      <point x="343" y="55" type="line"/>
      <point x="130" y="271" type="line"/>
      <point x="352" y="485" type="line"/>
      <point x="300" y="485" type="line"/>
      <point x="300" y="540" type="line"/>
      <point x="480" y="540" type="line"/>
      <point x="480" y="485" type="line"/>
      <point x="426" y="485" type="line"/>
      <point x="209" y="276" type="line"/>
      <point x="427" y="55" type="line"/>
    </contour>
    <contour>
      <point x="0" y="55" type="line"/>
      <point x="60" y="55" type="line"/>
      <point x="60" y="485" type="line"/>
      <point x="0" y="485" type="line"/>
      <point x="0" y="540" type="line"/>
      <point x="180" y="540" type="line"/>
      <point x="180" y="485" type="line"/>
      <point x="120" y="485" type="line"/>
      <point x="120" y="55" type="line"/>
      <point x="180" y="55" type="line"/>
      <point x="180" y="0" type="line"/>
      <point x="0" y="0" type="line"/>
    </contour>
  </outline>
</glyph>
<glyph name="L" format="1">
  <advance width="480"/>
  <unicode hex="004C"/>
  <outline>
    <contour>
      <point x="0" y="55" type="line"/>
      <point x="60" y="55" type="line"/>
      <point x="60" y="485" type="line"/>
      <point x="0" y="485" type="line"/>
      <point x="0" y="540" type="line"/>
      <point x="180" y="540" type="line"/>
      <point x="180" y="485" type="line"/>
      <point x="120" y="485" type="line"/>
      <point x="120" y="55" type="line"/>
      <point x="360" y="55" type="line"/>
      <point x="360" y="160" type="line"/>
      <point x="420" y="160" type="line"/>
      <point x="420" y="0" type="line"/>
      <point x="0" y="0" type="line"/>
    </contour>
  </outline>
</glyph>
<glyph name="M" format="1">
  <advance width="720"/>
  <unicode hex="004D"/>
  <outline>
    <contour>
      <point x="335" y="101" type="line"/>
      <point x="517" y="540" type="line"/>
      <point x="660" y="540" type="line"/>
      <point x="660" y="485" type="line"/>
      <point x="600" y="485" type="line"/>
      <point x="600" y="55" type="line"/>
      <point x="660" y="55" type="line"/>
      <point x="660" y="0" type="line"/>
      <point x="480" y="0" type="line"/>
      <point x="480" y="55" type="line"/>
      <point x="540" y="55" type="line"/>
      <point x="540" y="447" type="line"/>
      <point x="536" y="447" type="line"/>
      <point x="351" y="0" type="line"/>
      <point x="308" y="0" type="line"/>
      <point x="124" y="447" type="line"/>
      <point x="120" y="447" type="line"/>
      <point x="120" y="55" type="line"/>
      <point x="180" y="55" type="line"/>
      <point x="180" y="0" type="line"/>
      <point x="0" y="0" type="line"/>
      <point x="0" y="55" type="line"/>
      <point x="60" y="55" type="line"/>
      <point x="60" y="485" type="line"/>
      <point x="0" y="485" type="line"/>
      <point x="0" y="540" type="line"/>
      <point x="151" y="540" type="line"/>
      <point x="331" y="101" type="line"/>
    </contour>
  </outline>
</glyph>
<glyph name="N" format="1">
  <advance width="600"/>
  <unicode hex="004E"/>
  <outline>
    <contour>
      <point x="420" y="485" type="line"/>
      <point x="360" y="485" type="line"/>
      <point x="360" y="540" type="line"/>
      <point x="540" y="540" type="line"/>
      <point x="540" y="485" type="line"/>
      <point x="480" y="485" type="line"/>
      <point x="480" y="0" type="line"/>
      <point x="420" y="0" type="line"/>
      <point x="124" y="431" type="line"/>
      <point x="120" y="431" type="line"/>
      <point x="120" y="55" type="line"/>
      <point x="180" y="55" type="line"/>
      <point x="180" y="0" type="line"/>
      <point x="0" y="0" type="line"/>
      <point x="0" y="55" type="line"/>
      <point x="60" y="55" type="line"/>
      <point x="60" y="485" type="line"/>
      <point x="0" y="485" type="line"/>
      <point x="0" y="540" type="line"/>
      <point x="120" y="540" type="line"/>
      <point x="416" y="110" type="line"/>
      <point x="420" y="110" type="line"/>
    </contour>
  </outline>
</glyph>
<glyph name="O" format="1">
  <advance width="600"/>
  <unicode hex="004F"/>
  <outline>
    <contour>
      <point x="25" y="271" type="qcurve"/>
      <point x="25" y="392"/>
      <point x="161" y="540"/>
      <point x="275" y="540" type="qcurve"/>
      <point x="386" y="540"/>
      <point x="515" y="398"/>
      <point x="515" y="278" type="qcurve"/>
      <point x="515" y="150"/>
      <point x="379" y="0"/>
      <point x="268" y="0" type="qcurve"/>
      <point x="158" y="0"/>
      <point x="25" y="147"/>
    </contour>
    <contour>
      <point x="90" y="275" type="qcurve"/>
      <point x="90" y="175"/>
      <point x="186" y="55"/>
      <point x="270" y="55" type="qcurve"/>
      <point x="355" y="55"/>
      <point x="450" y="175"/>
      <point x="450" y="275" type="qcurve"/>
      <point x="450" y="370"/>
      <point x="359" y="485"/>
      <point x="271" y="485" type="qcurve"/>
      <point x="184" y="485"/>
      <point x="90" y="374"/>
    </contour>
  </outline>
</glyph>
<glyph name="P" format="1">
  <advance width="480"/>
  <unicode hex="0050"/>
  <outline>
    <contour>
      <point x="120" y="240" type="line"/>
      <point x="120" y="55" type="line"/>
      <point x="180" y="55" type="line"/>
      <point x="180" y="0" type="line"/>
      <point x="0" y="0" type="line"/>
      <point x="0" y="55" type="line"/>
      <point x="60" y="55" type="line"/>
      <point x="60" y="485" type="line"/>
      <point x="0" y="485" type="line"/>
      <point x="0" y="540" type="line"/>
      <point x="240" y="540" type="line"/>
      <point x="337" y="540"/>
      <point x="425" y="468"/>
      <point x="425" y="398" type="qcurve"/>
      <point x="425" y="320"/>
      <point x="322" y="240"/>
      <point x="227" y="240" type="qcurve"/>
    </contour>
    <contour>
      <point x="230" y="295" type="line"/>
      <point x="293" y="295"/>
      <point x="360" y="342"/>
      <point x="360" y="392" type="qcurve"/>
      <point x="360" y="441"/>
      <point x="300" y="485"/>
      <point x="235" y="485" type="qcurve"/>
      <point x="120" y="485" type="line"/>
      <point x="120" y="295" type="line"/>
    </contour>
  </outline>
</glyph>
<glyph name="Q" format="1">
  <advance width="600"/>
  <unicode hex="0051"/>
  <outline>
    <contour>
      <point x="560" y="-107" type="line"/>
      <point x="519" y="-120"/>
      <point x="475" y="-120" type="qcurve"/>
      <point x="320" y="-120"/>
      <point x="227" y="2" type="qcurve"/>
      <point x="135" y="17"/>
      <point x="25" y="160"/>
      <point x="25" y="271" type="qcurve"/>
      <point x="25" y="391"/>
      <point x="161" y="540"/>
      <point x="275" y="540" type="qcurve"/>
      <point x="386" y="540"/>
      <point x="515" y="397"/>
      <point x="515" y="278" type="qcurve"/>
      <point x="515" y="163"/>
      <point x="404" y="18"/>
      <point x="311" y="5" type="qcurve"/>
      <point x="311" y="0" type="line"/>
      <point x="373" y="-60"/>
      <point x="480" y="-60" type="qcurve"/>
      <point x="522" y="-60"/>
      <point x="560" y="-49" type="qcurve"/>
    </contour>
    <contour>
      <point x="90" y="275" type="qcurve"/>
      <point x="90" y="175"/>
      <point x="186" y="55"/>
      <point x="270" y="55" type="qcurve"/>
      <point x="355" y="55"/>
      <point x="450" y="175"/>
      <point x="450" y="275" type="qcurve"/>
      <point x="450" y="370"/>
      <point x="359" y="485"/>
      <point x="271" y="485" type="qcurve"/>
      <point x="184" y="485"/>
      <point x="90" y="374"/>
    </contour>
  </outline>
</glyph>
<glyph name="R" format="1">
  <advance width="540"/>
  <unicode hex="0052"/>
  <outline>
    <contour>
      <point x="120" y="240" type="line"/>
      <point x="120" y="55" type="line"/>
      <point x="180" y="55" type="line"/>
      <point x="180" y="0" type="line"/>
      <point x="0" y="0" type="line"/>
      <point x="0" y="55" type="line"/>
      <point x="60" y="55" type="line"/>
      <point x="60" y="485" type="line"/>
      <point x="0" y="485" type="line"/>
      <point x="0" y="540" type="line"/>
      <point x="240" y="540" type="line"/>
      <point x="338" y="540"/>
      <point x="425" y="468"/>
      <point x="425" y="396" type="qcurve"/>
      <point x="425" y="272"/>
      <point x="282" y="248" type="qcurve"/>
      <point x="282" y="245" type="line"/>
      <point x="299" y="236"/>
      <point x="331" y="204"/>
      <point x="353" y="166" type="qcurve"/>
      <point x="417" y="55" type="line"/>
      <point x="480" y="55" type="line"/>
      <point x="480" y="0" type="line"/>
      <point x="374" y="0" type="line"/>
      <point x="361" y="24"/>
      <point x="338" y="65"/>
      <point x="327" y="84" type="qcurve"/>
      <point x="293" y="144" type="line"/>
      <point x="275" y="177"/>
      <point x="248" y="215"/>
      <point x="222" y="235"/>
      <point x="194" y="240"/>
      <point x="175" y="240" type="qcurve"/>
    </contour>
    <contour>
      <point x="230" y="295" type="line"/>
      <point x="293" y="295"/>
      <point x="360" y="341"/>
      <point x="360" y="392" type="qcurve"/>
      <point x="360" y="441"/>
      <point x="301" y="485"/>
      <point x="235" y="485" type="qcurve"/>
      <point x="120" y="485" type="line"/>
      <point x="120" y="295" type="line"/>
    </contour>
  </outline>
</glyph>
<glyph name="S" format="1">
  <advance width="420"/>
  <unicode hex="0053"/>
  <outline>
    <contour>
      <point x="158" y="0" type="qcurve"/>
      <point x="79" y="0"/>
      <point x="0" y="33" type="qcurve"/>
      <point x="0" y="160" type="line"/>
      <point x="60" y="160" type="line"/>
      <point x="60" y="70" type="line"/>
      <point x="106" y="55"/>
      <point x="168" y="55" type="qcurve"/>
      <point x="231" y="55"/>
      <point x="300" y="103"/>
      <point x="300" y="139" type="qcurve"/>
      <point x="300" y="159"/>
      <point x="285" y="187"/>
      <point x="253" y="209"/>
      <point x="203" y="229"/>
      <point x="168" y="240" type="qcurve"/>
      <point x="138" y="250"/>
      <point x="77" y="274"/>
      <point x="26" y="308"/>
      <point x="-5" y="359"/>
      <point x="-5" y="395" type="qcurve"/>
      <point x="-5" y="460"/>
      <point x="102" y="540"/>
      <point x="191" y="540" type="qcurve"/>
      <point x="273" y="540"/>
      <point x="340" y="506" type="qcurve"/>
      <point x="340" y="380" type="line"/>
      <point x="280" y="380" type="line"/>
      <point x="280" y="469" type="line"/>
      <point x="242" y="485"/>
      <point x="183" y="485" type="qcurve"/>
      <point x="123" y="485"/>
      <point x="60" y="436"/>
      <point x="60" y="402" type="qcurve"/>
      <point x="60" y="380"/>
      <point x="77" y="351"/>
      <point x="111" y="328"/>
      <point x="161" y="309"/>
      <point x="195" y="298" type="qcurve"/>
      <point x="225" y="288"/>
      <point x="286" y="264"/>
      <point x="335" y="231"/>
      <point x="365" y="182"/>
      <point x="365" y="147" type="qcurve"/>
      <point x="365" y="77"/>
      <point x="255" y="0"/>
    </contour>
  </outline>
</glyph>
<glyph name="T" format="1">
  <advance width="480"/>
  <unicode hex="0054"/>
  <outline>
    <contour>
      <point x="120" y="55" type="line"/>
      <point x="180" y="55" type="line"/>
      <point x="180" y="485" type="line"/>
      <point x="60" y="485" type="line"/>
      <point x="60" y="380" type="line"/>
      <point x="0" y="380" type="line"/>
      <point x="0" y="540" type="line"/>
      <point x="420" y="540" type="line"/>
      <point x="420" y="380" type="line"/>
      <point x="360" y="380" type="line"/>
      <point x="360" y="485" type="line"/>
      <point x="240" y="485" type="line"/>
      <point x="240" y="55" type="line"/>
      <point x="300" y="55" type="line"/>
      <point x="300" y="0" type="line"/>
      <point x="120" y="0" type="line"/>
    </contour>
  </outline>
</glyph>
<glyph name="U" format="1">
  <advance width="600"/>
  <unicode hex="0055"/>
  <outline>
    <contour>
      <point x="120" y="205" type="line"/>
      <point x="120" y="132"/>
      <point x="200" y="52"/>
      <point x="268" y="52" type="qcurve"/>
      <point x="339" y="52"/>
      <point x="420" y="135"/>
      <point x="420" y="207" type="qcurve"/>
      <point x="420" y="485" type="line"/>
      <point x="360" y="485" type="line"/>
      <point x="360" y="540" type="line"/>
      <point x="540" y="540" type="line"/>
      <point x="540" y="485" type="line"/>
      <point x="480" y="485" type="line"/>
      <point x="480" y="209" type="line"/>
      <point x="480" y="115"/>
      <point x="367" y="0"/>
      <point x="268" y="0" type="qcurve"/>
      <point x="173" y="0"/>
      <point x="60" y="108"/>
      <point x="60" y="203" type="qcurve"/>
      <point x="60" y="485" type="line"/>
      <point x="0" y="485" type="line"/>
      <point x="0" y="540" type="line"/>
      <point x="180" y="540" type="line"/>
      <point x="180" y="485" type="line"/>
      <point x="120" y="485" type="line"/>
    </contour>
  </outline>
</glyph>
<glyph name="V" format="1">
  <advance width="480"/>
  <unicode hex="0056"/>
  <outline>
    <contour>
      <point x="210" y="70" type="line"/>
      <point x="214" y="70" type="line"/>
      <point x="365" y="485" type="line"/>
      <point x="300" y="485" type="line"/>
      <point x="300" y="540" type="line"/>
      <point x="480" y="540" type="line"/>
      <point x="480" y="485" type="line"/>
      <point x="423" y="485" type="line"/>
      <point x="241" y="0" type="line"/>
      <point x="174" y="0" type="line"/>
      <point x="-4" y="485" type="line"/>
      <point x="-60" y="485" type="line"/>
      <point x="-60" y="540" type="line"/>
      <point x="120" y="540" type="line"/>
      <point x="120" y="485" type="line"/>
      <point x="58" y="485" type="line"/>
    </contour>
  </outline>
</glyph>
<glyph name="W" format="1">
  <advance width="780"/>
  <unicode hex="0057"/>
  <outline>
    <contour>
      <point x="356" y="317" type="line"/>
      <point x="238" y="0" type="line"/>
      <point x="171" y="0" type="line"/>
      <point x="-4" y="485" type="line"/>
      <point x="-60" y="485" type="line"/>
      <point x="-60" y="540" type="line"/>
      <point x="120" y="540" type="line"/>
      <point x="120" y="485" type="line"/>
      <point x="58" y="485" type="line"/>
      <point x="207" y="70" type="line"/>
      <point x="211" y="70" type="line"/>
      <point x="331" y="391" type="line"/>
      <point x="296" y="485" type="line"/>
      <point x="238" y="485" type="line"/>
      <point x="240" y="540" type="line"/>
      <point x="420" y="540" type="line"/>
      <point x="420" y="485" type="line"/>
      <point x="358" y="485" type="line"/>
      <point x="514" y="70" type="line"/>
      <point x="518" y="70" type="line"/>
      <point x="665" y="485" type="line"/>
      <point x="600" y="485" type="line"/>
      <point x="600" y="540" type="line"/>
      <point x="780" y="540" type="line"/>
      <point x="780" y="485" type="line"/>
      <point x="723" y="485" type="line"/>
      <point x="545" y="0" type="line"/>
      <point x="478" y="0" type="line"/>
      <point x="360" y="317" type="line"/>
    </contour>
  </outline>
</glyph>
<glyph name="X" format="1">
  <advance width="540"/>
  <unicode hex="0058"/>
  <outline>
    <contour>
      <point x="57" y="485" type="line"/>
      <point x="0" y="485" type="line"/>
      <point x="0" y="540" type="line"/>
      <point x="180" y="540" type="line"/>
      <point x="180" y="485" type="line"/>
      <point x="127" y="485" type="line"/>
      <point x="243" y="315" type="line"/>
      <point x="360" y="485" type="line"/>
      <point x="300" y="485" type="line"/>
      <point x="300" y="540" type="line"/>
      <point x="480" y="540" type="line"/>
      <point x="480" y="485" type="line"/>
      <point x="423" y="485" type="line"/>
      <point x="274" y="270" type="line"/>
      <point x="423" y="55" type="line"/>
      <point x="480" y="55" type="line"/>
      <point x="480" y="0" type="line"/>
      <point x="300" y="0" type="line"/>
      <point x="300" y="55" type="line"/>
      <point x="353" y="55" type="line"/>
      <point x="236" y="224" type="line"/>
      <point x="120" y="55" type="line"/>
      <point x="180" y="55" type="line"/>
      <point x="180" y="0" type="line"/>
      <point x="0" y="0" type="line"/>
      <point x="0" y="55" type="line"/>
      <point x="57" y="55" type="line"/>
      <point x="205" y="269" type="line"/>
    </contour>
  </outline>
</glyph>
<glyph name="Y" format="1">
  <advance width="480"/>
  <unicode hex="0059"/>
  <outline>
    <contour>
      <point x="214" y="279" type="line"/>
      <point x="357" y="485" type="line"/>
      <point x="300" y="485" type="line"/>
      <point x="300" y="540" type="line"/>
      <point x="480" y="540" type="line"/>
      <point x="480" y="485" type="line"/>
      <point x="420" y="485" type="line"/>
      <point x="240" y="225" type="line"/>
      <point x="240" y="55" type="line"/>
      <point x="300" y="55" type="line"/>
      <point x="300" y="0" type="line"/>
      <point x="120" y="0" type="line"/>
      <point x="120" y="55" type="line"/>
      <point x="180" y="55" type="line"/>
      <point x="180" y="223" type="line"/>
      <point x="0" y="485" type="line"/>
      <point x="-60" y="485" type="line"/>
      <point x="-60" y="540" type="line"/>
      <point x="120" y="540" type="line"/>
      <point x="120" y="485" type="line"/>
      <point x="74" y="485" type="line"/>
      <point x="212" y="279" type="line"/>
    </contour>
  </outline>
</glyph>
<glyph name="Z" format="1">
  <advance width="480"/>
  <unicode hex="005A"/>
  <outline>
    <contour>
      <point x="0" y="49" type="line"/>
      <point x="328" y="485" type="line"/>
      <point x="60" y="485" type="line"/>
      <point x="60" y="380" type="line"/>
      <point x="0" y="380" type="line"/>
      <point x="0" y="540" type="line"/>
      <point x="400" y="540" type="line"/>
      <point x="400" y="491" type="line"/>
      <point x="72" y="55" type="line"/>
      <point x="340" y="55" type="line"/>
      <point x="340" y="160" type="line"/>
      <point x="400" y="160" type="line"/>
      <point x="400" y="0" type="line"/>
      <point x="0" y="0" type="line"/>
    </contour>
  </outline>
</glyph>
<glyph name="bracketleft" format="1">
  <advance width="300"/>
  <unicode hex="005B"/>
  <outline>
    <contour>
      <point x="60" y="600" type="line"/>
      <point x="240" y="600" type="line"/>
      <point x="240" y="545" type="line"/>
      <point x="120" y="545" type="line"/>
      <point x="120" y="-125" type="line"/>
      <point x="240" y="-125" type="line"/>
      <point x="240" y="-180" type="line"/>
      <point x="60" y="-180" type="line"/>
    </contour>
  </outline>
</glyph>
<glyph name="backslash" format="1">
  <advance width="300"/>
  <unicode hex="005C"/>
  <outline>
    <contour>
      <point x="240" y="-90" type="line"/>
      <point x="180" y="-90" type="line"/>
      <point x="-40" y="600" type="line"/>
      <point x="20" y="600" type="line"/>
    </contour>
  </outline>
</glyph>
<glyph name="bracketright" format="1">
  <advance width="300"/>
  <unicode hex="005D"/>
  <outline>
    <contour>
      <point x="180" y="-180" type="line"/>
      <point x="0" y="-180" type="line"/>
      <point x="0" y="-125" type="line"/>
      <point x="120" y="-125" type="line"/>
      <point x="120" y="545" type="line"/>
      <point x="0" y="545" type="line"/>
      <point x="0" y="600" type="line"/>
      <point x="180" y="600" type="line"/>
    </contour>
  </outline>
</glyph>
<glyph name="asciicircum" format="1">
  <advance width="360"/>
  <unicode hex="005E"/>
  <outline>
    <contour>
      <point x="151" y="464" type="line"/>
      <point x="149" y="464" type="line"/>
      <point x="44" y="240" type="line"/>
      <point x="-20" y="240" type="line"/>
      <point x="120" y="540" type="line"/>
      <point x="180" y="540" type="line"/>
      <point x="320" y="240" type="line"/>
      <point x="256" y="240" type="line"/>
    </contour>
  </outline>
</glyph>
<glyph name="underscore" format="1">
  <advance width="240"/>
  <unicode hex="005F"/>
  <outline>
    <contour>
      <point x="-80" y="-50" type="line"/>
      <point x="260" y="-50" type="line"/>
      <point x="260" y="-100" type="line"/>
      <point x="-80" y="-100" type="line"/>
    </contour>
  </outline>
</glyph>
<glyph name="a" format="1">
  <advance width="420"/>
  <unicode hex="0061"/>
  <outline>
    <contour>
      <point x="20" y="385" type="line"/>
      <point x="95" y="420"/>
      <point x="173" y="420" type="qcurve"/>
      <point x="241" y="420"/>
      <point x="310" y="358"/>
      <point x="310" y="289" type="qcurve"/>
      <point x="310" y="55" type="line"/>
      <point x="370" y="55" type="line"/>
      <point x="370" y="0" type="line"/>
      <point x="254" y="0" type="line"/>
      <point x="250" y="61" type="line"/>
      <point x="247" y="61" type="line"/>
      <point x="193" y="0"/>
      <point x="119" y="0" type="qcurve"/>
      <point x="59" y="0"/>
      <point x="-5" y="61"/>
      <point x="-5" y="115" type="qcurve"/>
      <point x="-5" y="249"/>
      <point x="208" y="249" type="qcurve"/>
      <point x="250" y="249" type="line"/>
      <point x="250" y="291" type="line"/>
      <point x="250" y="327"/>
      <point x="209" y="365"/>
      <point x="164" y="365" type="qcurve"/>
      <point x="98" y="365"/>
      <point x="20" y="330" type="qcurve"/>
    </contour>
    <contour>
      <point x="198" y="194" type="line"/>
      <point x="60" y="194"/>
      <point x="60" y="119" type="qcurve"/>
      <point x="60" y="87"/>
      <point x="97" y="55"/>
      <point x="132" y="55" type="qcurve"/>
      <point x="196" y="55"/>
      <point x="250" y="116" type="qcurve"/>
      <point x="250" y="194" type="line"/>
    </contour>
  </outline>
</glyph>
<glyph name="b" format="1">
  <advance width="480"/>
  <unicode hex="0062"/>
  <outline>
    <contour>
      <point x="120" y="61" type="line"/>
      <point x="156" y="53"/>
      <point x="192" y="53" type="qcurve"/>
      <point x="265" y="53"/>
      <point x="335" y="133"/>
      <point x="335" y="211" type="qcurve"/>
      <point x="335" y="282"/>
      <point x="274" y="365"/>
      <point x="220" y="365" type="qcurve"/>
      <point x="166" y="365"/>
      <point x="120" y="324" type="qcurve"/>
    </contour>
    <contour>
      <point x="120" y="376" type="line"/>
      <point x="121" y="376" type="line"/>
      <point x="175" y="420"/>
      <point x="240" y="420" type="qcurve"/>
      <point x="313" y="420"/>
      <point x="400" y="306"/>
      <point x="400" y="220" type="qcurve"/>
      <point x="400" y="123"/>
      <point x="295" y="0"/>
      <point x="196" y="0" type="qcurve"/>
      <point x="135" y="0"/>
      <point x="60" y="19" type="qcurve"/>
      <point x="60" y="545" type="line"/>
      <point x="0" y="545" type="line"/>
      <point x="0" y="600" type="line"/>
      <point x="120" y="600" type="line"/>
    </contour>
  </outline>
</glyph>
<glyph name="c" format="1">
  <advance width="420"/>
  <unicode hex="0063"/>
  <outline>
    <contour>
      <point x="360" y="32" type="line"/>
      <point x="297" y="0"/>
      <point x="224" y="0" type="qcurve"/>
      <point x="133" y="0"/>
      <point x="20" y="108"/>
      <point x="20" y="205" type="qcurve"/>
      <point x="20" y="307"/>
      <point x="139" y="420"/>
      <point x="232" y="420" type="qcurve"/>
      <point x="299" y="420"/>
      <point x="360" y="394" type="qcurve"/>
      <point x="360" y="300" type="line"/>
      <point x="300" y="300" type="line"/>
      <point x="300" y="356" type="line"/>
      <point x="271" y="366"/>
      <point x="228" y="366" type="qcurve"/>
      <point x="159" y="366"/>
      <point x="85" y="289"/>
      <point x="85" y="217" type="qcurve"/>
      <point x="85" y="137"/>
      <point x="159" y="57"/>
      <point x="231" y="57" type="qcurve"/>
      <point x="296" y="57"/>
      <point x="360" y="92" type="qcurve"/>
    </contour>
  </outline>
</glyph>
<glyph name="d" format="1">
  <advance width="480"/>
  <unicode hex="0064"/>
  <outline>
    <contour>
      <point x="240" y="545" type="line"/>
      <point x="240" y="600" type="line"/>
      <point x="360" y="600" type="line"/>
      <point x="360" y="55" type="line"/>
      <point x="420" y="55" type="line"/>
      <point x="420" y="0" type="line"/>
      <point x="304" y="0" type="line"/>
      <point x="300" y="51" type="line"/>
      <point x="298" y="51" type="line"/>
      <point x="250" y="0"/>
      <point x="188" y="0" type="qcurve"/>
      <point x="115" y="0"/>
      <point x="20" y="114"/>
      <point x="20" y="202" type="qcurve"/>
      <point x="20" y="301"/>
      <point x="125" y="420"/>
      <point x="208" y="420" type="qcurve"/>
      <point x="254" y="420"/>
      <point x="298" y="401" type="qcurve"/>
      <point x="300" y="401" type="line"/>
      <point x="300" y="545" type="line"/>
    </contour>
    <contour>
      <point x="300" y="347" type="line"/>
      <point x="259" y="365"/>
      <point x="212" y="365" type="qcurve"/>
      <point x="149" y="365"/>
      <point x="85" y="288"/>
      <point x="85" y="211" type="qcurve"/>
      <point x="85" y="135"/>
      <point x="146" y="55"/>
      <point x="202" y="55" type="qcurve"/>
      <point x="261" y="55"/>
      <point x="300" y="102" type="qcurve"/>
    </contour>
  </outline>
</glyph>
<glyph name="e" format="1">
  <advance width="420"/>
  <unicode hex="0065"/>
  <outline>
    <contour>
      <point x="222" y="55" type="qcurve"/>
      <point x="287" y="55"/>
      <point x="350" y="96" type="qcurve"/>
      <point x="350" y="37" type="line"/>
      <point x="285" y="0"/>
      <point x="214" y="0" type="qcurve"/>
      <point x="124" y="0"/>
      <point x="20" y="113"/>
      <point x="20" y="204" type="qcurve"/>
      <point x="20" y="306"/>
      <point x="123" y="420"/>
      <point x="207" y="420" type="qcurve"/>
      <point x="280" y="420"/>
      <point x="360" y="321"/>
      <point x="360" y="233" type="qcurve"/>
      <point x="360" y="202" type="line"/>
      <point x="85" y="202" type="line"/>
      <point x="88" y="133"/>
      <point x="153" y="55"/>
    </contour>
    <contour>
      <point x="300" y="257" type="line"/>
      <point x="295" y="365"/>
      <point x="200" y="365" type="qcurve"/>
      <point x="150" y="365"/>
      <point x="95" y="308"/>
      <point x="88" y="257" type="qcurve"/>
    </contour>
  </outline>
</glyph>
<glyph name="f" format="1">
  <advance width="240"/>
  <unicode hex="0066"/>
  <outline>
    <contour>
      <point x="300" y="480" type="line"/>
      <point x="245" y="480" type="line"/>
      <point x="245" y="539" type="line"/>
      <point x="225" y="545"/>
      <point x="202" y="545" type="qcurve"/>
      <point x="159" y="545"/>
      <point x="120" y="497"/>
      <point x="120" y="452" type="qcurve"/>
      <point x="120" y="420" type="line"/>
      <point x="220" y="420" type="line"/>
      <point x="220" y="365" type="line"/>
      <point x="120" y="365" type="line"/>
      <point x="120" y="55" type="line"/>
      <point x="180" y="55" type="line"/>
      <point x="180" y="0" type="line"/>
      <point x="0" y="0" type="line"/>
      <point x="0" y="55" type="line"/>
      <point x="60" y="55" type="line"/>
      <point x="60" y="365" type="line"/>
      <point x="0" y="365" type="line"/>
      <point x="0" y="420" type="line"/>
      <point x="60" y="420" type="line"/>
      <point x="60" y="442" type="line"/>
      <point x="60" y="522"/>
      <point x="135" y="600"/>
      <point x="201" y="600" type="qcurve"/>
      <point x="252" y="600"/>
      <point x="300" y="579" type="qcurve"/>
    </contour>
  </outline>
</glyph>
<glyph name="h" format="1">
  <advance width="480"/>
  <unicode hex="0068"/>
  <outline>
    <contour>
      <point x="0" y="55" type="line"/>
      <point x="60" y="55" type="line"/>
      <point x="60" y="540" type="line"/>
      <point x="0" y="540" type="line"/>
      <point x="0" y="600" type="line"/>
      <point x="120" y="600" type="line"/>
      <point x="120" y="363" type="line"/>
      <point x="121" y="363" type="line"/>
      <point x="178" y="420"/>
      <point x="253" y="420" type="qcurve"/>
      <point x="313" y="420"/>
      <point x="370" y="352"/>
      <point x="370" y="292" type="qcurve"/>
      <point x="370" y="55" type="line"/>
      <point x="430" y="55" type="line"/>
      <point x="430" y="0" type="line"/>
      <point x="250" y="0" type="line"/>
      <point x="250" y="55" type="line"/>
      <point x="310" y="55" type="line"/>
      <point x="310" y="285" type="line"/>
      <point x="310" y="330"/>
      <point x="270" y="365"/>
      <point x="237" y="365" type="qcurve"/>
      <point x="170" y="365"/>
      <point x="120" y="303" type="qcurve"/>
      <point x="120" y="55" type="line"/>
      <point x="180" y="55" type="line"/>
      <point x="180" y="0" type="line"/>
      <point x="0" y="0" type="line"/>
    </contour>
  </outline>
</glyph>
<glyph name="j" format="1">
  <advance width="240"/>
  <unicode hex="006A"/>
  <outline>
    <contour>
      <point x="120" y="-28" type="line"/>
      <point x="120" y="-111"/>
      <point x="65" y="-180"/>
      <point x="11" y="-180" type="qcurve"/>
      <point x="-5" y="-180"/>
      <point x="-20" y="-177" type="qcurve"/>
      <point x="-20" y="-124" type="line"/>
      <point x="-12" y="-125"/>
      <point x="0" y="-125" type="qcurve"/>
      <point x="36" y="-125"/>
      <point x="60" y="-80"/>
      <point x="60" y="-32" type="qcurve"/>
      <point x="60" y="365" type="line"/>
      <point x="0" y="365" type="line"/>
      <point x="0" y="420" type="line"/>
      <point x="120" y="420" type="line"/>
    </contour>
    <contour>
      <point x="40" y="525" type="qcurve"/>
      <point x="40" y="548"/>
      <point x="65" y="574"/>
      <point x="85" y="574" type="qcurve"/>
      <point x="105" y="574"/>
      <point x="130" y="548"/>
      <point x="130" y="528" type="qcurve"/>
      <point x="130" y="506"/>
      <point x="105" y="480"/>
      <point x="85" y="480" type="qcurve"/>
      <point x="65" y="480"/>
      <point x="40" y="506"/>
    </contour>
  </outline>
</glyph>
<glyph name="k" format="1">
  <advance width="480"/>
  <unicode hex="006B"/>
  <outline>
    <contour>
      <point x="328" y="0" type="line"/>
      <point x="130" y="225" type="line"/>
      <point x="278" y="363" type="line"/>
      <point x="278" y="365" type="line"/>
      <point x="220" y="365" type="line"/>
      <point x="220" y="420" type="line"/>
      <point x="400" y="420" type="line"/>
      <point x="400" y="365" type="line"/>
      <point x="348" y="365" type="line"/>
      <point x="204" y="231" type="line"/>
      <point x="360" y="55" type="line"/>
      <point x="420" y="55" type="line"/>
      <point x="420" y="0" type="line"/>
    </contour>
    <contour>
      <point x="0" y="55" type="line"/>
      <point x="60" y="55" type="line"/>
      <point x="60" y="545" type="line"/>
      <point x="0" y="545" type="line"/>
      <point x="0" y="600" type="line"/>
      <point x="120" y="600" type="line"/>
      <point x="120" y="55" type="line"/>
      <point x="180" y="55" type="line"/>
      <point x="180" y="0" type="line"/>
      <point x="0" y="0" type="line"/>
    </contour>
  </outline>
</glyph>
<glyph name="l" format="1">
  <advance width="240"/>
  <unicode hex="006C"/>
  <outline>
    <contour>
      <point x="0" y="55" type="line"/>
      <point x="60" y="55" type="line"/>
      <point x="60" y="545" type="line"/>
      <point x="0" y="545" type="line"/>
      <point x="0" y="600" type="line"/>
      <point x="120" y="600" type="line"/>
      <point x="120" y="55" type="line"/>
      <point x="180" y="55" type="line"/>
      <point x="180" y="0" type="line"/>
      <point x="0" y="0" type="line"/>
    </contour>
  </outline>
</glyph>
<glyph name="m" format="1">
  <advance width="720"/>
  <unicode hex="006D"/>
  <outline>
    <contour>
      <point x="0" y="55" type="line"/>
      <point x="60" y="55" type="line"/>
      <point x="60" y="365" type="line"/>
      <point x="0" y="365" type="line"/>
      <point x="0" y="420" type="line"/>
      <point x="116" y="420" type="line"/>
      <point x="120" y="363" type="line"/>
      <point x="122" y="363" type="line"/>
      <point x="175" y="420"/>
      <point x="249" y="420" type="qcurve"/>
      <point x="328" y="420"/>
      <point x="356" y="354" type="qcurve"/>
      <point x="359" y="354" type="line"/>
      <point x="415" y="420"/>
      <point x="494" y="420" type="qcurve"/>
      <point x="551" y="420"/>
      <point x="610" y="356"/>
      <point x="610" y="298" type="qcurve"/>
      <point x="610" y="55" type="line"/>
      <point x="670" y="55" type="line"/>
      <point x="670" y="0" type="line"/>
      <point x="490" y="0" type="line"/>
      <point x="490" y="55" type="line"/>
      <point x="550" y="55" type="line"/>
      <point x="550" y="282" type="line"/>
      <point x="550" y="326"/>
      <point x="512" y="365"/>
      <point x="477" y="365" type="qcurve"/>
      <point x="414" y="365"/>
      <point x="365" y="301" type="qcurve"/>
      <point x="365" y="55" type="line"/>
      <point x="425" y="55" type="line"/>
      <point x="425" y="0" type="line"/>
      <point x="245" y="0" type="line"/>
      <point x="245" y="55" type="line"/>
      <point x="305" y="55" type="line"/>
      <point x="305" y="282" type="line"/>
      <point x="305" y="326"/>
      <point x="267" y="365"/>
      <point x="232" y="365" type="qcurve"/>
      <point x="169" y="365"/>
      <point x="120" y="301" type="qcurve"/>
      <point x="120" y="55" type="line"/>
      <point x="180" y="55" type="line"/>
      <point x="180" y="0" type="line"/>
      <point x="0" y="0" type="line"/>
    </contour>
  </outline>
</glyph>
<glyph name="n" format="1">
  <advance width="480"/>
  <unicode hex="006E"/>
  <outline>
    <contour>
      <point x="0" y="55" type="line"/>
      <point x="60" y="55" type="line"/>
      <point x="60" y="365" type="line"/>
      <point x="0" y="365" type="line"/>
      <point x="0" y="420" type="line"/>
      <point x="117" y="420" type="line"/>
      <point x="120" y="361" type="line"/>
      <point x="121" y="361" type="line"/>
      <point x="178" y="420"/>
      <point x="253" y="420" type="qcurve"/>
      <point x="313" y="420"/>
      <point x="370" y="352"/>
      <point x="370" y="292" type="qcurve"/>
      <point x="370" y="55" type="line"/>
      <point x="430" y="55" type="line"/>
      <point x="430" y="0" type="line"/>
      <point x="250" y="0" type="line"/>
      <point x="250" y="55" type="line"/>
      <point x="310" y="55" type="line"/>
      <point x="310" y="285" type="line"/>
      <point x="310" y="330"/>
      <point x="270" y="365"/>
      <point x="237" y="365" type="qcurve"/>
      <point x="170" y="365"/>
      <point x="120" y="301" type="qcurve"/>
      <point x="120" y="55" type="line"/>
      <point x="180" y="55" type="line"/>
      <point x="180" y="0" type="line"/>
      <point x="0" y="0" type="line"/>
    </contour>
  </outline>
</glyph>
<glyph name="o" format="1">
  <advance width="480"/>
  <unicode hex="006F"/>
  <outline>
    <contour>
      <point x="20" y="208" type="qcurve"/>
      <point x="20" y="306"/>
      <point x="130" y="420"/>
      <point x="215" y="420" type="qcurve"/>
      <point x="299" y="420"/>
      <point x="400" y="313"/>
      <point x="400" y="217" type="qcurve"/>
      <point x="400" y="117"/>
      <point x="293" y="0"/>
      <point x="207" y="0" type="qcurve"/>
      <point x="123" y="0"/>
      <point x="20" y="112"/>
    </contour>
    <contour>
      <point x="85" y="217" type="qcurve"/>
      <point x="85" y="137"/>
      <point x="151" y="55"/>
      <point x="213" y="55" type="qcurve"/>
      <point x="272" y="55"/>
      <point x="335" y="133"/>
      <point x="335" y="210" type="qcurve"/>
      <point x="335" y="288"/>
      <point x="272" y="365"/>
      <point x="208" y="365" type="qcurve"/>
      <point x="151" y="365"/>
      <point x="85" y="294"/>
    </contour>
  </outline>
</glyph>
<glyph name="p" format="1">
  <advance width="480"/>
  <unicode hex="0070"/>
  <outline>
    <contour>
      <point x="180" y="-125" type="line"/>
      <point x="180" y="-180" type="line"/>
      <point x="0" y="-180" type="line"/>
      <point x="0" y="-125" type="line"/>
      <point x="60" y="-125" type="line"/>
      <point x="60" y="365" type="line"/>
      <point x="0" y="365" type="line"/>
      <point x="0" y="420" type="line"/>
      <point x="116" y="420" type="line"/>
      <point x="120" y="372" type="line"/>
      <point x="124" y="372" type="line"/>
      <point x="176" y="420"/>
      <point x="238" y="420" type="qcurve"/>
      <point x="310" y="420"/>
      <point x="400" y="307"/>
      <point x="400" y="218" type="qcurve"/>
      <point x="400" y="121"/>
      <point x="295" y="0"/>
      <point x="213" y="0" type="qcurve"/>
      <point x="166" y="0"/>
      <point x="122" y="19" type="qcurve"/>
      <point x="120" y="18" type="line"/>
      <point x="120" y="-125" type="line"/>
    </contour>
    <contour>
      <point x="120" y="72" type="line"/>
      <point x="157" y="55"/>
      <point x="205" y="55" type="qcurve"/>
      <point x="267" y="55"/>
      <point x="335" y="128"/>
      <point x="335" y="208" type="qcurve"/>
      <point x="335" y="283"/>
      <point x="274" y="365"/>
      <point x="220" y="365" type="qcurve"/>
      <point x="167" y="365"/>
      <point x="120" y="314" type="qcurve"/>
    </contour>
  </outline>
</glyph>
<glyph name="q" format="1">
  <advance width="480"/>
  <unicode hex="0071"/>
  <outline>
    <contour>
      <point x="420" y="-125" type="line"/>
      <point x="420" y="-180" type="line"/>
      <point x="240" y="-180" type="line"/>
      <point x="240" y="-125" type="line"/>
      <point x="300" y="-125" type="line"/>
      <point x="300" y="46" type="line"/>
      <point x="298" y="46" type="line"/>
      <point x="250" y="0"/>
      <point x="188" y="0" type="qcurve"/>
      <point x="115" y="0"/>
      <point x="20" y="114"/>
      <point x="20" y="201" type="qcurve"/>
      <point x="20" y="300"/>
      <point x="124" y="420"/>
      <point x="220" y="420" type="qcurve"/>
      <point x="282" y="420"/>
      <point x="360" y="397" type="qcurve"/>
      <point x="360" y="-125" type="line"/>
    </contour>
    <contour>
      <point x="300" y="355" type="line"/>
      <point x="259" y="365"/>
      <point x="215" y="365" type="qcurve"/>
      <point x="149" y="365"/>
      <point x="85" y="288"/>
      <point x="85" y="210" type="qcurve"/>
      <point x="85" y="133"/>
      <point x="147" y="55"/>
      <point x="203" y="55" type="qcurve"/>
      <point x="259" y="55"/>
      <point x="300" y="98" type="qcurve"/>
    </contour>
  </outline>
</glyph>
<glyph name="r" format="1">
  <advance width="300"/>
  <unicode hex="0072"/>
  <outline>
    <contour>
      <point x="260" y="351" type="line"/>
      <point x="239" y="355"/>
      <point x="219" y="355" type="qcurve"/>
      <point x="151" y="355"/>
      <point x="120" y="292" type="qcurve"/>
      <point x="120" y="55" type="line"/>
      <point x="180" y="55" type="line"/>
      <point x="180" y="0" type="line"/>
      <point x="0" y="0" type="line"/>
      <point x="0" y="55" type="line"/>
      <point x="60" y="55" type="line"/>
      <point x="60" y="365" type="line"/>
      <point x="0" y="365" type="line"/>
      <point x="0" y="420" type="line"/>
      <point x="116" y="420" type="line"/>
      <point x="120" y="359" type="line"/>
      <point x="122" y="359" type="line"/>
      <point x="161" y="420"/>
      <point x="229" y="420" type="qcurve"/>
      <point x="244" y="420"/>
      <point x="260" y="417" type="qcurve"/>
    </contour>
  </outline>
</glyph>
<glyph name="s" format="1">
  <advance width="420"/>
  <unicode hex="0073"/>
  <outline>
    <contour>
      <point x="30" y="305" type="qcurve"/>
      <point x="30" y="360"/>
      <point x="121" y="420"/>
      <point x="194" y="420" type="qcurve"/>
      <point x="256" y="420"/>
      <point x="325" y="398" type="qcurve"/>
      <point x="325" y="300" type="line"/>
      <point x="265" y="300" type="line"/>
      <point x="265" y="357" type="line"/>
      <point x="230" y="366"/>
      <point x="189" y="366" type="qcurve"/>
      <point x="149" y="366"/>
      <point x="95" y="340"/>
      <point x="95" y="313" type="qcurve"/>
      <point x="95" y="297"/>
      <point x="108" y="276"/>
      <point x="134" y="261"/>
      <point x="174" y="247"/>
      <point x="200" y="239" type="qcurve"/>
      <point x="225" y="231"/>
      <point x="275" y="213"/>
      <point x="315" y="187"/>
      <point x="340" y="148"/>
      <point x="340" y="119" type="qcurve"/>
      <point x="340" y="63"/>
      <point x="246" y="0"/>
      <point x="169" y="0" type="qcurve"/>
      <point x="100" y="0"/>
      <point x="35" y="27" type="qcurve"/>
      <point x="35" y="120" type="line"/>
      <point x="95" y="120" type="line"/>
      <point x="95" y="63" type="line"/>
      <point x="132" y="54"/>
      <point x="174" y="54" type="qcurve"/>
      <point x="216" y="54"/>
      <point x="275" y="81"/>
      <point x="275" y="110" type="qcurve"/>
      <point x="275" y="141"/>
      <point x="222" y="169"/>
      <point x="174" y="183" type="qcurve"/>
      <point x="149" y="190"/>
      <point x="98" y="208"/>
      <point x="56" y="235"/>
      <point x="30" y="275"/>
    </contour>
  </outline>
</glyph>
<glyph name="t" format="1">
  <advance width="300"/>
  <unicode hex="0074"/>
  <outline>
    <contour>
      <point x="173" y="0" type="qcurve"/>
      <point x="124" y="0"/>
      <point x="60" y="48"/>
      <point x="60" y="98" type="qcurve"/>
      <point x="60" y="365" type="line"/>
      <point x="0" y="365" type="line"/>
      <point x="0" y="420" type="line"/>
      <point x="60" y="420" type="line"/>
      <point x="60" y="529" type="line"/>
      <point x="120" y="540" type="line"/>
      <point x="120" y="420" type="line"/>
      <point x="250" y="420" type="line"/>
      <point x="250" y="365" type="line"/>
      <point x="120" y="365" type="line"/>
      <point x="120" y="108" type="line"/>
      <point x="120" y="80"/>
      <point x="156" y="55"/>
      <point x="182" y="55" type="qcurve"/>
      <point x="215" y="55"/>
      <point x="250" y="73" type="qcurve"/>
      <point x="250" y="20" type="line"/>
      <point x="213" y="0"/>
    </contour>
  </outline>
</glyph>
<glyph name="u" format="1">
  <advance width="480"/>
  <unicode hex="0075"/>
  <outline>
    <contour>
      <point x="300" y="365" type="line"/>
      <point x="240" y="365" type="line"/>
      <point x="240" y="420" type="line"/>
      <point x="360" y="420" type="line"/>
      <point x="360" y="55" type="line"/>
      <point x="420" y="55" type="line"/>
      <point x="420" y="0" type="line"/>
      <point x="304" y="0" type="line"/>
      <point x="300" y="58" type="line"/>
      <point x="298" y="58" type="line"/>
      <point x="250" y="0"/>
      <point x="175" y="0" type="qcurve"/>
      <point x="114" y="0"/>
      <point x="50" y="62"/>
      <point x="50" y="120" type="qcurve"/>
      <point x="50" y="365" type="line"/>
      <point x="-10" y="365" type="line"/>
      <point x="-10" y="420" type="line"/>
      <point x="110" y="420" type="line"/>
      <point x="110" y="134" type="line"/>
      <point x="110" y="87"/>
      <point x="154" y="55"/>
      <point x="189" y="55" type="qcurve"/>
      <point x="257" y="55"/>
      <point x="300" y="111" type="qcurve"/>
    </contour>
  </outline>
</glyph>
<glyph name="v" format="1">
  <advance width="420"/>
  <unicode hex="0076"/>
  <outline>
    <contour>
      <point x="202" y="0" type="line"/>
      <point x="139" y="0" type="line"/>
      <point x="9" y="365" type="line"/>
      <point x="-40" y="365" type="line"/>
      <point x="-40" y="420" type="line"/>
      <point x="120" y="420" type="line"/>
      <point x="120" y="365" type="line"/>
      <point x="72" y="365" type="line"/>
      <point x="173" y="78" type="line"/>
      <point x="176" y="78" type="line"/>
      <point x="284" y="365" type="line"/>
      <point x="240" y="365" type="line"/>
      <point x="240" y="420" type="line"/>
      <point x="380" y="420" type="line"/>
      <point x="380" y="365" type="line"/>
      <point x="340" y="365" type="line"/>
    </contour>
  </outline>
</glyph>
<glyph name="w" format="1">
  <advance width="660"/>
  <unicode hex="0077"/>
  <outline>
    <contour>
      <point x="299" y="250" type="line"/>
      <point x="201" y="0" type="line"/>
      <point x="139" y="0" type="line"/>
      <point x="9" y="365" type="line"/>
      <point x="-40" y="365" type="line"/>
      <point x="-40" y="420" type="line"/>
      <point x="120" y="420" type="line"/>
      <point x="120" y="365" type="line"/>
      <point x="72" y="365" type="line"/>
      <point x="173" y="78" type="line"/>
      <point x="176" y="78" type="line"/>
      <point x="275" y="320" type="line"/>
      <point x="260" y="365" type="line"/>
      <point x="210" y="365" type="line"/>
      <point x="210" y="420" type="line"/>
      <point x="370" y="420" type="line"/>
      <point x="370" y="365" type="line"/>
      <point x="321" y="365" type="line"/>
      <point x="413" y="78" type="line"/>
      <point x="416" y="78" type="line"/>
      <point x="524" y="365" type="line"/>
      <point x="480" y="365" type="line"/>
      <point x="480" y="420" type="line"/>
      <point x="620" y="420" type="line"/>
      <point x="620" y="365" type="line"/>
      <point x="580" y="365" type="line"/>
      <point x="442" y="0" type="line"/>
      <point x="381" y="0" type="line"/>
      <point x="301" y="250" type="line"/>
    </contour>
  </outline>
</glyph>
<glyph name="x" format="1">
  <advance width="480"/>
  <unicode hex="0078"/>
  <outline>
    <contour>
      <point x="215" y="249" type="line"/>
      <point x="306" y="365" type="line"/>
      <point x="260" y="365" type="line"/>
      <point x="260" y="420" type="line"/>
      <point x="420" y="420" type="line"/>
      <point x="420" y="365" type="line"/>
      <point x="366" y="365" type="line"/>
      <point x="242" y="211" type="line"/>
      <point x="362" y="55" type="line"/>
      <point x="420" y="55" type="line"/>
      <point x="420" y="0" type="line"/>
      <point x="240" y="0" type="line"/>
      <point x="240" y="55" type="line"/>
      <point x="284" y="55" type="line"/>
      <point x="202" y="173" type="line"/>
      <point x="200" y="173" type="line"/>
      <point x="110" y="55" type="line"/>
      <point x="160" y="55" type="line"/>
      <point x="160" y="0" type="line"/>
      <point x="0" y="0" type="line"/>
      <point x="0" y="55" type="line"/>
      <point x="47" y="55" type="line"/>
      <point x="173" y="210" type="line"/>
      <point x="55" y="365" type="line"/>
      <point x="0" y="365" type="line"/>
      <point x="0" y="420" type="line"/>
      <point x="180" y="420" type="line"/>
      <point x="180" y="365" type="line"/>
      <point x="132" y="365" type="line"/>
      <point x="213" y="249" type="line"/>
    </contour>
  </outline>
</glyph>
<glyph name="y" format="1">
  <advance width="420"/>
  <unicode hex="0079"/>
  <outline>
    <contour>
      <point x="340" y="365" type="line"/>
      <point x="201" y="-3" type="line"/>
      <point x="185" y="-46"/>
      <point x="153" y="-113"/>
      <point x="115" y="-157"/>
      <point x="63" y="-180"/>
      <point x="29" y="-180" type="qcurve"/>
      <point x="5" y="-180"/>
      <point x="-20" y="-174" type="qcurve"/>
      <point x="-20" y="-120" type="line"/>
      <point x="4" y="-125"/>
      <point x="28" y="-125" type="qcurve"/>
      <point x="47" y="-125"/>
      <point x="74" y="-118"/>
      <point x="101" y="-93"/>
      <point x="129" y="-44"/>
      <point x="146" y="0" type="qcurve"/>
      <point x="139" y="0" type="line"/>
      <point x="9" y="365" type="line"/>
      <point x="-40" y="365" type="line"/>
      <point x="-40" y="420" type="line"/>
      <point x="120" y="420" type="line"/>
      <point x="120" y="365" type="line"/>
      <point x="72" y="365" type="line"/>
      <point x="173" y="78" type="line"/>
      <point x="176" y="78" type="line"/>
      <point x="284" y="365" type="line"/>
      <point x="240" y="365" type="line"/>
      <point x="240" y="420" type="line"/>
      <point x="380" y="420" type="line"/>
      <point x="380" y="365" type="line"/>
    </contour>
  </outline>
</glyph>
<glyph name="z" format="1">
  <advance width="360"/>
  <unicode hex="007A"/>
  <outline>
    <contour>
      <point x="0" y="45" type="line"/>
      <point x="222" y="365" type="line"/>
      <point x="60" y="365" type="line"/>
      <point x="60" y="290" type="line"/>
      <point x="0" y="290" type="line"/>
      <point x="0" y="420" type="line"/>
      <point x="300" y="420" type="line"/>
      <point x="300" y="375" type="line"/>
      <point x="78" y="55" type="line"/>
      <point x="240" y="55" type="line"/>
      <point x="240" y="130" type="line"/>
      <point x="300" y="130" type="line"/>
      <point x="300" y="0" type="line"/>
      <point x="0" y="0" type="line"/>
    </contour>
  </outline>
</glyph>
<glyph name="braceleft" format="1">
  <advance width="300"/>
  <unicode hex="007B"/>
  <outline>
    <contour>
      <point x="63" y="208" type="line"/>
      <point x="101" y="199"/>
      <point x="140" y="146"/>
      <point x="140" y="98" type="qcurve"/>
      <point x="140" y="-72" type="line"/>
      <point x="140" y="-102"/>
      <point x="170" y="-125"/>
      <point x="193" y="-125" type="qcurve"/>
      <point x="240" y="-125" type="line"/>
      <point x="240" y="-180" type="line"/>
      <point x="190" y="-180" type="line"/>
      <point x="136" y="-180"/>
      <point x="80" y="-126"/>
      <point x="80" y="-69" type="qcurve"/>
      <point x="80" y="101" type="line"/>
      <point x="80" y="145"/>
      <point x="37" y="184"/>
      <point x="0" y="184" type="qcurve"/>
      <point x="0" y="236" type="line"/>
      <point x="37" y="236"/>
      <point x="80" y="275"/>
      <point x="80" y="320" type="qcurve"/>
      <point x="80" y="489" type="line"/>
      <point x="80" y="546"/>
      <point x="138" y="600"/>
      <point x="192" y="600" type="qcurve"/>
      <point x="240" y="600" type="line"/>
      <point x="240" y="545" type="line"/>
      <point x="192" y="545" type="line"/>
      <point x="168" y="545"/>
      <point x="140" y="523"/>
      <point x="140" y="492" type="qcurve"/>
      <point x="140" y="323" type="line"/>
      <point x="140" y="274"/>
      <point x="101" y="222"/>
      <point x="63" y="212" type="qcurve"/>
    </contour>
  </outline>
</glyph>
<glyph name="bar" format="1">
  <advance width="240"/>
  <unicode hex="007C"/>
  <outline>
    <contour>
      <point x="60" y="600" type="line"/>
      <point x="120" y="600" type="line"/>
      <point x="120" y="-180" type="line"/>
      <point x="60" y="-180" type="line"/>
    </contour>
  </outline>
</glyph>
<glyph name="braceright" format="1">
  <advance width="300"/>
  <unicode hex="007D"/>
  <outline>
    <contour>
      <point x="177" y="212" type="line"/>
      <point x="139" y="221"/>
      <point x="100" y="274"/>
      <point x="100" y="322" type="qcurve"/>
      <point x="100" y="492" type="line"/>
      <point x="100" y="522"/>
      <point x="70" y="545"/>
      <point x="47" y="545" type="qcurve"/>
      <point x="0" y="545" type="line"/>
      <point x="0" y="600" type="line"/>
      <point x="50" y="600" type="line"/>
      <point x="104" y="600"/>
      <point x="160" y="546"/>
      <point x="160" y="489" type="qcurve"/>
      <point x="160" y="319" type="line"/>
      <point x="160" y="275"/>
      <point x="203" y="236"/>
      <point x="240" y="236" type="qcurve"/>
      <point x="240" y="184" type="line"/>
      <point x="203" y="184"/>
      <point x="160" y="145"/>
      <point x="160" y="100" type="qcurve"/>
      <point x="160" y="-69" type="line"/>
      <point x="160" y="-126"/>
      <point x="102" y="-180"/>
      <point x="48" y="-180" type="qcurve"/>
      <point x="0" y="-180" type="line"/>
      <point x="0" y="-125" type="line"/>
      <point x="48" y="-125" type="line"/>
      <point x="72" y="-125"/>
      <point x="100" y="-103"/>
      <point x="100" y="-72" type="qcurve"/>
      <point x="100" y="97" type="line"/>
      <point x="100" y="146"/>
      <point x="139" y="198"/>
      <point x="177" y="208" type="qcurve"/>
    </contour>
  </outline>
</glyph>
<glyph name="asciitilde" format="1">
  <advance width="420"/>
  <unicode hex="007E"/>
  <outline>
    <contour>
      <point x="0" y="221" type="line"/>
      <point x="26" y="247"/>
      <point x="77" y="270"/>
      <point x="102" y="270" type="qcurve"/>
      <point x="131" y="270"/>
      <point x="173" y="249"/>
      <point x="190" y="236" type="qcurve"/>
      <point x="207" y="223"/>
      <point x="240" y="204"/>
      <point x="260" y="204" type="qcurve"/>
      <point x="288" y="204"/>
      <point x="341" y="241"/>
      <point x="360" y="267" type="qcurve"/>
      <point x="360" y="198" type="line"/>
      <point x="334" y="172"/>
      <point x="285" y="150"/>
      <point x="259" y="150" type="qcurve"/>
      <point x="230" y="150"/>
      <point x="189" y="170"/>
      <point x="172" y="183" type="qcurve"/>
      <point x="155" y="196"/>
      <point x="122" y="215"/>
      <point x="100" y="215" type="qcurve"/>
      <point x="73" y="215"/>
      <point x="19" y="178"/>
      <point x="0" y="152" type="qcurve"/>
    </contour>
  </outline>
</glyph>
<glyph name="exclamdown" format="1">
  <advance width="240"/>
  <unicode hex="00A1"/>
  <outline>
    <contour>
      <point x="130" y="-120" type="line"/>
      <point x="50" y="-120" type="line"/>
      <point x="65" y="250" type="line"/>
      <point x="115" y="250" type="line"/>
    </contour>
    <contour>
      <point x="140" y="371" type="qcurve"/>
      <point x="140" y="347"/>
      <point x="113" y="319"/>
      <point x="89" y="319" type="qcurve"/>
      <point x="66" y="319"/>
      <point x="39" y="346"/>
      <point x="39" y="369" type="qcurve"/>
      <point x="39" y="393"/>
      <point x="67" y="420"/>
      <point x="91" y="420" type="qcurve"/>
      <point x="114" y="420"/>
      <point x="140" y="393"/>
    </contour>
  </outline>
</glyph>
<glyph name="cent" format="1">
  <advance width="420"/>
  <unicode hex="00A2"/>
  <outline>
    <contour>
      <point x="185" y="-90" type="line"/>
      <point x="185" y="1" type="line"/>
      <point x="20" y="22"/>
      <point x="20" y="208" type="qcurve"/>
      <point x="20" y="390"/>
      <point x="185" y="419" type="qcurve"/>
      <point x="185" y="510" type="line"/>
      <point x="240" y="510" type="line"/>
      <point x="240" y="420" type="line"/>
      <point x="302" y="418"/>
      <point x="360" y="394" type="qcurve"/>
      <point x="360" y="300" type="line"/>
      <point x="300" y="300" type="line"/>
      <point x="300" y="356" type="line"/>
      <point x="274" y="364"/>
      <point x="240" y="366" type="qcurve"/>
      <point x="240" y="55" type="line"/>
      <point x="299" y="57"/>
      <point x="360" y="92" type="qcurve"/>
      <point x="360" y="32" type="line"/>
      <point x="302" y="3"/>
      <point x="240" y="0" type="qcurve"/>
      <point x="240" y="-90" type="line"/>
    </contour>
    <contour>
      <point x="185" y="364" type="line"/>
      <point x="85" y="347"/>
      <point x="85" y="215" type="qcurve"/>
      <point x="85" y="74"/>
      <point x="185" y="57" type="qcurve"/>
    </contour>
  </outline>
</glyph>
<glyph name="sterling" format="1">
  <advance width="480"/>
  <unicode hex="00A3"/>
  <outline>
    <contour>
      <point x="40" y="290" type="line"/>
      <point x="101" y="290" type="line"/>
      <point x="85" y="351"/>
      <point x="85" y="390" type="qcurve"/>
      <point x="85" y="462"/>
      <point x="184" y="540"/>
      <point x="259" y="540" type="qcurve"/>
      <point x="333" y="540"/>
      <point x="400" y="510" type="qcurve"/>
      <point x="400" y="400" type="line"/>
      <point x="343" y="400" type="line"/>
      <point x="343" y="470" type="line"/>
      <point x="301" y="485"/>
      <point x="253" y="485" type="qcurve"/>
      <point x="203" y="485"/>
      <point x="150" y="439"/>
      <point x="150" y="395" type="qcurve"/>
      <point x="150" y="365"/>
      <point x="167" y="290" type="qcurve"/>
      <point x="311" y="290" type="line"/>
      <point x="311" y="240" type="line"/>
      <point x="177" y="240" type="line"/>
      <point x="180" y="222"/>
      <point x="180" y="202" type="qcurve"/>
      <point x="180" y="112"/>
      <point x="115" y="57" type="qcurve"/>
      <point x="115" y="55" type="line"/>
      <point x="343" y="55" type="line"/>
      <point x="343" y="140" type="line"/>
      <point x="400" y="140" type="line"/>
      <point x="400" y="0" type="line"/>
      <point x="40" y="0" type="line"/>
      <point x="40" y="50" type="line"/>
      <point x="115" y="103"/>
      <point x="115" y="196" type="qcurve"/>
      <point x="115" y="221"/>
      <point x="112" y="240" type="qcurve"/>
      <point x="40" y="240" type="line"/>
    </contour>
  </outline>
</glyph>
<glyph name="currency" format="1">
  <advance width="480"/>
  <unicode hex="00A4"/>
  <outline>
    <contour>
      <point x="378" y="437" type="line"/>
      <point x="420" y="395" type="line"/>
      <point x="344" y="319" type="line"/>
      <point x="370" y="280"/>
      <point x="370" y="227" type="qcurve"/>
      <point x="370" y="174"/>
      <point x="344" y="135" type="qcurve"/>
      <point x="420" y="60" type="line"/>
      <point x="378" y="18" type="line"/>
      <point x="302" y="93" type="line"/>
      <point x="263" y="67"/>
      <point x="210" y="67" type="qcurve"/>
      <point x="156" y="67"/>
      <point x="118" y="93" type="qcurve"/>
      <point x="42" y="18" type="line"/>
      <point x="0" y="60" type="line"/>
      <point x="76" y="135" type="line"/>
      <point x="50" y="174"/>
      <point x="50" y="280"/>
      <point x="76" y="319" type="qcurve"/>
      <point x="0" y="395" type="line"/>
      <point x="42" y="437" type="line"/>
      <point x="118" y="361" type="line"/>
      <point x="157" y="387"/>
      <point x="210" y="387" type="qcurve"/>
      <point x="263" y="387"/>
      <point x="302" y="361" type="qcurve"/>
    </contour>
    <contour>
      <point x="110" y="227" type="qcurve"/>
      <point x="110" y="180"/>
      <point x="163" y="121"/>
      <point x="210" y="121" type="qcurve"/>
      <point x="256" y="121"/>
      <point x="310" y="180"/>
      <point x="310" y="227" type="qcurve"/>
      <point x="310" y="276"/>
      <point x="256" y="332"/>
      <point x="210" y="332" type="qcurve"/>
      <point x="163" y="332"/>
      <point x="110" y="276"/>
    </contour>
  </outline>
</glyph>
<glyph name="yen" format="1">
  <advance width="480"/>
  <unicode hex="00A5"/>
  <outline>
    <contour>
      <point x="40" y="180" type="line"/>
      <point x="180" y="180" type="line"/>
      <point x="180" y="240" type="line"/>
      <point x="40" y="240" type="line"/>
      <point x="40" y="290" type="line"/>
      <point x="151" y="290" type="line"/>
      <point x="41" y="485" type="line"/>
      <point x="-10" y="485" type="line"/>
      <point x="-10" y="540" type="line"/>
      <point x="160" y="540" type="line"/>
      <point x="160" y="485" type="line"/>
      <point x="108" y="485" type="line"/>
      <point x="213" y="294" type="line"/>
      <point x="314" y="485" type="line"/>
      <point x="260" y="485" type="line"/>
      <point x="260" y="540" type="line"/>
      <point x="420" y="540" type="line"/>
      <point x="420" y="485" type="line"/>
      <point x="373" y="485" type="line"/>
      <point x="268" y="290" type="line"/>
      <point x="380" y="290" type="line"/>
      <point x="380" y="240" type="line"/>
      <point x="240" y="240" type="line"/>
      <point x="240" y="180" type="line"/>
      <point x="380" y="180" type="line"/>
      <point x="380" y="130" type="line"/>
      <point x="240" y="130" type="line"/>
      <point x="240" y="55" type="line"/>
      <point x="304" y="55" type="line"/>
      <point x="304" y="0" type="line"/>
      <point x="116" y="0" type="line"/>
      <point x="116" y="55" type="line"/>
      <point x="180" y="55" type="line"/>
      <point x="180" y="130" type="line"/>
      <point x="40" y="130" type="line"/>
    </contour>
  </outline>
</glyph>
<glyph name="brokenbar" format="1">
  <advance width="240"/>
  <unicode hex="00A6"/>
  <outline>
    <contour>
      <point x="120" y="220" type="line"/>
      <point x="120" y="0" type="line"/>
      <point x="60" y="0" type="line"/>
      <point x="60" y="220" type="line"/>
    </contour>
    <contour>
      <point x="60" y="320" type="line"/>
      <point x="60" y="540" type="line"/>
      <point x="120" y="540" type="line"/>
      <point x="120" y="320" type="line"/>
    </contour>
  </outline>
</glyph>
<glyph name="section" format="1">
  <advance width="420"/>
  <unicode hex="00A7"/>
  <outline>
    <contour>
      <point x="265" y="400" type="line"/>
      <point x="265" y="475" type="line"/>
      <point x="226" y="485"/>
      <point x="187" y="485" type="qcurve"/>
      <point x="143" y="485"/>
      <point x="85" y="455"/>
      <point x="85" y="420" type="qcurve"/>
      <point x="85" y="386"/>
      <point x="148" y="350"/>
      <point x="202" y="330" type="qcurve"/>
      <point x="226" y="321"/>
      <point x="278" y="299"/>
      <point x="319" y="269"/>
      <point x="345" y="226"/>
      <point x="345" y="196" type="qcurve"/>
      <point x="345" y="129"/>
      <point x="280" y="94" type="qcurve"/>
      <point x="325" y="60"/>
      <point x="325" y="6" type="qcurve"/>
      <point x="325" y="-52"/>
      <point x="234" y="-120"/>
      <point x="154" y="-120" type="qcurve"/>
      <point x="85" y="-120"/>
      <point x="20" y="-97" type="qcurve"/>
      <point x="20" y="20" type="line"/>
      <point x="80" y="20" type="line"/>
      <point x="80" y="-57" type="line"/>
      <point x="119" y="-65"/>
      <point x="158" y="-65" type="qcurve"/>
      <point x="202" y="-65"/>
      <point x="260" y="-35"/>
      <point x="260" y="0" type="qcurve"/>
      <point x="260" y="34"/>
      <point x="197" y="70"/>
      <point x="144" y="89" type="qcurve"/>
      <point x="118" y="99"/>
      <point x="67" y="121"/>
      <point x="26" y="151"/>
      <point x="0" y="194"/>
      <point x="0" y="224" type="qcurve"/>
      <point x="0" y="290"/>
      <point x="65" y="327" type="qcurve"/>
      <point x="20" y="359"/>
      <point x="20" y="414" type="qcurve"/>
      <point x="20" y="472"/>
      <point x="111" y="540"/>
      <point x="191" y="540" type="qcurve"/>
      <point x="260" y="540"/>
      <point x="325" y="516" type="qcurve"/>
      <point x="325" y="400" type="line"/>
    </contour>
    <contour>
      <point x="103" y="305" type="qcurve"/>
      <point x="65" y="277"/>
      <point x="65" y="234" type="qcurve"/>
      <point x="65" y="214"/>
      <point x="83" y="187"/>
      <point x="113" y="167"/>
      <point x="154" y="150"/>
      <point x="177" y="141" type="qcurve"/>
      <point x="213" y="127"/>
      <point x="242" y="115" type="qcurve"/>
      <point x="280" y="144"/>
      <point x="280" y="186" type="qcurve"/>
      <point x="280" y="205"/>
      <point x="262" y="233"/>
      <point x="232" y="253"/>
      <point x="191" y="270"/>
      <point x="168" y="279" type="qcurve"/>
      <point x="126" y="295"/>
    </contour>
  </outline>
</glyph>
<glyph name="copyright" format="1">
  <advance width="780"/>
  <unicode hex="00A9"/>
  <outline>
    <contour>
      <point x="25" y="270" type="qcurve"/>
      <point x="25" y="414"/>
      <point x="214" y="600"/>
      <point x="362" y="600" type="qcurve"/>
      <point x="511" y="600"/>
      <point x="700" y="414"/>
      <point x="700" y="270" type="qcurve"/>
      <point x="700" y="128"/>
      <point x="511" y="-60"/>
      <point x="362" y="-60" type="qcurve"/>
      <point x="214" y="-60"/>
      <point x="25" y="128"/>
    </contour>
    <contour>
      <point x="80" y="270" type="qcurve"/>
      <point x="80" y="148"/>
      <point x="232" y="-10"/>
      <point x="363" y="-10" type="qcurve"/>
      <point x="493" y="-10"/>
      <point x="645" y="148"/>
      <point x="645" y="270" type="qcurve"/>
      <point x="645" y="395"/>
      <point x="493" y="549"/>
      <point x="363" y="549" type="qcurve"/>
      <point x="232" y="549"/>
      <point x="80" y="395"/>
    </contour>
    <contour>
      <point x="500" y="107" type="line"/>
      <point x="441" y="70"/>
      <point x="365" y="70" type="qcurve"/>
      <point x="269" y="70"/>
      <point x="160" y="178"/>
      <point x="160" y="267" type="qcurve"/>
      <point x="160" y="363"/>
      <point x="277" y="470"/>
      <point x="373" y="470" type="qcurve"/>
      <point x="437" y="470"/>
      <point x="500" y="444" type="qcurve"/>
      <point x="500" y="330" type="line"/>
      <point x="445" y="330" type="line"/>
      <point x="445" y="409" type="line"/>
      <point x="409" y="420"/>
      <point x="370" y="420" type="qcurve"/>
      <point x="299" y="420"/>
      <point x="220" y="345"/>
      <point x="220" y="273" type="qcurve"/>
      <point x="220" y="201"/>
      <point x="300" y="120"/>
      <point x="370" y="120" type="qcurve"/>
      <point x="438" y="120"/>
      <point x="500" y="160" type="qcurve"/>
    </contour>
  </outline>
</glyph>
<glyph name="ordfeminine" format="1">
  <advance width="360"/>
  <unicode hex="00AA"/>
  <outline>
    <contour>
      <point x="20" y="510" type="line"/>
      <point x="82" y="540"/>
      <point x="143" y="540" type="qcurve"/>
      <point x="200" y="540"/>
      <point x="260" y="481"/>
      <point x="260" y="426" type="qcurve"/>
      <point x="260" y="230" type="line"/>
      <point x="320" y="230" type="line"/>
      <point x="320" y="180" type="line"/>
      <point x="204" y="180" type="line"/>
      <point x="200" y="219" type="line"/>
      <point x="198" y="219" type="line"/>
      <point x="156" y="180"/>
      <point x="104" y="180" type="qcurve"/>
      <point x="55" y="180"/>
      <point x="-5" y="232"/>
      <point x="-5" y="279" type="qcurve"/>
      <point x="-5" y="392"/>
      <point x="167" y="392" type="qcurve"/>
      <point x="200" y="392" type="line"/>
      <point x="200" y="430" type="line"/>
      <point x="200" y="461"/>
      <point x="170" y="490"/>
      <point x="132" y="490" type="qcurve"/>
      <point x="81" y="490"/>
      <point x="20" y="458" type="qcurve"/>
    </contour>
    <contour>
      <point x="161" y="344" type="line"/>
      <point x="60" y="344"/>
      <point x="60" y="283" type="qcurve"/>
      <point x="60" y="256"/>
      <point x="94" y="230"/>
      <point x="119" y="230" type="qcurve"/>
      <point x="159" y="230"/>
      <point x="200" y="261" type="qcurve"/>
      <point x="200" y="344" type="line"/>
    </contour>
  </outline>
</glyph>
<glyph name="logicalnot" format="1">
  <advance width="480"/>
  <unicode hex="00AC"/>
  <outline>
    <contour>
      <point x="0" y="200" type="line"/>
      <point x="0" y="255" type="line"/>
      <point x="420" y="255" type="line"/>
      <point x="420" y="20" type="line"/>
      <point x="360" y="20" type="line"/>
      <point x="360" y="200" type="line"/>
    </contour>
  </outline>
</glyph>
<glyph name="registered" format="1">
  <advance width="780"/>
  <unicode hex="00AE"/>
  <outline>
    <contour>
      <point x="25" y="270" type="qcurve"/>
      <point x="25" y="414"/>
      <point x="214" y="600"/>
      <point x="362" y="600" type="qcurve"/>
      <point x="511" y="600"/>
      <point x="700" y="414"/>
      <point x="700" y="270" type="qcurve"/>
      <point x="700" y="128"/>
      <point x="511" y="-60"/>
      <point x="362" y="-60" type="qcurve"/>
      <point x="214" y="-60"/>
      <point x="25" y="128"/>
    </contour>
    <contour>
      <point x="80" y="270" type="qcurve"/>
      <point x="80" y="148"/>
      <point x="232" y="-10"/>
      <point x="363" y="-10" type="qcurve"/>
      <point x="493" y="-10"/>
      <point x="645" y="148"/>
      <point x="645" y="270" type="qcurve"/>
      <point x="645" y="395"/>
      <point x="493" y="549"/>
      <point x="363" y="549" type="qcurve"/>
      <point x="230" y="549"/>
      <point x="80" y="395"/>
    </contour>
    <contour>
      <point x="300" y="120" type="line"/>
      <point x="340" y="120" type="line"/>
      <point x="340" y="70" type="line"/>
      <point x="200" y="70" type="line"/>
      <point x="200" y="120" type="line"/>
      <point x="240" y="120" type="line"/>
      <point x="240" y="420" type="line"/>
      <point x="200" y="420" type="line"/>
      <point x="200" y="470" type="line"/>
      <point x="364" y="470" type="line"/>
      <point x="447" y="470"/>
      <point x="520" y="416"/>
      <point x="520" y="362" type="qcurve"/>
      <point x="520" y="323"/>
      <point x="475" y="262"/>
      <point x="417" y="250" type="qcurve"/>
      <point x="417" y="248" type="line"/>
      <point x="428" y="244"/>
      <point x="448" y="226"/>
      <point x="461" y="203" type="qcurve"/>
      <point x="512" y="120" type="line"/>
      <point x="554" y="120" type="line"/>
      <point x="554" y="70" type="line"/>
      <point x="469" y="70" type="line"/>
      <point x="454" y="102"/>
      <point x="441" y="124" type="qcurve"/>
      <point x="401" y="192" type="line"/>
      <point x="384" y="222"/>
      <point x="358" y="240"/>
      <point x="334" y="240" type="qcurve"/>
      <point x="300" y="240" type="line"/>
    </contour>
    <contour>
      <point x="352" y="287" type="line"/>
      <point x="408" y="287"/>
      <point x="460" y="321"/>
      <point x="460" y="355" type="qcurve"/>
      <point x="460" y="390"/>
      <point x="414" y="420"/>
      <point x="361" y="420" type="qcurve"/>
      <point x="300" y="420" type="line"/>
      <point x="300" y="287" type="line"/>
    </contour>
  </outline>
</glyph>
<glyph name="degree" format="1">
  <advance width="300"/>
  <unicode hex="00B0"/>
  <outline>
    <contour>
      <point x="0" y="420" type="qcurve"/>
      <point x="0" y="473"/>
      <point x="67" y="540"/>
      <point x="120" y="540" type="qcurve"/>
      <point x="173" y="540"/>
      <point x="240" y="473"/>
      <point x="240" y="420" type="qcurve"/>
      <point x="240" y="368"/>
      <point x="173" y="300"/>
      <point x="120" y="300" type="qcurve"/>
      <point x="67" y="300"/>
      <point x="0" y="368"/>
    </contour>
    <contour>
      <point x="55" y="420" type="qcurve"/>
      <point x="55" y="389"/>
      <point x="90" y="350"/>
      <point x="120" y="350" type="qcurve"/>
      <point x="150" y="350"/>
      <point x="185" y="389"/>
      <point x="185" y="420" type="qcurve"/>
      <point x="185" y="452"/>
      <point x="150" y="490"/>
      <point x="120" y="490" type="qcurve"/>
      <point x="90" y="490"/>
      <point x="55" y="452"/>
    </contour>
  </outline>
</glyph>
<glyph name="plusminus" format="1">
  <advance width="480"/>
  <unicode hex="00B1"/>
  <outline>
    <contour>
      <point x="0" y="260" type="line"/>
      <point x="0" y="315" type="line"/>
      <point x="180" y="315" type="line"/>
      <point x="180" y="435" type="line"/>
      <point x="240" y="435" type="line"/>
      <point x="240" y="315" type="line"/>
      <point x="420" y="315" type="line"/>
      <point x="420" y="260" type="line"/>
      <point x="240" y="260" type="line"/>
      <point x="240" y="140" type="line"/>
      <point x="180" y="140" type="line"/>
      <point x="180" y="260" type="line"/>
    </contour>
    <contour>
      <point x="0" y="30" type="line"/>
      <point x="0" y="85" type="line"/>
      <point x="420" y="85" type="line"/>
      <point x="420" y="30" type="line"/>
    </contour>
  </outline>
</glyph>
<glyph name="twosuperior" format="1">
  <advance width="360"/>
  <unicode hex="00B2"/>
  <outline>
    <contour>
      <point x="280" y="180" type="line"/>
      <point x="0" y="180" type="line"/>
      <point x="0" y="225" type="line"/>
      <point x="97" y="288"/>
      <point x="210" y="392"/>
      <point x="210" y="436" type="qcurve"/>
      <point x="210" y="463"/>
      <point x="172" y="490"/>
      <point x="132" y="490" type="qcurve"/>
      <point x="90" y="490"/>
      <point x="60" y="477" type="qcurve"/>
      <point x="60" y="420" type="line"/>
      <point x="10" y="420" type="line"/>
      <point x="10" y="508" type="line"/>
      <point x="68" y="540"/>
      <point x="139" y="540" type="qcurve"/>
      <point x="199" y="540"/>
      <point x="270" y="488"/>
      <point x="270" y="445" type="qcurve"/>
      <point x="270" y="392"/>
      <point x="170" y="287"/>
      <point x="84" y="230" type="qcurve"/>
      <point x="280" y="230" type="line"/>
    </contour>
  </outline>
</glyph>
<glyph name="threesuperior" format="1">
  <advance width="360"/>
  <unicode hex="00B3"/>
  <outline>
    <contour>
      <point x="0" y="251" type="line"/>
      <point x="50" y="230"/>
      <point x="113" y="230" type="qcurve"/>
      <point x="161" y="230"/>
      <point x="220" y="258"/>
      <point x="220" y="288" type="qcurve"/>
      <point x="220" y="313"/>
      <point x="168" y="339"/>
      <point x="110" y="339" type="qcurve"/>
      <point x="80" y="339" type="line"/>
      <point x="80" y="384" type="line"/>
      <point x="101" y="384" type="line"/>
      <point x="154" y="384"/>
      <point x="200" y="414"/>
      <point x="200" y="442" type="qcurve"/>
      <point x="200" y="465"/>
      <point x="166" y="490"/>
      <point x="128" y="490" type="qcurve"/>
      <point x="88" y="490"/>
      <point x="60" y="477" type="qcurve"/>
      <point x="60" y="435" type="line"/>
      <point x="10" y="435" type="line"/>
      <point x="10" y="508" type="line"/>
      <point x="65" y="540"/>
      <point x="133" y="540" type="qcurve"/>
      <point x="189" y="540"/>
      <point x="260" y="492"/>
      <point x="260" y="450" type="qcurve"/>
      <point x="260" y="393"/>
      <point x="196" y="369" type="qcurve"/>
      <point x="196" y="367" type="line"/>
      <point x="280" y="351"/>
      <point x="280" y="285" type="qcurve"/>
      <point x="280" y="238"/>
      <point x="186" y="180"/>
      <point x="113" y="180" type="qcurve"/>
      <point x="48" y="180"/>
      <point x="0" y="200" type="qcurve"/>
    </contour>
  </outline>
</glyph>
<glyph name="uni00B5" format="1">
  <advance width="480"/>
  <unicode hex="00B5"/>
  <outline>
    <contour>
      <point x="60" y="-180" type="line"/>
      <point x="60" y="420" type="line"/>
      <point x="120" y="420" type="line"/>
      <point x="120" y="120" type="line"/>
      <point x="144" y="55"/>
      <point x="205" y="55" type="qcurve"/>
      <point x="266" y="55"/>
      <point x="300" y="117" type="qcurve"/>
      <point x="300" y="420" type="line"/>
      <point x="360" y="420" type="line"/>
      <point x="360" y="55" type="line"/>
      <point x="420" y="55" type="line"/>
      <point x="420" y="0" type="line"/>
      <point x="304" y="0" type="line"/>
      <point x="300" y="61" type="line"/>
      <point x="297" y="61" type="line"/>
      <point x="261" y="0"/>
      <point x="206" y="0" type="qcurve"/>
      <point x="149" y="0"/>
      <point x="122" y="55" type="qcurve"/>
      <point x="120" y="55" type="line"/>
      <point x="120" y="-180" type="line"/>
    </contour>
  </outline>
</glyph>
<glyph name="paragraph" format="1">
  <advance width="480"/>
  <unicode hex="00B6"/>
  <outline>
    <contour>
      <point x="180" y="-120" type="line"/>
      <point x="180" y="240" type="line"/>
      <point x="93" y="242"/>
      <point x="0" y="320"/>
      <point x="0" y="394" type="qcurve"/>
      <point x="0" y="462"/>
      <point x="90" y="540"/>
      <point x="184" y="540" type="qcurve"/>
      <point x="420" y="540" type="line"/>
      <point x="420" y="485" type="line"/>
      <point x="360" y="485" type="line"/>
      <point x="360" y="-120" type="line"/>
      <point x="300" y="-120" type="line"/>
      <point x="300" y="485" type="line"/>
      <point x="240" y="485" type="line"/>
      <point x="240" y="-120" type="line"/>
    </contour>
  </outline>
</glyph>
<glyph name="onesuperior" format="1">
  <advance width="240"/>
  <unicode hex="00B9"/>
  <outline>
    <contour>
      <point x="60" y="180" type="line"/>
      <point x="60" y="490" type="line"/>
      <point x="0" y="490" type="line"/>
      <point x="0" y="540" type="line"/>
      <point x="120" y="540" type="line"/>
      <point x="120" y="180" type="line"/>
    </contour>
  </outline>
</glyph>
<glyph name="ordmasculine" format="1">
  <advance width="420"/>
  <unicode hex="00BA"/>
  <outline>
    <contour>
      <point x="20" y="346" type="qcurve"/>
      <point x="20" y="436"/>
      <point x="114" y="540"/>
      <point x="184" y="540" type="qcurve"/>
      <point x="254" y="540"/>
      <point x="340" y="442"/>
      <point x="340" y="354" type="qcurve"/>
      <point x="340" y="263"/>
      <point x="250" y="156"/>
      <point x="178" y="156" type="qcurve"/>
      <point x="107" y="156"/>
      <point x="20" y="258"/>
    </contour>
    <contour>
      <point x="85" y="354" type="qcurve"/>
      <point x="85" y="281"/>
      <point x="136" y="206"/>
      <point x="182" y="206" type="qcurve"/>
      <point x="227" y="206"/>
      <point x="275" y="278"/>
      <point x="275" y="348" type="qcurve"/>
      <point x="275" y="419"/>
      <point x="227" y="490"/>
      <point x="179" y="490" type="qcurve"/>
      <point x="136" y="490"/>
      <point x="85" y="425"/>
    </contour>
  </outline>
</glyph>
<glyph name="questiondown" format="1">
  <advance width="300"/>
  <unicode hex="00BF"/>
  <outline>
    <contour>
      <point x="175" y="250" type="line"/>
      <point x="185" y="228"/>
      <point x="185" y="203" type="qcurve"/>
      <point x="185" y="174"/>
      <point x="150" y="128"/>
      <point x="123" y="106" type="qcurve"/>
      <point x="93" y="82"/>
      <point x="60" y="38"/>
      <point x="60" y="9" type="qcurve"/>
      <point x="60" y="-26"/>
      <point x="107" y="-65"/>
      <point x="151" y="-65" type="qcurve"/>
      <point x="195" y="-65"/>
      <point x="240" y="-47" type="qcurve"/>
      <point x="240" y="-101" type="line"/>
      <point x="190" y="-120"/>
      <point x="142" y="-120" type="qcurve"/>
      <point x="77" y="-120"/>
      <point x="-5" y="-55"/>
      <point x="-5" y="3" type="qcurve"/>
      <point x="-5" y="44"/>
      <point x="31" y="101"/>
      <point x="66" y="127" type="qcurve"/>
      <point x="95" y="149"/>
      <point x="130" y="194"/>
      <point x="130" y="221" type="qcurve"/>
      <point x="130" y="233"/>
      <point x="125" y="250" type="qcurve"/>
    </contour>
    <contour>
      <point x="200" y="371" type="qcurve"/>
      <point x="200" y="347"/>
      <point x="173" y="319"/>
      <point x="149" y="319" type="qcurve"/>
      <point x="126" y="319"/>
      <point x="99" y="346"/>
      <point x="99" y="369" type="qcurve"/>
      <point x="99" y="393"/>
      <point x="127" y="420"/>
      <point x="151" y="420" type="qcurve"/>
      <point x="174" y="420"/>
      <point x="200" y="393"/>
    </contour>
  </outline>
</glyph>
<glyph name="AE" format="1">
  <advance width="720"/>
  <unicode hex="00C6"/>
  <outline>
    <contour>
      <point x="120" y="55" type="line"/>
      <point x="120" y="0" type="line"/>
      <point x="-60" y="0" type="line"/>
      <point x="-60" y="55" type="line"/>
      <point x="-5" y="55" type="line"/>
      <point x="240" y="540" type="line"/>
      <point x="640" y="540" type="line"/>
      <point x="640" y="380" type="line"/>
      <point x="580" y="380" type="line"/>
      <point x="580" y="485" type="line"/>
      <point x="360" y="485" type="line"/>
      <point x="360" y="310" type="line"/>
      <point x="460" y="310" type="line"/>
      <point x="460" y="370" type="line"/>
      <point x="520" y="370" type="line"/>
      <point x="520" y="190" type="line"/>
      <point x="460" y="190" type="line"/>
      <point x="460" y="255" type="line"/>
      <point x="360" y="255" type="line"/>
      <point x="360" y="55" type="line"/>
      <point x="580" y="55" type="line"/>
      <point x="580" y="160" type="line"/>
      <point x="640" y="160" type="line"/>
      <point x="640" y="0" type="line"/>
      <point x="240" y="0" type="line"/>
      <point x="240" y="55" type="line"/>
      <point x="300" y="55" type="line"/>
      <point x="300" y="185" type="line"/>
      <point x="121" y="185" type="line"/>
      <point x="56" y="55" type="line"/>
    </contour>
    <contour>
      <point x="300" y="485" type="line"/>
      <point x="271" y="485" type="line"/>
      <point x="149" y="240" type="line"/>
      <point x="300" y="240" type="line"/>
    </contour>
  </outline>
</glyph>
<glyph name="multiply" format="1">
  <advance width="480"/>
  <unicode hex="00D7"/>
  <outline>
    <contour>
      <point x="378" y="437" type="line"/>
      <point x="420" y="395" type="line"/>
      <point x="252" y="227" type="line"/>
      <point x="420" y="60" type="line"/>
      <point x="378" y="18" type="line"/>
      <point x="210" y="185" type="line"/>
      <point x="42" y="18" type="line"/>
      <point x="0" y="60" type="line"/>
      <point x="168" y="227" type="line"/>
      <point x="0" y="395" type="line"/>
      <point x="42" y="437" type="line"/>
      <point x="210" y="269" type="line"/>
    </contour>
  </outline>
</glyph>
<glyph name="Oslash" format="1">
  <advance width="600"/>
  <unicode hex="00D8"/>
  <outline>
    <contour>
      <point x="25" y="271" type="qcurve"/>
      <point x="25" y="392"/>
      <point x="161" y="540"/>
      <point x="275" y="540" type="qcurve"/>
      <point x="349" y="540"/>
      <point x="404" y="507" type="qcurve"/>
      <point x="450" y="576" type="line"/>
      <point x="491" y="550" type="line"/>
      <point x="442" y="477" type="line"/>
      <point x="515" y="405"/>
      <point x="515" y="278" type="qcurve"/>
      <point x="515" y="150"/>
      <point x="379" y="0"/>
      <point x="268" y="0" type="qcurve"/>
      <point x="193" y="0"/>
      <point x="138" y="35" type="qcurve"/>
      <point x="90" y="-36" type="line"/>
      <point x="50" y="-11" type="line"/>
      <point x="101" y="64" type="line"/>
      <point x="25" y="138"/>
    </contour>
    <contour>
      <point x="90" y="275" type="qcurve"/>
      <point x="90" y="174"/>
      <point x="137" y="116" type="qcurve"/>
      <point x="370" y="459" type="line"/>
      <point x="330" y="485"/>
      <point x="271" y="485" type="qcurve"/>
      <point x="184" y="485"/>
      <point x="90" y="374"/>
    </contour>
    <contour>
      <point x="270" y="55" type="qcurve"/>
      <point x="355" y="55"/>
      <point x="450" y="175"/>
      <point x="450" y="275" type="qcurve"/>
      <point x="450" y="370"/>
      <point x="406" y="426" type="qcurve"/>
      <point x="171" y="83" type="line"/>
      <point x="212" y="55"/>
    </contour>
  </outline>
</glyph>
<glyph name="Thorn" format="1">
  <advance width="480"/>
  <unicode hex="00DE"/>
  <outline>
    <contour>
      <point x="0" y="55" type="line"/>
      <point x="60" y="55" type="line"/>
      <point x="60" y="485" type="line"/>
      <point x="0" y="485" type="line"/>
      <point x="0" y="540" type="line"/>
      <point x="180" y="540" type="line"/>
      <point x="180" y="485" type="line"/>
      <point x="120" y="485" type="line"/>
      <point x="120" y="420" type="line"/>
      <point x="220" y="420" type="line"/>
      <point x="317" y="420"/>
      <point x="405" y="348"/>
      <point x="405" y="278" type="qcurve"/>
      <point x="405" y="200"/>
      <point x="302" y="125"/>
      <point x="207" y="125" type="qcurve"/>
      <point x="120" y="125" type="line"/>
      <point x="120" y="55" type="line"/>
      <point x="180" y="55" type="line"/>
      <point x="180" y="0" type="line"/>
      <point x="0" y="0" type="line"/>
    </contour>
    <contour>
      <point x="210" y="180" type="line"/>
      <point x="273" y="180"/>
      <point x="340" y="222"/>
      <point x="340" y="272" type="qcurve"/>
      <point x="340" y="321"/>
      <point x="280" y="365"/>
      <point x="215" y="365" type="qcurve"/>
      <point x="120" y="365" type="line"/>
      <point x="120" y="180" type="line"/>
    </contour>
  </outline>
</glyph>
<glyph name="germandbls" format="1">
  <advance width="480"/>
  <unicode hex="00DF"/>
  <outline>
    <contour>
      <point x="120" y="0" type="line"/>
      <point x="1" y="0" type="line"/>
      <point x="1" y="55" type="line"/>
      <point x="60" y="55" type="line"/>
      <point x="60" y="365" type="line"/>
      <point x="1" y="365" type="line"/>
      <point x="1" y="420" type="line"/>
      <point x="60" y="420" type="line"/>
      <point x="60" y="424" type="line"/>
      <point x="60" y="472"/>
      <point x="84" y="539"/>
      <point x="125" y="581"/>
      <point x="183" y="600"/>
      <point x="218" y="600" type="qcurve"/>
      <point x="289" y="600"/>
      <point x="360" y="535"/>
      <point x="360" y="478" type="qcurve"/>
      <point x="360" y="454"/>
      <point x="347" y="417"/>
      <point x="325" y="391"/>
      <point x="299" y="372"/>
      <point x="286" y="363" type="qcurve"/>
      <point x="266" y="350"/>
      <point x="240" y="323"/>
      <point x="240" y="303" type="qcurve"/>
      <point x="240" y="277"/>
      <point x="279" y="250"/>
      <point x="318" y="231" type="qcurve"/>
      <point x="336" y="222"/>
      <point x="372" y="203"/>
      <point x="402" y="176"/>
      <point x="420" y="142"/>
      <point x="420" y="118" type="qcurve"/>
      <point x="420" y="64"/>
      <point x="336" y="0"/>
      <point x="264" y="0" type="qcurve"/>
      <point x="222" y="0"/>
      <point x="180" y="13" type="qcurve"/>
      <point x="180" y="70" type="line"/>
      <point x="223" y="55"/>
      <point x="269" y="55" type="qcurve"/>
      <point x="317" y="55"/>
      <point x="355" y="85"/>
      <point x="355" y="109" type="qcurve"/>
      <point x="355" y="139"/>
      <point x="314" y="168"/>
      <point x="276" y="185" type="qcurve"/>
      <point x="259" y="193"/>
      <point x="224" y="211"/>
      <point x="197" y="236"/>
      <point x="180" y="270"/>
      <point x="180" y="294" type="qcurve"/>
      <point x="180" y="313"/>
      <point x="191" y="342"/>
      <point x="208" y="363"/>
      <point x="230" y="380"/>
      <point x="242" y="388" type="qcurve"/>
      <point x="254" y="396"/>
      <point x="275" y="412"/>
      <point x="291" y="431"/>
      <point x="300" y="457"/>
      <point x="300" y="475" type="qcurve"/>
      <point x="300" y="548"/>
      <point x="217" y="548" type="qcurve"/>
      <point x="169" y="548"/>
      <point x="120" y="495"/>
      <point x="120" y="436" type="qcurve"/>
    </contour>
  </outline>
</glyph>
<glyph name="ae" format="1">
  <advance width="660"/>
  <unicode hex="00E6"/>
  <outline>
    <contour>
      <point x="457" y="55" type="qcurve"/>
      <point x="525" y="55"/>
      <point x="590" y="96" type="qcurve"/>
      <point x="590" y="37" type="line"/>
      <point x="524" y="0"/>
      <point x="452" y="0" type="qcurve"/>
      <point x="336" y="0"/>
      <point x="285" y="87" type="qcurve"/>
      <point x="283" y="87" type="line"/>
      <point x="211" y="0"/>
      <point x="119" y="0" type="qcurve"/>
      <point x="59" y="0"/>
      <point x="-5" y="61"/>
      <point x="-5" y="115" type="qcurve"/>
      <point x="-5" y="249"/>
      <point x="208" y="249" type="qcurve"/>
      <point x="255" y="249" type="line"/>
      <point x="255" y="291" type="line"/>
      <point x="255" y="327"/>
      <point x="212" y="365"/>
      <point x="164" y="365" type="qcurve"/>
      <point x="98" y="365"/>
      <point x="20" y="330" type="qcurve"/>
      <point x="20" y="385" type="line"/>
      <point x="95" y="420"/>
      <point x="173" y="420" type="qcurve"/>
      <point x="274" y="420"/>
      <point x="298" y="354" type="qcurve"/>
      <point x="300" y="354" type="line"/>
      <point x="352" y="420"/>
      <point x="446" y="420" type="qcurve"/>
      <point x="519" y="420"/>
      <point x="600" y="321"/>
      <point x="600" y="233" type="qcurve"/>
      <point x="600" y="194" type="line"/>
      <point x="316" y="194" type="line"/>
      <point x="320" y="132"/>
      <point x="388" y="55"/>
    </contour>
    <contour>
      <point x="198" y="194" type="line"/>
      <point x="60" y="194"/>
      <point x="60" y="119" type="qcurve"/>
      <point x="60" y="87"/>
      <point x="97" y="55"/>
      <point x="132" y="55" type="qcurve"/>
      <point x="205" y="55"/>
      <point x="266" y="130" type="qcurve"/>
      <point x="255" y="164"/>
      <point x="255" y="194" type="qcurve"/>
    </contour>
    <contour>
      <point x="530" y="249" type="line"/>
      <point x="526" y="365"/>
      <point x="430" y="365" type="qcurve"/>
      <point x="381" y="365"/>
      <point x="324" y="307"/>
      <point x="318" y="249" type="qcurve"/>
    </contour>
  </outline>
</glyph>
<glyph name="eth" format="1">
  <advance width="480"/>
  <unicode hex="00F0"/>
  <outline>
    <contour>
      <point x="137" y="458" type="line"/>
      <point x="207" y="511" type="line"/>
      <point x="148" y="543"/>
      <point x="60" y="545" type="qcurve"/>
      <point x="60" y="600" type="line"/>
      <point x="179" y="597"/>
      <point x="255" y="546" type="qcurve"/>
      <point x="326" y="600" type="line"/>
      <point x="357" y="562" type="line"/>
      <point x="294" y="515" type="line"/>
      <point x="400" y="417"/>
      <point x="400" y="245" type="qcurve"/>
      <point x="400" y="131"/>
      <point x="301" y="0"/>
      <point x="209" y="0" type="qcurve"/>
      <point x="124" y="0"/>
      <point x="20" y="109"/>
      <point x="20" y="190" type="qcurve"/>
      <point x="20" y="277"/>
      <point x="130" y="378"/>
      <point x="220" y="378" type="qcurve"/>
      <point x="271" y="378"/>
      <point x="318" y="356" type="qcurve"/>
      <point x="320" y="357" type="line"/>
      <point x="301" y="436"/>
      <point x="249" y="480" type="qcurve"/>
      <point x="168" y="419" type="line"/>
    </contour>
    <contour>
      <point x="216" y="325" type="qcurve"/>
      <point x="150" y="325"/>
      <point x="85" y="260"/>
      <point x="85" y="194" type="qcurve"/>
      <point x="85" y="130"/>
      <point x="155" y="55"/>
      <point x="213" y="55" type="qcurve"/>
      <point x="274" y="55"/>
      <point x="335" y="136"/>
      <point x="335" y="237" type="qcurve"/>
      <point x="335" y="270"/>
      <point x="331" y="299" type="qcurve"/>
      <point x="276" y="325"/>
    </contour>
  </outline>
</glyph>
<glyph name="divide" format="1">
  <advance width="480"/>
  <unicode hex="00F7"/>
  <outline>
    <contour>
      <point x="162" y="66" type="qcurve"/>
      <point x="162" y="90"/>
      <point x="188" y="117"/>
      <point x="211" y="117" type="qcurve"/>
      <point x="233" y="117"/>
      <point x="259" y="91"/>
      <point x="259" y="69" type="qcurve"/>
      <point x="259" y="46"/>
      <point x="232" y="20"/>
      <point x="209" y="20" type="qcurve"/>
      <point x="187" y="20"/>
      <point x="162" y="46"/>
    </contour>
    <contour>
      <point x="0" y="200" type="line"/>
      <point x="0" y="255" type="line"/>
      <point x="420" y="255" type="line"/>
      <point x="420" y="200" type="line"/>
    </contour>
    <contour>
      <point x="162" y="384" type="qcurve"/>
      <point x="162" y="408"/>
      <point x="188" y="435"/>
      <point x="211" y="435" type="qcurve"/>
      <point x="233" y="435"/>
      <point x="259" y="409"/>
      <point x="259" y="387" type="qcurve"/>
      <point x="259" y="364"/>
      <point x="232" y="338"/>
      <point x="209" y="338" type="qcurve"/>
      <point x="187" y="338"/>
      <point x="162" y="364"/>
    </contour>
  </outline>
</glyph>
<glyph name="oslash" format="1">
  <advance width="480"/>
  <unicode hex="00F8"/>
  <outline>
    <contour>
      <point x="20" y="208" type="qcurve"/>
      <point x="20" y="306"/>
      <point x="130" y="420"/>
      <point x="215" y="420" type="qcurve"/>
      <point x="271" y="420"/>
      <point x="311" y="395" type="qcurve"/>
      <point x="349" y="450" type="line"/>
      <point x="385" y="426" type="line"/>
      <point x="346" y="369" type="line"/>
      <point x="400" y="315"/>
      <point x="400" y="217" type="qcurve"/>
      <point x="400" y="117"/>
      <point x="293" y="0"/>
      <point x="207" y="0" type="qcurve"/>
      <point x="151" y="0"/>
      <point x="110" y="26" type="qcurve"/>
      <point x="71" y="-30" type="line"/>
      <point x="35" y="-6" type="line"/>
      <point x="75" y="53" type="line"/>
      <point x="20" y="108"/>
    </contour>
    <contour>
      <point x="85" y="217" type="qcurve"/>
      <point x="85" y="145"/>
      <point x="111" y="105" type="qcurve"/>
      <point x="279" y="348" type="line"/>
      <point x="250" y="365"/>
      <point x="208" y="365" type="qcurve"/>
      <point x="151" y="365"/>
      <point x="85" y="294"/>
    </contour>
    <contour>
      <point x="213" y="55" type="qcurve"/>
      <point x="272" y="55"/>
      <point x="335" y="133"/>
      <point x="335" y="210" type="qcurve"/>
      <point x="335" y="279"/>
      <point x="310" y="317" type="qcurve"/>
      <point x="142" y="73" type="line"/>
      <point x="171" y="55"/>
    </contour>
  </outline>
</glyph>
<glyph name="thorn" format="1">
  <advance width="480"/>
  <unicode hex="00FE"/>
  <outline>
    <contour>
      <point x="120" y="600" type="line"/>
      <point x="120" y="376" type="line"/>
      <point x="121" y="376" type="line"/>
      <point x="175" y="420"/>
      <point x="240" y="420" type="qcurve"/>
      <point x="313" y="420"/>
      <point x="400" y="306"/>
      <point x="400" y="219" type="qcurve"/>
      <point x="400" y="121"/>
      <point x="295" y="0"/>
      <point x="213" y="0" type="qcurve"/>
      <point x="166" y="0"/>
      <point x="122" y="19" type="qcurve"/>
      <point x="120" y="18" type="line"/>
      <point x="120" y="-125" type="line"/>
      <point x="180" y="-125" type="line"/>
      <point x="180" y="-180" type="line"/>
      <point x="0" y="-180" type="line"/>
      <point x="0" y="-125" type="line"/>
      <point x="60" y="-125" type="line"/>
      <point x="60" y="545" type="line"/>
      <point x="0" y="545" type="line"/>
      <point x="0" y="600" type="line"/>
    </contour>
    <contour>
      <point x="120" y="324" type="qcurve"/>
      <point x="120" y="72" type="line"/>
      <point x="157" y="55"/>
      <point x="205" y="55" type="qcurve"/>
      <point x="267" y="55"/>
      <point x="335" y="128"/>
      <point x="335" y="209" type="qcurve"/>
      <point x="335" y="282"/>
      <point x="274" y="365"/>
      <point x="220" y="365" type="qcurve"/>
      <point x="166" y="365"/>
    </contour>
  </outline>
</glyph>
<glyph name="Aogonek" format="1">
  <advance width="480"/>
  <unicode hex="0104"/>
  <outline>
    <contour>
      <point x="120" y="55" type="line"/>
      <point x="120" y="0" type="line"/>
      <point x="-60" y="0" type="line"/>
      <point x="-60" y="55" type="line"/>
      <point x="-5" y="55" type="line"/>
      <point x="179" y="540" type="line"/>
      <point x="246" y="540" type="line"/>
      <point x="426" y="55" type="line"/>
      <point x="480" y="55" type="line"/>
      <point x="480" y="0" type="line"/>
      <point x="382" y="0" type="line"/>
      <point x="320" y="-41"/>
      <point x="320" y="-86" type="qcurve"/>
      <point x="320" y="-106"/>
      <point x="341" y="-125"/>
      <point x="357" y="-125" type="qcurve"/>
      <point x="378" y="-125"/>
      <point x="400" y="-114" type="qcurve"/>
      <point x="400" y="-165" type="line"/>
      <point x="374" y="-180"/>
      <point x="343" y="-180" type="qcurve"/>
      <point x="309" y="-180"/>
      <point x="260" y="-140"/>
      <point x="260" y="-100" type="qcurve"/>
      <point x="260" y="-25"/>
      <point x="366" y="42" type="qcurve"/>
      <point x="314" y="185" type="line"/>
      <point x="102" y="185" type="line"/>
      <point x="55" y="55" type="line"/>
    </contour>
    <contour>
      <point x="210" y="470" type="line"/>
      <point x="206" y="470" type="line"/>
      <point x="122" y="240" type="line"/>
      <point x="294" y="240" type="line"/>
    </contour>
  </outline>
</glyph>
<glyph name="Dcroat" format="1">
  <advance width="540"/>
  <unicode hex="0110"/>
  <outline>
    <contour>
      <point x="60" y="245" type="line"/>
      <point x="0" y="245" type="line"/>
      <point x="0" y="300" type="line"/>
      <point x="60" y="300" type="line"/>
      <point x="60" y="485" type="line"/>
      <point x="0" y="485" type="line"/>
      <point x="0" y="540" type="line"/>
      <point x="192" y="540" type="line"/>
      <point x="336" y="540"/>
      <point x="485" y="411"/>
      <point x="485" y="285" type="qcurve"/>
      <point x="485" y="142"/>
      <point x="322" y="0"/>
      <point x="181" y="0" type="qcurve"/>
      <point x="0" y="0" type="line"/>
      <point x="0" y="55" type="line"/>
      <point x="60" y="55" type="line"/>
    </contour>
    <contour>
      <point x="120" y="55" type="line"/>
      <point x="189" y="55" type="line"/>
      <point x="300" y="55"/>
      <point x="420" y="166"/>
      <point x="420" y="278" type="qcurve"/>
      <point x="420" y="382"/>
      <point x="310" y="485"/>
      <point x="190" y="485" type="qcurve"/>
      <point x="120" y="485" type="line"/>
      <point x="120" y="300" type="line"/>
      <point x="240" y="300" type="line"/>
      <point x="240" y="245" type="line"/>
      <point x="120" y="245" type="line"/>
    </contour>
  </outline>
</glyph>
<glyph name="dcroat" format="1">
  <advance width="480"/>
  <unicode hex="0111"/>
  <outline>
    <contour>
      <point x="360" y="600" type="line"/>
      <point x="360" y="530" type="line"/>
      <point x="420" y="530" type="line"/>
      <point x="420" y="480" type="line"/>
      <point x="360" y="480" type="line"/>
      <point x="360" y="55" type="line"/>
      <point x="420" y="55" type="line"/>
      <point x="420" y="0" type="line"/>
      <point x="304" y="0" type="line"/>
      <point x="300" y="51" type="line"/>
      <point x="298" y="51" type="line"/>
      <point x="250" y="0"/>
      <point x="188" y="0" type="qcurve"/>
      <point x="115" y="0"/>
      <point x="20" y="113"/>
      <point x="20" y="200" type="qcurve"/>
      <point x="20" y="297"/>
      <point x="125" y="415"/>
      <point x="208" y="415" type="qcurve"/>
      <point x="254" y="415"/>
      <point x="298" y="396" type="qcurve"/>
      <point x="300" y="396" type="line"/>
      <point x="300" y="480" type="line"/>
      <point x="180" y="480" type="line"/>
      <point x="180" y="530" type="line"/>
      <point x="300" y="530" type="line"/>
      <point x="300" y="600" type="line"/>
    </contour>
    <contour>
      <point x="300" y="342" type="line"/>
      <point x="259" y="360"/>
      <point x="212" y="360" type="qcurve"/>
      <point x="149" y="360"/>
      <point x="85" y="284"/>
      <point x="85" y="208" type="qcurve"/>
      <point x="85" y="134"/>
      <point x="146" y="55"/>
      <point x="202" y="55" type="qcurve"/>
      <point x="261" y="55"/>
      <point x="300" y="102" type="qcurve"/>
    </contour>
  </outline>
</glyph>
<glyph name="eogonek" format="1">
  <advance width="420"/>
  <unicode hex="0119"/>
  <outline>
    <contour>
      <point x="350" y="37" type="line"/>
      <point x="270" y="-27"/>
      <point x="270" y="-86" type="qcurve"/>
      <point x="270" y="-106"/>
      <point x="291" y="-125"/>
      <point x="307" y="-125" type="qcurve"/>
      <point x="328" y="-125"/>
      <point x="350" y="-114" type="qcurve"/>
      <point x="350" y="-165" type="line"/>
      <point x="324" y="-180"/>
      <point x="293" y="-180" type="qcurve"/>
      <point x="259" y="-180"/>
      <point x="210" y="-140"/>
      <point x="210" y="-104" type="qcurve"/>
      <point x="210" y="-47"/>
      <point x="271" y="6" type="qcurve"/>
      <point x="270" y="8" type="line"/>
      <point x="244" y="0"/>
      <point x="213" y="0" type="qcurve"/>
      <point x="124" y="0"/>
      <point x="20" y="113"/>
      <point x="20" y="204" type="qcurve"/>
      <point x="20" y="306"/>
      <point x="123" y="420"/>
      <point x="207" y="420" type="qcurve"/>
      <point x="280" y="420"/>
      <point x="360" y="321"/>
      <point x="360" y="233" type="qcurve"/>
      <point x="360" y="202" type="line"/>
      <point x="85" y="202" type="line"/>
      <point x="88" y="133"/>
      <point x="153" y="55"/>
      <point x="222" y="55" type="qcurve"/>
      <point x="287" y="55"/>
      <point x="350" y="96" type="qcurve"/>
    </contour>
    <contour>
      <point x="300" y="257" type="line"/>
      <point x="295" y="365"/>
      <point x="200" y="365" type="qcurve"/>
      <point x="150" y="365"/>
      <point x="95" y="308"/>
      <point x="88" y="257" type="qcurve"/>
    </contour>
  </outline>
</glyph>
<glyph name="Hbar" format="1">
  <advance width="600"/>
  <unicode hex="0126"/>
  <outline>
    <contour>
      <point x="540" y="365" type="line"/>
      <point x="480" y="365" type="line"/>
      <point x="480" y="55" type="line"/>
      <point x="540" y="55" type="line"/>
      <point x="540" y="0" type="line"/>
      <point x="360" y="0" type="line"/>
      <point x="360" y="55" type="line"/>
      <point x="420" y="55" type="line"/>
      <point x="420" y="240" type="line"/>
      <point x="120" y="240" type="line"/>
      <point x="120" y="55" type="line"/>
      <point x="180" y="55" type="line"/>
      <point x="180" y="0" type="line"/>
      <point x="0" y="0" type="line"/>
      <point x="0" y="55" type="line"/>
      <point x="60" y="55" type="line"/>
      <point x="60" y="365" type="line"/>
      <point x="0" y="365" type="line"/>
      <point x="0" y="420" type="line"/>
      <point x="60" y="420" type="line"/>
      <point x="60" y="485" type="line"/>
      <point x="0" y="485" type="line"/>
      <point x="0" y="540" type="line"/>
      <point x="180" y="540" type="line"/>
      <point x="180" y="485" type="line"/>
      <point x="120" y="485" type="line"/>
      <point x="120" y="420" type="line"/>
      <point x="420" y="420" type="line"/>
      <point x="420" y="485" type="line"/>
      <point x="360" y="485" type="line"/>
      <point x="360" y="540" type="line"/>
      <point x="540" y="540" type="line"/>
      <point x="540" y="485" type="line"/>
      <point x="480" y="485" type="line"/>
      <point x="480" y="420" type="line"/>
      <point x="540" y="420" type="line"/>
    </contour>
    <contour>
      <point x="420" y="295" type="line"/>
      <point x="420" y="365" type="line"/>
      <point x="120" y="365" type="line"/>
      <point x="120" y="295" type="line"/>
    </contour>
  </outline>
</glyph>
<glyph name="hbar" format="1">
  <advance width="480"/>
  <unicode hex="0127"/>
  <outline>
    <contour>
      <point x="60" y="480" type="line"/>
      <point x="0" y="480" type="line"/>
      <point x="0" y="530" type="line"/>
      <point x="60" y="530" type="line"/>
      <point x="60" y="600" type="line"/>
      <point x="120" y="600" type="line"/>
      <point x="120" y="530" type="line"/>
      <point x="240" y="530" type="line"/>
      <point x="240" y="480" type="line"/>
      <point x="120" y="480" type="line"/>
      <point x="120" y="358" type="line"/>
      <point x="121" y="358" type="line"/>
      <point x="178" y="415"/>
      <point x="253" y="415" type="qcurve"/>
      <point x="313" y="415"/>
      <point x="370" y="347"/>
      <point x="370" y="287" type="qcurve"/>
      <point x="370" y="55" type="line"/>
      <point x="430" y="55" type="line"/>
      <point x="430" y="0" type="line"/>
      <point x="250" y="0" type="line"/>
      <point x="250" y="55" type="line"/>
      <point x="310" y="55" type="line"/>
      <point x="310" y="280" type="line"/>
      <point x="310" y="325"/>
      <point x="270" y="360"/>
      <point x="237" y="360" type="qcurve"/>
      <point x="170" y="360"/>
      <point x="120" y="298" type="qcurve"/>
      <point x="120" y="55" type="line"/>
      <point x="180" y="55" type="line"/>
      <point x="180" y="0" type="line"/>
      <point x="0" y="0" type="line"/>
      <point x="0" y="55" type="line"/>
      <point x="60" y="55" type="line"/>
    </contour>
  </outline>
</glyph>
<glyph name="Ldot" format="1">
  <advance width="480"/>
  <unicode hex="013F"/>
  <outline>
    <contour>
      <point x="281" y="308" type="qcurve"/>
      <point x="281" y="332"/>
      <point x="308" y="360"/>
      <point x="330" y="360" type="qcurve"/>
      <point x="353" y="360"/>
      <point x="380" y="332"/>
      <point x="380" y="311" type="qcurve"/>
      <point x="380" y="288"/>
      <point x="352" y="260"/>
      <point x="329" y="260" type="qcurve"/>
      <point x="307" y="260"/>
      <point x="281" y="288"/>
    </contour>
    <contour>
      <point x="0" y="55" type="line"/>
      <point x="60" y="55" type="line"/>
      <point x="60" y="485" type="line"/>
      <point x="0" y="485" type="line"/>
      <point x="0" y="540" type="line"/>
      <point x="180" y="540" type="line"/>
      <point x="180" y="485" type="line"/>
      <point x="120" y="485" type="line"/>
      <point x="120" y="55" type="line"/>
      <point x="360" y="55" type="line"/>
      <point x="360" y="160" type="line"/>
      <point x="420" y="160" type="line"/>
      <point x="420" y="0" type="line"/>
      <point x="0" y="0" type="line"/>
    </contour>
  </outline>
</glyph>
<glyph name="ldot" format="1">
  <advance width="300"/>
  <unicode hex="0140"/>
  <outline>
    <contour>
      <point x="0" y="55" type="line"/>
      <point x="60" y="55" type="line"/>
      <point x="60" y="545" type="line"/>
      <point x="0" y="545" type="line"/>
      <point x="0" y="600" type="line"/>
      <point x="120" y="600" type="line"/>
      <point x="120" y="55" type="line"/>
      <point x="180" y="55" type="line"/>
      <point x="180" y="0" type="line"/>
      <point x="0" y="0" type="line"/>
    </contour>
    <contour>
      <point x="195" y="300" type="qcurve"/>
      <point x="195" y="323"/>
      <point x="220" y="349"/>
      <point x="240" y="349" type="qcurve"/>
      <point x="260" y="349"/>
      <point x="285" y="323"/>
      <point x="285" y="303" type="qcurve"/>
      <point x="285" y="281"/>
      <point x="260" y="255"/>
      <point x="240" y="255" type="qcurve"/>
      <point x="220" y="255"/>
      <point x="195" y="281"/>
    </contour>
  </outline>
</glyph>
<glyph name="Lslash" format="1">
  <advance width="480"/>
  <unicode hex="0141"/>
  <outline>
    <contour>
      <point x="0" y="55" type="line"/>
      <point x="60" y="55" type="line"/>
      <point x="60" y="256" type="line"/>
      <point x="0" y="240" type="line"/>
      <point x="0" y="292" type="line"/>
      <point x="60" y="308" type="line"/>
      <point x="60" y="485" type="line"/>
      <point x="0" y="485" type="line"/>
      <point x="0" y="540" type="line"/>
      <point x="180" y="540" type="line"/>
      <point x="180" y="485" type="line"/>
      <point x="120" y="485" type="line"/>
      <point x="120" y="322" type="line"/>
      <point x="260" y="360" type="line"/>
      <point x="260" y="308" type="line"/>
      <point x="120" y="270" type="line"/>
      <point x="120" y="55" type="line"/>
      <point x="360" y="55" type="line"/>
      <point x="360" y="160" type="line"/>
      <point x="420" y="160" type="line"/>
      <point x="420" y="0" type="line"/>
      <point x="0" y="0" type="line"/>
    </contour>
  </outline>
</glyph>
<glyph name="lslash" format="1">
  <advance width="240"/>
  <unicode hex="0142"/>
  <outline>
    <contour>
      <point x="0" y="55" type="line"/>
      <point x="60" y="55" type="line"/>
      <point x="60" y="322" type="line"/>
      <point x="-10" y="296" type="line"/>
      <point x="-10" y="347" type="line"/>
      <point x="60" y="373" type="line"/>
      <point x="60" y="545" type="line"/>
      <point x="0" y="545" type="line"/>
      <point x="0" y="600" type="line"/>
      <point x="120" y="600" type="line"/>
      <point x="120" y="393" type="line"/>
      <point x="190" y="420" type="line"/>
      <point x="190" y="369" type="line"/>
      <point x="120" y="342" type="line"/>
      <point x="120" y="55" type="line"/>
      <point x="180" y="55" type="line"/>
      <point x="180" y="0" type="line"/>
      <point x="0" y="0" type="line"/>
    </contour>
  </outline>
</glyph>
<glyph name="Eng" format="1">
  <advance width="600"/>
  <unicode hex="014A"/>
  <outline>
    <contour>
      <point x="320" y="-64" type="line"/>
      <point x="327" y="-65"/>
      <point x="341" y="-65"/>
      <point x="349" y="-65" type="qcurve"/>
      <point x="381" y="-65"/>
      <point x="417" y="-36"/>
      <point x="420" y="0" type="qcurve"/>
      <point x="124" y="431" type="line"/>
      <point x="120" y="431" type="line"/>
      <point x="120" y="55" type="line"/>
      <point x="180" y="55" type="line"/>
      <point x="180" y="0" type="line"/>
      <point x="0" y="0" type="line"/>
      <point x="0" y="55" type="line"/>
      <point x="60" y="55" type="line"/>
      <point x="60" y="485" type="line"/>
      <point x="0" y="485" type="line"/>
      <point x="0" y="540" type="line"/>
      <point x="120" y="540" type="line"/>
      <point x="416" y="110" type="line"/>
      <point x="420" y="110" type="line"/>
      <point x="420" y="485" type="line"/>
      <point x="360" y="485" type="line"/>
      <point x="360" y="540" type="line"/>
      <point x="540" y="540" type="line"/>
      <point x="540" y="485" type="line"/>
      <point x="480" y="485" type="line"/>
      <point x="480" y="19" type="line"/>
      <point x="480" y="-44"/>
      <point x="424" y="-120"/>
      <point x="354" y="-120" type="qcurve"/>
      <point x="335" y="-120"/>
      <point x="320" y="-117" type="qcurve"/>
    </contour>
  </outline>
</glyph>
<glyph name="eng" format="1">
  <advance width="480"/>
  <unicode hex="014B"/>
  <outline>
    <contour>
      <point x="310" y="-32" type="qcurve"/>
      <point x="310" y="285" type="line"/>
      <point x="310" y="330"/>
      <point x="270" y="365"/>
      <point x="237" y="365" type="qcurve"/>
      <point x="170" y="365"/>
      <point x="120" y="301" type="qcurve"/>
      <point x="120" y="55" type="line"/>
      <point x="180" y="55" type="line"/>
      <point x="180" y="0" type="line"/>
      <point x="0" y="0" type="line"/>
      <point x="0" y="55" type="line"/>
      <point x="60" y="55" type="line"/>
      <point x="60" y="365" type="line"/>
      <point x="0" y="365" type="line"/>
      <point x="0" y="420" type="line"/>
      <point x="117" y="420" type="line"/>
      <point x="120" y="361" type="line"/>
      <point x="121" y="361" type="line"/>
      <point x="178" y="420"/>
      <point x="253" y="420" type="qcurve"/>
      <point x="313" y="420"/>
      <point x="370" y="352"/>
      <point x="370" y="292" type="qcurve"/>
      <point x="370" y="-28" type="line"/>
      <point x="370" y="-111"/>
      <point x="315" y="-180"/>
      <point x="261" y="-180" type="qcurve"/>
      <point x="245" y="-180"/>
      <point x="230" y="-177" type="qcurve"/>
      <point x="230" y="-124" type="line"/>
      <point x="238" y="-125"/>
      <point x="250" y="-125" type="qcurve"/>
      <point x="286" y="-125"/>
      <point x="310" y="-80"/>
    </contour>
  </outline>
</glyph>
<glyph name="OE" format="1">
  <advance width="840"/>
  <unicode hex="0152"/>
  <outline>
    <contour>
      <point x="420" y="540" type="line"/>
      <point x="760" y="540" type="line"/>
      <point x="760" y="380" type="line"/>
      <point x="700" y="380" type="line"/>
      <point x="700" y="485" type="line"/>
      <point x="480" y="485" type="line"/>
      <point x="480" y="310" type="line"/>
      <point x="580" y="310" type="line"/>
      <point x="580" y="370" type="line"/>
      <point x="640" y="370" type="line"/>
      <point x="640" y="190" type="line"/>
      <point x="580" y="190" type="line"/>
      <point x="580" y="255" type="line"/>
      <point x="480" y="255" type="line"/>
      <point x="480" y="55" type="line"/>
      <point x="700" y="55" type="line"/>
      <point x="700" y="160" type="line"/>
      <point x="760" y="160" type="line"/>
      <point x="760" y="0" type="line"/>
      <point x="420" y="0" type="line"/>
      <point x="420" y="49" type="line"/>
      <point x="354" y="0"/>
      <point x="272" y="0" type="qcurve"/>
      <point x="157" y="0"/>
      <point x="25" y="148"/>
      <point x="25" y="271" type="qcurve"/>
      <point x="25" y="394"/>
      <point x="161" y="540"/>
      <point x="280" y="540" type="qcurve"/>
      <point x="357" y="540"/>
      <point x="420" y="497" type="qcurve"/>
    </contour>
    <contour>
      <point x="274" y="55" type="qcurve"/>
      <point x="360" y="55"/>
      <point x="420" y="115" type="qcurve"/>
      <point x="420" y="429" type="line"/>
      <point x="360" y="485"/>
      <point x="276" y="485" type="qcurve"/>
      <point x="184" y="485"/>
      <point x="90" y="374"/>
      <point x="90" y="275" type="qcurve"/>
      <point x="90" y="176"/>
      <point x="185" y="55"/>
    </contour>
  </outline>
</glyph>
<glyph name="oe" format="1">
  <advance width="720"/>
  <unicode hex="0153"/>
  <outline>
    <contour>
      <point x="20" y="208" type="qcurve"/>
      <point x="20" y="257"/>
      <point x="48" y="335"/>
      <point x="98" y="390"/>
      <point x="167" y="420"/>
      <point x="209" y="420" type="qcurve"/>
      <point x="308" y="420"/>
      <point x="357" y="341" type="qcurve"/>
      <point x="359" y="341" type="line"/>
      <point x="410" y="420"/>
      <point x="509" y="420" type="qcurve"/>
      <point x="581" y="420"/>
      <point x="660" y="321"/>
      <point x="660" y="233" type="qcurve"/>
      <point x="660" y="202" type="line"/>
      <point x="388" y="202" type="line"/>
      <point x="391" y="133"/>
      <point x="455" y="55"/>
      <point x="524" y="55" type="qcurve"/>
      <point x="588" y="55"/>
      <point x="650" y="96" type="qcurve"/>
      <point x="650" y="37" type="line"/>
      <point x="586" y="0"/>
      <point x="515" y="0" type="qcurve"/>
      <point x="407" y="0"/>
      <point x="355" y="83" type="qcurve"/>
      <point x="353" y="83" type="line"/>
      <point x="299" y="0"/>
      <point x="201" y="0" type="qcurve"/>
      <point x="118" y="0"/>
      <point x="20" y="111"/>
    </contour>
    <contour>
      <point x="85" y="217" type="qcurve"/>
      <point x="85" y="136"/>
      <point x="147" y="55"/>
      <point x="207" y="55" type="qcurve"/>
      <point x="263" y="55"/>
      <point x="322" y="132"/>
      <point x="322" y="210" type="qcurve"/>
      <point x="322" y="365"/>
      <point x="201" y="365" type="qcurve"/>
      <point x="146" y="365"/>
      <point x="85" y="295"/>
    </contour>
    <contour>
      <point x="600" y="257" type="line"/>
      <point x="595" y="365"/>
      <point x="502" y="365" type="qcurve"/>
      <point x="451" y="365"/>
      <point x="398" y="308"/>
      <point x="391" y="257" type="qcurve"/>
    </contour>
  </outline>
</glyph>
<glyph name="tbar" format="1">
  <advance width="300"/>
  <unicode hex="0167"/>
  <outline>
    <contour>
      <point x="167" y="0" type="qcurve"/>
      <point x="121" y="0"/>
      <point x="60" y="48"/>
      <point x="60" y="98" type="qcurve"/>
      <point x="60" y="205" type="line"/>
      <point x="0" y="205" type="line"/>
      <point x="0" y="260" type="line"/>
      <point x="60" y="260" type="line"/>
      <point x="60" y="365" type="line"/>
      <point x="0" y="365" type="line"/>
      <point x="0" y="420" type="line"/>
      <point x="60" y="420" type="line"/>
      <point x="60" y="529" type="line"/>
      <point x="120" y="540" type="line"/>
      <point x="120" y="420" type="line"/>
      <point x="240" y="420" type="line"/>
      <point x="240" y="365" type="line"/>
      <point x="120" y="365" type="line"/>
      <point x="120" y="260" type="line"/>
      <point x="240" y="260" type="line"/>
      <point x="240" y="205" type="line"/>
      <point x="120" y="205" type="line"/>
      <point x="120" y="108" type="line"/>
      <point x="120" y="80"/>
      <point x="153" y="55"/>
      <point x="177" y="55" type="qcurve"/>
      <point x="208" y="55"/>
      <point x="240" y="73" type="qcurve"/>
      <point x="240" y="20" type="line"/>
      <point x="205" y="0"/>
    </contour>
  </outline>
</glyph>
<glyph name="Uogonek" format="1">
  <advance width="600"/>
  <unicode hex="0172"/>
  <outline>
    <contour>
      <point x="120" y="205" type="line"/>
      <point x="120" y="132"/>
      <point x="200" y="52"/>
      <point x="268" y="52" type="qcurve"/>
      <point x="339" y="52"/>
      <point x="420" y="135"/>
      <point x="420" y="207" type="qcurve"/>
      <point x="420" y="485" type="line"/>
      <point x="360" y="485" type="line"/>
      <point x="360" y="540" type="line"/>
      <point x="540" y="540" type="line"/>
      <point x="540" y="485" type="line"/>
      <point x="480" y="485" type="line"/>
      <point x="480" y="209" type="line"/>
      <point x="480" y="135"/>
      <point x="409" y="32"/>
      <point x="355" y="15" type="qcurve"/>
      <point x="280" y="-38"/>
      <point x="280" y="-86" type="qcurve"/>
      <point x="280" y="-106"/>
      <point x="301" y="-125"/>
      <point x="317" y="-125" type="qcurve"/>
      <point x="338" y="-125"/>
      <point x="360" y="-114" type="qcurve"/>
      <point x="360" y="-165" type="line"/>
      <point x="334" y="-180"/>
      <point x="303" y="-180" type="qcurve"/>
      <point x="269" y="-180"/>
      <point x="220" y="-140"/>
      <point x="220" y="-104" type="qcurve"/>
      <point x="220" y="-45"/>
      <point x="285" y="-1" type="qcurve"/>
      <point x="284" y="1" type="line"/>
      <point x="276" y="0"/>
      <point x="268" y="0" type="qcurve"/>
      <point x="173" y="0"/>
      <point x="60" y="108"/>
      <point x="60" y="203" type="qcurve"/>
      <point x="60" y="485" type="line"/>
      <point x="0" y="485" type="line"/>
      <point x="0" y="540" type="line"/>
      <point x="180" y="540" type="line"/>
      <point x="180" y="485" type="line"/>
      <point x="120" y="485" type="line"/>
    </contour>
  </outline>
</glyph>
<glyph name="uni0192" format="1">
  <advance width="420"/>
  <unicode hex="0192"/>
  <outline>
    <contour>
      <point x="127" y="360" type="line"/>
      <point x="134" y="447"/>
      <point x="214" y="540"/>
      <point x="292" y="540" type="qcurve"/>
      <point x="319" y="540"/>
      <point x="340" y="536" type="qcurve"/>
      <point x="340" y="481" type="line"/>
      <point x="315" y="485"/>
      <point x="298" y="485" type="qcurve"/>
      <point x="242" y="485"/>
      <point x="192" y="429"/>
      <point x="187" y="356" type="qcurve"/>
      <point x="182" y="300" type="line"/>
      <point x="300" y="300" type="line"/>
      <point x="300" y="250" type="line"/>
      <point x="179" y="250" type="line"/>
      <point x="166" y="92" type="line"/>
      <point x="158" y="-9"/>
      <point x="80" y="-120"/>
      <point x="8" y="-120" type="qcurve"/>
      <point x="-20" y="-120"/>
      <point x="-40" y="-115" type="qcurve"/>
      <point x="-40" y="-61" type="line"/>
      <point x="-24" y="-65"/>
      <point x="2" y="-65" type="qcurve"/>
      <point x="52" y="-65"/>
      <point x="98" y="11"/>
      <point x="105" y="93" type="qcurve"/>
      <point x="119" y="250" type="line"/>
      <point x="62" y="250" type="line"/>
      <point x="62" y="300" type="line"/>
      <point x="122" y="300" type="line"/>
    </contour>
  </outline>
</glyph>
<glyph name="uni0237" format="1">
  <advance width="211"/>
  <unicode hex="0237"/>
  <outline>
    <contour>
      <point x="120" y="-28" type="line"/>
      <point x="120" y="-111"/>
      <point x="65" y="-180"/>
      <point x="11" y="-180" type="qcurve"/>
      <point x="-5" y="-180"/>
      <point x="-20" y="-177" type="qcurve"/>
      <point x="-20" y="-124" type="line"/>
      <point x="-12" y="-125"/>
      <point x="0" y="-125" type="qcurve"/>
      <point x="36" y="-125"/>
      <point x="60" y="-80"/>
      <point x="60" y="-32" type="qcurve"/>
      <point x="60" y="365" type="line"/>
      <point x="0" y="365" type="line"/>
      <point x="0" y="420" type="line"/>
      <point x="120" y="420" type="line"/>
    </contour>
  </outline>
</glyph>
<glyph name="uni0300" format="1">
  <advance width="0"/>
  <unicode hex="0300"/>
  <outline>
    <contour>
      <point x="-180" y="480" type="line"/>
      <point x="-230" y="480" type="line"/>
      <point x="-320" y="600" type="line"/>
      <point x="-250" y="600" type="line"/>
    </contour>
  </outline>
</glyph>
<glyph name="uni0301" format="1">
  <advance width="0"/>
  <unicode hex="0301"/>
  <outline>
    <contour>
      <point x="-170" y="600" type="line"/>
      <point x="-100" y="600" type="line"/>
      <point x="-190" y="480" type="line"/>
      <point x="-240" y="480" type="line"/>
    </contour>
  </outline>
</glyph>
<glyph name="uni0302" format="1">
  <advance width="0"/>
  <unicode hex="0302"/>
  <outline>
    <contour>
      <point x="-212" y="559" type="line"/>
      <point x="-270" y="480" type="line"/>
      <point x="-330" y="480" type="line"/>
      <point x="-237" y="600" type="line"/>
      <point x="-185" y="600" type="line"/>
      <point x="-90" y="480" type="line"/>
      <point x="-151" y="480" type="line"/>
      <point x="-210" y="559" type="line"/>
    </contour>
  </outline>
</glyph>
<glyph name="uni0303" format="1">
  <advance width="0"/>
  <unicode hex="0303"/>
  <outline>
    <contour>
      <point x="-330" y="540" type="line"/>
      <point x="-302" y="577"/>
      <point x="-260" y="577" type="qcurve"/>
      <point x="-227" y="577"/>
      <point x="-204" y="554" type="qcurve"/>
      <point x="-179" y="530"/>
      <point x="-158" y="530" type="qcurve"/>
      <point x="-123" y="530"/>
      <point x="-106" y="575" type="qcurve"/>
      <point x="-91" y="575" type="line"/>
      <point x="-91" y="517" type="line"/>
      <point x="-119" y="480"/>
      <point x="-161" y="480" type="qcurve"/>
      <point x="-194" y="480"/>
      <point x="-218" y="503" type="qcurve"/>
      <point x="-242" y="527"/>
      <point x="-263" y="527" type="qcurve"/>
      <point x="-299" y="527"/>
      <point x="-315" y="482" type="qcurve"/>
      <point x="-330" y="482" type="line"/>
    </contour>
  </outline>
</glyph>
<glyph name="uni0304" format="1">
  <advance width="0"/>
  <unicode hex="0304"/>
  <outline>
    <contour>
      <point x="-320" y="530" type="line"/>
      <point x="-100" y="530" type="line"/>
      <point x="-100" y="480" type="line"/>
      <point x="-320" y="480" type="line"/>
    </contour>
  </outline>
</glyph>
<glyph name="uni0306" format="1">
  <advance width="0"/>
  <unicode hex="0306"/>
  <outline>
    <contour>
      <point x="-279" y="600" type="line"/>
      <point x="-274" y="566"/>
      <point x="-240" y="530"/>
      <point x="-210" y="530" type="qcurve"/>
      <point x="-179" y="530"/>
      <point x="-146" y="567"/>
      <point x="-141" y="600" type="qcurve"/>
      <point x="-94" y="600" type="line"/>
      <point x="-99" y="544"/>
      <point x="-159" y="480"/>
      <point x="-210" y="480" type="qcurve"/>
      <point x="-261" y="480"/>
      <point x="-322" y="544"/>
      <point x="-326" y="600" type="qcurve"/>
    </contour>
  </outline>
</glyph>
<glyph name="uni0307" format="1">
  <advance width="0"/>
  <unicode hex="0307"/>
  <outline>
    <contour>
      <point x="-255" y="525" type="qcurve"/>
      <point x="-255" y="548"/>
      <point x="-230" y="574"/>
      <point x="-210" y="574" type="qcurve"/>
      <point x="-190" y="574"/>
      <point x="-165" y="548"/>
      <point x="-165" y="528" type="qcurve"/>
      <point x="-165" y="506"/>
      <point x="-190" y="480"/>
      <point x="-210" y="480" type="qcurve"/>
      <point x="-230" y="480"/>
      <point x="-255" y="506"/>
    </contour>
  </outline>
</glyph>
<glyph name="uni0308" format="1">
  <advance width="0"/>
  <unicode hex="0308"/>
  <outline>
    <contour>
      <point x="-340" y="524" type="qcurve"/>
      <point x="-340" y="544"/>
      <point x="-316" y="569"/>
      <point x="-295" y="569" type="qcurve"/>
      <point x="-275" y="569"/>
      <point x="-251" y="545"/>
      <point x="-251" y="525" type="qcurve"/>
      <point x="-251" y="505"/>
      <point x="-276" y="480"/>
      <point x="-297" y="480" type="qcurve"/>
      <point x="-316" y="480"/>
      <point x="-340" y="505"/>
    </contour>
    <contour>
      <point x="-169" y="524" type="qcurve"/>
      <point x="-169" y="544"/>
      <point x="-145" y="569"/>
      <point x="-124" y="569" type="qcurve"/>
      <point x="-105" y="569"/>
      <point x="-80" y="545"/>
      <point x="-80" y="525" type="qcurve"/>
      <point x="-80" y="505"/>
      <point x="-105" y="480"/>
      <point x="-126" y="480" type="qcurve"/>
      <point x="-146" y="480"/>
      <point x="-169" y="505"/>
    </contour>
  </outline>
</glyph>
<glyph name="uni030A" format="1">
  <advance width="0"/>
  <unicode hex="030A"/>
  <outline>
    <contour>
      <point x="-298" y="552" type="qcurve"/>
      <point x="-298" y="586"/>
      <point x="-248" y="625"/>
      <point x="-207" y="625" type="qcurve"/>
      <point x="-168" y="625"/>
      <point x="-122" y="587"/>
      <point x="-122" y="555" type="qcurve"/>
      <point x="-122" y="522"/>
      <point x="-171" y="480"/>
      <point x="-213" y="480" type="qcurve"/>
      <point x="-253" y="480"/>
      <point x="-298" y="521"/>
    </contour>
    <contour>
      <point x="-248" y="553" type="qcurve"/>
      <point x="-248" y="536"/>
      <point x="-228" y="515"/>
      <point x="-210" y="515" type="qcurve"/>
      <point x="-190" y="515"/>
      <point x="-172" y="537"/>
      <point x="-172" y="553" type="qcurve"/>
      <point x="-172" y="570"/>
      <point x="-190" y="590"/>
      <point x="-209" y="590" type="qcurve"/>
      <point x="-227" y="590"/>
      <point x="-248" y="572"/>
    </contour>
  </outline>
</glyph>
<glyph name="uni030B" format="1">
  <advance width="0"/>
  <unicode hex="030B"/>
  <outline>
    <contour>
      <point x="-106" y="600" type="line"/>
      <point x="-40" y="600" type="line"/>
      <point x="-130" y="480" type="line"/>
      <point x="-180" y="480" type="line"/>
    </contour>
    <contour>
      <point x="-230" y="600" type="line"/>
      <point x="-165" y="600" type="line"/>
      <point x="-250" y="480" type="line"/>
      <point x="-300" y="480" type="line"/>
    </contour>
  </outline>
</glyph>
<glyph name="uni030C" format="1">
  <advance width="0"/>
  <unicode hex="030C"/>
  <outline>
    <contour>
      <point x="-208" y="521" type="line"/>
      <point x="-150" y="600" type="line"/>
      <point x="-90" y="600" type="line"/>
      <point x="-183" y="480" type="line"/>
      <point x="-235" y="480" type="line"/>
      <point x="-330" y="600" type="line"/>
      <point x="-269" y="600" type="line"/>
      <point x="-210" y="521" type="line"/>
    </contour>
  </outline>
</glyph>
<glyph name="uni0312" format="1">
  <advance width="0"/>
  <unicode hex="0312"/>
  <outline>
    <contour>
      <point x="-180" y="480" type="line"/>
      <point x="-245" y="480" type="line"/>
      <point x="-210" y="610" type="line"/>
      <point x="-160" y="610" type="line"/>
    </contour>
  </outline>
</glyph>
<glyph name="uni0315" format="1">
  <advance width="60"/>
  <unicode hex="0315"/>
  <outline>
    <contour>
      <point x="-40" y="540" type="line"/>
      <point x="25" y="540" type="line"/>
      <point x="-10" y="380" type="line"/>
      <point x="-60" y="380" type="line"/>
    </contour>
  </outline>
</glyph>
<glyph name="uni0326" format="1">
  <advance width="0"/>
  <unicode hex="0326"/>
  <outline>
    <contour>
      <point x="-240" y="-40" type="line"/>
      <point x="-175" y="-40" type="line"/>
      <point x="-210" y="-180" type="line"/>
      <point x="-260" y="-180" type="line"/>
    </contour>
  </outline>
</glyph>
<glyph name="uni0327" format="1">
  <advance width="0"/>
  <unicode hex="0327"/>
  <outline>
    <contour>
      <point x="-278" y="-123" type="line"/>
      <point x="-259" y="-130"/>
      <point x="-239" y="-130" type="qcurve"/>
      <point x="-221" y="-130"/>
      <point x="-200" y="-117"/>
      <point x="-200" y="-103" type="qcurve"/>
      <point x="-200" y="-85"/>
      <point x="-230" y="-67"/>
      <point x="-256" y="-67" type="qcurve"/>
      <point x="-228" y="10" type="line"/>
      <point x="-179" y="10" type="line"/>
      <point x="-195" y="-36" type="line"/>
      <point x="-167" y="-42"/>
      <point x="-140" y="-79"/>
      <point x="-140" y="-103" type="qcurve"/>
      <point x="-140" y="-139"/>
      <point x="-196" y="-180"/>
      <point x="-237" y="-180" type="qcurve"/>
      <point x="-259" y="-180"/>
      <point x="-278" y="-172" type="qcurve"/>
    </contour>
  </outline>
</glyph>
<glyph name="uni0328" format="1">
  <advance width="0"/>
  <unicode hex="0328"/>
  <outline>
    <contour>
      <point x="-60" y="0" type="line"/>
      <point x="-140" y="-45"/>
      <point x="-140" y="-86" type="qcurve"/>
      <point x="-140" y="-106"/>
      <point x="-119" y="-125"/>
      <point x="-103" y="-125" type="qcurve"/>
      <point x="-82" y="-125"/>
      <point x="-60" y="-114" type="qcurve"/>
      <point x="-60" y="-165" type="line"/>
      <point x="-86" y="-180"/>
      <point x="-117" y="-180" type="qcurve"/>
      <point x="-151" y="-180"/>
      <point x="-200" y="-140"/>
      <point x="-200" y="-104" type="qcurve"/>
      <point x="-200" y="-44"/>
      <point x="-120" y="-2" type="qcurve"/>
      <point x="-120" y="10" type="line"/>
      <point x="-60" y="10" type="line"/>
    </contour>
  </outline>
</glyph>
<glyph name="endash" format="1">
  <advance width="420"/>
  <unicode hex="2013"/>
  <outline>
    <contour>
      <point x="0" y="240" type="line"/>
      <point x="360" y="240" type="line"/>
      <point x="360" y="185" type="line"/>
      <point x="0" y="185" type="line"/>
    </contour>
  </outline>
</glyph>
<glyph name="emdash" format="1">
  <advance width="780"/>
  <unicode hex="2014"/>
  <outline>
    <contour>
      <point x="0" y="240" type="line"/>
      <point x="720" y="240" type="line"/>
      <point x="720" y="185" type="line"/>
      <point x="0" y="185" type="line"/>
    </contour>
  </outline>
</glyph>
<glyph name="quoteleft" format="1">
  <advance width="180"/>
  <unicode hex="2018"/>
  <outline>
    <contour>
      <point x="111" y="550" type="line"/>
      <point x="71" y="370" type="line"/>
      <point x="0" y="370" type="line"/>
      <point x="65" y="550" type="line"/>
    </contour>
  </outline>
</glyph>
<glyph name="quoteright" format="1">
  <advance width="180"/>
  <unicode hex="2019"/>
  <outline>
    <contour>
      <point x="0" y="370" type="line"/>
      <point x="40" y="550" type="line"/>
      <point x="111" y="550" type="line"/>
      <point x="46" y="370" type="line"/>
    </contour>
  </outline>
</glyph>
<glyph name="quotesinglbase" format="1">
  <advance width="240"/>
  <unicode hex="201A"/>
  <outline>
    <contour>
      <point x="30" y="-80" type="line"/>
      <point x="70" y="100" type="line"/>
      <point x="141" y="100" type="line"/>
      <point x="76" y="-80" type="line"/>
    </contour>
  </outline>
</glyph>
<glyph name="dagger" format="1">
  <advance width="480"/>
  <unicode hex="2020"/>
  <outline>
    <contour>
      <point x="240" y="420" type="line"/>
      <point x="400" y="420" type="line"/>
      <point x="400" y="365" type="line"/>
      <point x="240" y="365" type="line"/>
      <point x="240" y="-120" type="line"/>
      <point x="180" y="-120" type="line"/>
      <point x="180" y="365" type="line"/>
      <point x="20" y="365" type="line"/>
      <point x="20" y="420" type="line"/>
      <point x="180" y="420" type="line"/>
      <point x="180" y="600" type="line"/>
      <point x="240" y="600" type="line"/>
    </contour>
  </outline>
</glyph>
<glyph name="daggerdbl" format="1">
  <advance width="480"/>
  <unicode hex="2021"/>
  <outline>
    <contour>
      <point x="180" y="60" type="line"/>
      <point x="20" y="60" type="line"/>
      <point x="20" y="115" type="line"/>
      <point x="180" y="115" type="line"/>
      <point x="180" y="365" type="line"/>
      <point x="20" y="365" type="line"/>
      <point x="20" y="420" type="line"/>
      <point x="180" y="420" type="line"/>
      <point x="180" y="600" type="line"/>
      <point x="240" y="600" type="line"/>
      <point x="240" y="420" type="line"/>
      <point x="400" y="420" type="line"/>
      <point x="400" y="365" type="line"/>
      <point x="240" y="365" type="line"/>
      <point x="240" y="115" type="line"/>
      <point x="400" y="115" type="line"/>
      <point x="400" y="60" type="line"/>
      <point x="240" y="60" type="line"/>
      <point x="240" y="-120" type="line"/>
      <point x="180" y="-120" type="line"/>
    </contour>
  </outline>
</glyph>
<glyph name="bullet" format="1">
  <advance width="300"/>
  <unicode hex="2022"/>
  <outline>
    <contour>
      <point x="37" y="272" type="qcurve"/>
      <point x="37" y="313"/>
      <point x="82" y="360"/>
      <point x="122" y="360" type="qcurve"/>
      <point x="159" y="360"/>
      <point x="204" y="314"/>
      <point x="204" y="277" type="qcurve"/>
      <point x="204" y="236"/>
      <point x="159" y="190"/>
      <point x="119" y="190" type="qcurve"/>
      <point x="81" y="190"/>
      <point x="37" y="236"/>
    </contour>
  </outline>
</glyph>
<glyph name="ellipsis" format="1">
  <advance width="600"/>
  <unicode hex="2026"/>
  <outline>
    <contour>
      <point x="40" y="49" type="qcurve"/>
      <point x="40" y="73"/>
      <point x="67" y="101"/>
      <point x="91" y="101" type="qcurve"/>
      <point x="114" y="101"/>
      <point x="141" y="74"/>
      <point x="141" y="51" type="qcurve"/>
      <point x="141" y="27"/>
      <point x="113" y="0"/>
      <point x="89" y="0" type="qcurve"/>
      <point x="66" y="0"/>
      <point x="40" y="27"/>
    </contour>
    <contour>
      <point x="220" y="49" type="qcurve"/>
      <point x="220" y="73"/>
      <point x="248" y="101"/>
      <point x="272" y="101" type="qcurve"/>
      <point x="294" y="101"/>
      <point x="322" y="74"/>
      <point x="322" y="51" type="qcurve"/>
      <point x="322" y="27"/>
      <point x="294" y="0"/>
      <point x="270" y="0" type="qcurve"/>
      <point x="247" y="0"/>
      <point x="220" y="27"/>
    </contour>
    <contour>
      <point x="401" y="49" type="qcurve"/>
      <point x="401" y="73"/>
      <point x="428" y="101"/>
      <point x="452" y="101" type="qcurve"/>
      <point x="475" y="101"/>
      <point x="502" y="74"/>
      <point x="502" y="51" type="qcurve"/>
      <point x="502" y="27"/>
      <point x="474" y="0"/>
      <point x="450" y="0" type="qcurve"/>
      <point x="428" y="0"/>
      <point x="401" y="27"/>
    </contour>
  </outline>
</glyph>
<glyph name="guilsinglleft" format="1">
  <advance width="240"/>
  <unicode hex="2039"/>
  <outline>
    <contour>
      <point x="0" y="210" type="line"/>
      <point x="110" y="360" type="line"/>
      <point x="180" y="360" type="line"/>
      <point x="70" y="210" type="line"/>
      <point x="180" y="60" type="line"/>
      <point x="110" y="60" type="line"/>
    </contour>
  </outline>
</glyph>
<glyph name="guilsinglright" format="1">
  <advance width="240"/>
  <unicode hex="203A"/>
  <outline>
    <contour>
      <point x="70" y="60" type="line"/>
      <point x="0" y="60" type="line"/>
      <point x="110" y="210" type="line"/>
      <point x="0" y="360" type="line"/>
      <point x="70" y="360" type="line"/>
      <point x="180" y="210" type="line"/>
    </contour>
  </outline>
</glyph>
<glyph name="fraction" format="1">
  <advance width="60"/>
  <unicode hex="2044"/>
  <outline>
    <contour>
      <point x="210" y="540" type="line"/>
      <point x="-151" y="0" type="line"/>
      <point x="-210" y="0" type="line"/>
      <point x="152" y="540" type="line"/>
    </contour>
  </outline>
</glyph>
<glyph name="uni2070" format="1">
  <advance width="420"/>
  <unicode hex="2070"/>
  <outline>
    <contour>
      <point x="20" y="359" type="qcurve"/>
      <point x="20" y="444"/>
      <point x="110" y="540"/>
      <point x="184" y="540" type="qcurve"/>
      <point x="257" y="540"/>
      <point x="340" y="444"/>
      <point x="340" y="365" type="qcurve"/>
      <point x="340" y="279"/>
      <point x="250" y="180"/>
      <point x="178" y="180" type="qcurve"/>
      <point x="107" y="180"/>
      <point x="20" y="279"/>
    </contour>
    <contour>
      <point x="80" y="362" type="qcurve"/>
      <point x="80" y="302"/>
      <point x="132" y="230"/>
      <point x="180" y="230" type="qcurve"/>
      <point x="227" y="230"/>
      <point x="280" y="302"/>
      <point x="280" y="362" type="qcurve"/>
      <point x="280" y="421"/>
      <point x="230" y="490"/>
      <point x="182" y="490" type="qcurve"/>
      <point x="133" y="490"/>
      <point x="80" y="423"/>
    </contour>
  </outline>
</glyph>
<glyph name="uni2074" format="1">
  <advance width="360"/>
  <unicode hex="2074"/>
  <outline>
    <contour>
      <point x="180" y="270" type="line"/>
      <point x="0" y="270" type="line"/>
      <point x="0" y="315" type="line"/>
      <point x="190" y="540" type="line"/>
      <point x="240" y="540" type="line"/>
      <point x="240" y="320" type="line"/>
      <point x="300" y="320" type="line"/>
      <point x="300" y="270" type="line"/>
      <point x="240" y="270" type="line"/>
      <point x="240" y="180" type="line"/>
      <point x="180" y="180" type="line"/>
    </contour>
    <contour>
      <point x="62" y="320" type="line"/>
      <point x="180" y="320" type="line"/>
      <point x="180" y="460" type="line"/>
      <point x="178" y="461" type="line"/>
      <point x="61" y="322" type="line"/>
    </contour>
  </outline>
</glyph>
<glyph name="Euro" format="1">
  <advance width="540"/>
  <unicode hex="20AC"/>
  <outline>
    <contour>
      <point x="21" y="240" type="line"/>
      <point x="81" y="240" type="line"/>
      <point x="80" y="253"/>
      <point x="80" y="268" type="qcurve"/>
      <point x="80" y="284"/>
      <point x="81" y="300" type="qcurve"/>
      <point x="12" y="300" type="line"/>
      <point x="23" y="350" type="line"/>
      <point x="88" y="350" type="line"/>
      <point x="106" y="435"/>
      <point x="226" y="540"/>
      <point x="326" y="540" type="qcurve"/>
      <point x="395" y="540"/>
      <point x="460" y="514" type="qcurve"/>
      <point x="460" y="420" type="line"/>
      <point x="403" y="420" type="line"/>
      <point x="403" y="474" type="line"/>
      <point x="368" y="485"/>
      <point x="325" y="485" type="qcurve"/>
      <point x="182" y="485"/>
      <point x="152" y="350" type="qcurve"/>
      <point x="393" y="350" type="line"/>
      <point x="382" y="300" type="line"/>
      <point x="146" y="300" type="line"/>
      <point x="145" y="287"/>
      <point x="145" y="274" type="qcurve"/>
      <point x="145" y="256"/>
      <point x="146" y="240" type="qcurve"/>
      <point x="370" y="240" type="line"/>
      <point x="360" y="190" type="line"/>
      <point x="153" y="190" type="line"/>
      <point x="187" y="55"/>
      <point x="327" y="55" type="qcurve"/>
      <point x="389" y="55"/>
      <point x="460" y="81" type="qcurve"/>
      <point x="460" y="25" type="line"/>
      <point x="393" y="0"/>
      <point x="325" y="0" type="qcurve"/>
      <point x="224" y="0"/>
      <point x="103" y="106"/>
      <point x="87" y="190" type="qcurve"/>
      <point x="10" y="190" type="line"/>
    </contour>
  </outline>
</glyph>
<glyph name="trademark" format="1">
  <advance width="900"/>
  <unicode hex="2122"/>
  <outline>
    <contour>
      <point x="60" y="230" type="line"/>
      <point x="120" y="230" type="line"/>
      <point x="120" y="490" type="line"/>
      <point x="55" y="490" type="line"/>
      <point x="55" y="420" type="line"/>
      <point x="0" y="420" type="line"/>
      <point x="0" y="540" type="line"/>
      <point x="300" y="540" type="line"/>
      <point x="300" y="420" type="line"/>
      <point x="245" y="420" type="line"/>
      <point x="245" y="490" type="line"/>
      <point x="180" y="490" type="line"/>
      <point x="180" y="230" type="line"/>
      <point x="240" y="230" type="line"/>
      <point x="240" y="180" type="line"/>
      <point x="60" y="180" type="line"/>
    </contour>
    <contour>
      <point x="713" y="459" type="line"/>
      <point x="594" y="180" type="line"/>
      <point x="553" y="180" type="line"/>
      <point x="441" y="453" type="line"/>
      <point x="438" y="453" type="line"/>
      <point x="430" y="230" type="line"/>
      <point x="480" y="230" type="line"/>
      <point x="480" y="180" type="line"/>
      <point x="320" y="180" type="line"/>
      <point x="320" y="230" type="line"/>
      <point x="378" y="230" type="line"/>
      <point x="388" y="490" type="line"/>
      <point x="330" y="490" type="line"/>
      <point x="330" y="540" type="line"/>
      <point x="466" y="540" type="line"/>
      <point x="576" y="271" type="line"/>
      <point x="578" y="271" type="line"/>
      <point x="694" y="540" type="line"/>
      <point x="820" y="540" type="line"/>
      <point x="820" y="490" type="line"/>
      <point x="770" y="490" type="line"/>
      <point x="780" y="230" type="line"/>
      <point x="830" y="230" type="line"/>
      <point x="830" y="180" type="line"/>
      <point x="680" y="180" type="line"/>
      <point x="680" y="230" type="line"/>
      <point x="724" y="230" type="line"/>
      <point x="716" y="459" type="line"/>
    </contour>
  </outline>
</glyph>
<glyph name="minus" format="1">
  <advance width="480"/>
  <unicode hex="2212"/>
  <outline>
    <contour>
      <point x="0" y="200" type="line"/>
      <point x="0" y="255" type="line"/>
      <point x="420" y="255" type="line"/>
      <point x="420" y="200" type="line"/>
    </contour>
  </outline>
</glyph>
<glyph name="f_f" format="1">
  <advance width="480"/>
  <unicode hex="FB00"/>
  <outline>
    <contour>
      <point x="540" y="480" type="line"/>
      <point x="485" y="480" type="line"/>
      <point x="485" y="539" type="line"/>
      <point x="465" y="545"/>
      <point x="442" y="545" type="qcurve"/>
      <point x="399" y="545"/>
      <point x="360" y="497"/>
      <point x="360" y="452" type="qcurve"/>
      <point x="360" y="420" type="line"/>
      <point x="460" y="420" type="line"/>
      <point x="460" y="365" type="line"/>
      <point x="360" y="365" type="line"/>
      <point x="360" y="55" type="line"/>
      <point x="420" y="55" type="line"/>
      <point x="420" y="0" type="line"/>
      <point x="240" y="0" type="line"/>
      <point x="240" y="55" type="line"/>
      <point x="300" y="55" type="line"/>
      <point x="300" y="365" type="line"/>
      <point x="120" y="365" type="line"/>
      <point x="120" y="55" type="line"/>
      <point x="180" y="55" type="line"/>
      <point x="180" y="0" type="line"/>
      <point x="0" y="0" type="line"/>
      <point x="0" y="55" type="line"/>
      <point x="60" y="55" type="line"/>
      <point x="60" y="365" type="line"/>
      <point x="0" y="365" type="line"/>
      <point x="0" y="420" type="line"/>
      <point x="60" y="420" type="line"/>
      <point x="60" y="442" type="line"/>
      <point x="60" y="522"/>
      <point x="133" y="600"/>
      <point x="199" y="600" type="qcurve"/>
      <point x="240" y="600"/>
      <point x="280" y="586" type="qcurve"/>
      <point x="280" y="480" type="line"/>
      <point x="225" y="480" type="line"/>
      <point x="225" y="543" type="line"/>
      <point x="216" y="545"/>
      <point x="205" y="545" type="qcurve"/>
      <point x="162" y="545"/>
      <point x="120" y="503"/>
      <point x="120" y="452" type="qcurve"/>
      <point x="120" y="420" type="line"/>
      <point x="300" y="420" type="line"/>
      <point x="300" y="442" type="line"/>
      <point x="300" y="522"/>
      <point x="375" y="600"/>
      <point x="441" y="600" type="qcurve"/>
      <point x="492" y="600"/>
      <point x="540" y="579" type="qcurve"/>
    </contour>
  </outline>
</glyph>
<glyph name="f_i" format="1">
  <advance width="480"/>
  <unicode hex="FB01"/>
  <outline>
    <contour>
      <point x="240" y="55" type="line"/>
      <point x="300" y="55" type="line"/>
      <point x="300" y="365" type="line"/>
      <point x="120" y="365" type="line"/>
      <point x="120" y="55" type="line"/>
      <point x="180" y="55" type="line"/>
      <point x="180" y="0" type="line"/>
      <point x="0" y="0" type="line"/>
      <point x="0" y="55" type="line"/>
      <point x="60" y="55" type="line"/>
      <point x="60" y="365" type="line"/>
      <point x="0" y="365" type="line"/>
      <point x="0" y="420" type="line"/>
      <point x="60" y="420" type="line"/>
      <point x="60" y="442" type="line"/>
      <point x="60" y="522"/>
      <point x="144" y="600"/>
      <point x="230" y="600" type="qcurve"/>
      <point x="299" y="600"/>
      <point x="360" y="581" type="qcurve"/>
      <point x="360" y="480" type="line"/>
      <point x="300" y="480" type="line"/>
      <point x="300" y="539" type="line"/>
      <point x="270" y="545"/>
      <point x="228" y="545" type="qcurve"/>
      <point x="167" y="545"/>
      <point x="120" y="497"/>
      <point x="120" y="452" type="qcurve"/>
      <point x="120" y="420" type="line"/>
      <point x="360" y="420" type="line"/>
      <point x="360" y="55" type="line"/>
      <point x="420" y="55" type="line"/>
      <point x="420" y="0" type="line"/>
      <point x="240" y="0" type="line"/>
    </contour>
  </outline>
</glyph>
<glyph name="f_l" format="1">
  <advance width="480"/>
  <unicode hex="FB02"/>
  <outline>
    <contour>
      <point x="218" y="545" type="qcurve"/>
      <point x="167" y="545"/>
      <point x="120" y="497"/>
      <point x="120" y="452" type="qcurve"/>
      <point x="120" y="420" type="line"/>
      <point x="220" y="420" type="line"/>
      <point x="220" y="365" type="line"/>
      <point x="120" y="365" type="line"/>
      <point x="120" y="55" type="line"/>
      <point x="180" y="55" type="line"/>
      <point x="180" y="0" type="line"/>
      <point x="0" y="0" type="line"/>
      <point x="0" y="55" type="line"/>
      <point x="60" y="55" type="line"/>
      <point x="60" y="365" type="line"/>
      <point x="0" y="365" type="line"/>
      <point x="0" y="420" type="line"/>
      <point x="60" y="420" type="line"/>
      <point x="60" y="442" type="line"/>
      <point x="60" y="522"/>
      <point x="144" y="600"/>
      <point x="217" y="600" type="qcurve"/>
      <point x="259" y="600"/>
      <point x="300" y="591" type="qcurve"/>
      <point x="350" y="600" type="line"/>
      <point x="360" y="600" type="line"/>
      <point x="360" y="55" type="line"/>
      <point x="420" y="55" type="line"/>
      <point x="420" y="0" type="line"/>
      <point x="240" y="0" type="line"/>
      <point x="240" y="55" type="line"/>
      <point x="300" y="55" type="line"/>
      <point x="300" y="536" type="line"/>
      <point x="263" y="545"/>
    </contour>
  </outline>
</glyph>
<glyph name="f_f_i" format="1">
  <advance width="720"/>
  <unicode hex="FB03"/>
  <outline>
    <contour>
      <point x="480" y="55" type="line"/>
      <point x="540" y="55" type="line"/>
      <point x="540" y="365" type="line"/>
      <point x="360" y="365" type="line"/>
      <point x="360" y="55" type="line"/>
      <point x="420" y="55" type="line"/>
      <point x="420" y="0" type="line"/>
      <point x="240" y="0" type="line"/>
      <point x="240" y="55" type="line"/>
      <point x="300" y="55" type="line"/>
      <point x="300" y="365" type="line"/>
      <point x="120" y="365" type="line"/>
      <point x="120" y="55" type="line"/>
      <point x="180" y="55" type="line"/>
      <point x="180" y="0" type="line"/>
      <point x="0" y="0" type="line"/>
      <point x="0" y="55" type="line"/>
      <point x="60" y="55" type="line"/>
      <point x="60" y="365" type="line"/>
      <point x="0" y="365" type="line"/>
      <point x="0" y="420" type="line"/>
      <point x="60" y="420" type="line"/>
      <point x="60" y="442" type="line"/>
      <point x="60" y="522"/>
      <point x="133" y="600"/>
      <point x="199" y="600" type="qcurve"/>
      <point x="240" y="600"/>
      <point x="280" y="586" type="qcurve"/>
      <point x="280" y="480" type="line"/>
      <point x="225" y="480" type="line"/>
      <point x="225" y="543" type="line"/>
      <point x="216" y="545"/>
      <point x="205" y="545" type="qcurve"/>
      <point x="162" y="545"/>
      <point x="120" y="503"/>
      <point x="120" y="452" type="qcurve"/>
      <point x="120" y="420" type="line"/>
      <point x="300" y="420" type="line"/>
      <point x="300" y="442" type="line"/>
      <point x="300" y="522"/>
      <point x="384" y="600"/>
      <point x="470" y="600" type="qcurve"/>
      <point x="539" y="600"/>
      <point x="600" y="581" type="qcurve"/>
      <point x="600" y="480" type="line"/>
      <point x="540" y="480" type="line"/>
      <point x="540" y="539" type="line"/>
      <point x="510" y="545"/>
      <point x="468" y="545" type="qcurve"/>
      <point x="407" y="545"/>
      <point x="360" y="497"/>
      <point x="360" y="452" type="qcurve"/>
      <point x="360" y="420" type="line"/>
      <point x="600" y="420" type="line"/>
      <point x="600" y="55" type="line"/>
      <point x="660" y="55" type="line"/>
      <point x="660" y="0" type="line"/>
      <point x="480" y="0" type="line"/>
    </contour>
  </outline>
</glyph>
<glyph name=".notdef" format="1">
  <advance width="420"/>
  <outline>
    <contour>
      <point x="360" y="27" type="line"/>
      <point x="360" y="0"/>
      <point x="333" y="0" type="qcurve"/>
      <point x="28" y="0" type="line"/>
      <point x="0" y="0"/>
      <point x="0" y="27" type="qcurve"/>
      <point x="0" y="513" type="line"/>
      <point x="0" y="540"/>
      <point x="28" y="540" type="qcurve"/>
      <point x="333" y="540" type="line"/>
      <point x="360" y="540"/>
      <point x="360" y="513" type="qcurve"/>
    </contour>
    <contour>
      <point x="180" y="242" type="line"/>
      <point x="232" y="248"/>
      <point x="300" y="316"/>
      <point x="300" y="366" type="qcurve"/>
      <point x="300" y="388"/>
      <point x="283" y="431"/>
      <point x="251" y="461"/>
      <point x="204" y="480"/>
      <point x="171" y="480" type="qcurve"/>
      <point x="130" y="480"/>
      <point x="70" y="460"/>
      <point x="63" y="453" type="qcurve"/>
      <point x="52" y="444"/>
      <point x="52" y="431" type="qcurve"/>
      <point x="52" y="420"/>
      <point x="66" y="402"/>
      <point x="76" y="402" type="qcurve"/>
      <point x="81" y="402"/>
      <point x="88" y="404" type="qcurve"/>
      <point x="94" y="406"/>
      <point x="131" y="420"/>
      <point x="160" y="420" type="qcurve"/>
      <point x="206" y="420"/>
      <point x="240" y="385"/>
      <point x="240" y="361" type="qcurve"/>
      <point x="240" y="329"/>
      <point x="194" y="297"/>
      <point x="159" y="294" type="qcurve"/>
      <point x="139" y="292"/>
      <point x="120" y="279"/>
      <point x="120" y="265" type="qcurve"/>
      <point x="120" y="199" type="line"/>
      <point x="120" y="184"/>
      <point x="134" y="172"/>
      <point x="150" y="172" type="qcurve"/>
      <point x="164" y="172"/>
      <point x="180" y="184"/>
      <point x="180" y="199" type="qcurve"/>
    </contour>
    <contour>
      <point x="109" y="90" type="qcurve"/>
      <point x="109" y="73"/>
      <point x="132" y="49"/>
      <point x="150" y="49" type="qcurve"/>
      <point x="168" y="49"/>
      <point x="192" y="73"/>
      <point x="192" y="90" type="qcurve"/>
      <point x="192" y="108"/>
      <point x="168" y="132"/>
      <point x="150" y="132" type="qcurve"/>
      <point x="132" y="132"/>
      <point x="109" y="108"/>
    </contour>
  </outline>
</glyph>
<glyph name="f.alt" format="1">
  <advance width="240"/>
  <outline>
    <contour>
      <point x="260" y="480" type="line"/>
      <point x="205" y="480" type="line"/>
      <point x="205" y="544" type="line"/>
      <point x="199" y="545"/>
      <point x="189" y="545" type="qcurve"/>
      <point x="153" y="545"/>
      <point x="120" y="503"/>
      <point x="120" y="452" type="qcurve"/>
      <point x="120" y="420" type="line"/>
      <point x="220" y="420" type="line"/>
      <point x="220" y="365" type="line"/>
      <point x="120" y="365" type="line"/>
      <point x="120" y="55" type="line"/>
      <point x="180" y="55" type="line"/>
      <point x="180" y="0" type="line"/>
      <point x="0" y="0" type="line"/>
      <point x="0" y="55" type="line"/>
      <point x="60" y="55" type="line"/>
      <point x="60" y="365" type="line"/>
      <point x="0" y="365" type="line"/>
      <point x="0" y="420" type="line"/>
      <point x="60" y="420" type="line"/>
      <point x="60" y="442" type="line"/>
      <point x="60" y="522"/>
      <point x="126" y="600"/>
      <point x="186" y="600" type="qcurve"/>
      <point x="222" y="600"/>
      <point x="260" y="588" type="qcurve"/>
    </contour>
  </outline>
</glyph>
<glyph name="f_b" format="1">
  <advance width="720"/>
  <outline>
    <contour>
      <point x="350" y="600" type="line"/>
      <point x="360" y="600" type="line"/>
      <point x="360" y="376" type="line"/>
      <point x="361" y="376" type="line"/>
      <point x="415" y="420"/>
      <point x="480" y="420" type="qcurve"/>
      <point x="553" y="420"/>
      <point x="640" y="306"/>
      <point x="640" y="220" type="qcurve"/>
      <point x="640" y="123"/>
      <point x="535" y="0"/>
      <point x="436" y="0" type="qcurve"/>
      <point x="375" y="0"/>
      <point x="300" y="19" type="qcurve"/>
      <point x="300" y="536" type="line"/>
      <point x="263" y="545"/>
      <point x="218" y="545" type="qcurve"/>
      <point x="167" y="545"/>
      <point x="120" y="497"/>
      <point x="120" y="452" type="qcurve"/>
      <point x="120" y="420" type="line"/>
      <point x="220" y="420" type="line"/>
      <point x="220" y="365" type="line"/>
      <point x="120" y="365" type="line"/>
      <point x="120" y="55" type="line"/>
      <point x="180" y="55" type="line"/>
      <point x="180" y="0" type="line"/>
      <point x="0" y="0" type="line"/>
      <point x="0" y="55" type="line"/>
      <point x="60" y="55" type="line"/>
      <point x="60" y="365" type="line"/>
      <point x="0" y="365" type="line"/>
      <point x="0" y="420" type="line"/>
      <point x="60" y="420" type="line"/>
      <point x="60" y="442" type="line"/>
      <point x="60" y="522"/>
      <point x="144" y="600"/>
      <point x="217" y="600" type="qcurve"/>
      <point x="259" y="600"/>
      <point x="300" y="591" type="qcurve"/>
    </contour>
    <contour>
      <point x="360" y="61" type="line"/>
      <point x="396" y="53"/>
      <point x="432" y="53" type="qcurve"/>
      <point x="505" y="53"/>
      <point x="575" y="133"/>
      <point x="575" y="211" type="qcurve"/>
      <point x="575" y="282"/>
      <point x="514" y="365"/>
      <point x="460" y="365" type="qcurve"/>
      <point x="406" y="365"/>
      <point x="360" y="324" type="qcurve"/>
    </contour>
  </outline>
</glyph>
<glyph name="f_f_b" format="1">
  <advance width="960"/>
  <outline>
    <contour>
      <point x="460" y="420" type="line"/>
      <point x="460" y="365" type="line"/>
      <point x="360" y="365" type="line"/>
      <point x="360" y="55" type="line"/>
      <point x="420" y="55" type="line"/>
      <point x="420" y="0" type="line"/>
      <point x="240" y="0" type="line"/>
      <point x="240" y="55" type="line"/>
      <point x="300" y="55" type="line"/>
      <point x="300" y="365" type="line"/>
      <point x="120" y="365" type="line"/>
      <point x="120" y="55" type="line"/>
      <point x="180" y="55" type="line"/>
      <point x="180" y="0" type="line"/>
      <point x="0" y="0" type="line"/>
      <point x="0" y="55" type="line"/>
      <point x="60" y="55" type="line"/>
      <point x="60" y="365" type="line"/>
      <point x="0" y="365" type="line"/>
      <point x="0" y="420" type="line"/>
      <point x="60" y="420" type="line"/>
      <point x="60" y="442" type="line"/>
      <point x="60" y="522"/>
      <point x="133" y="600"/>
      <point x="199" y="600" type="qcurve"/>
      <point x="240" y="600"/>
      <point x="280" y="586" type="qcurve"/>
      <point x="280" y="480" type="line"/>
      <point x="225" y="480" type="line"/>
      <point x="225" y="543" type="line"/>
      <point x="216" y="545"/>
      <point x="205" y="545" type="qcurve"/>
      <point x="162" y="545"/>
      <point x="120" y="503"/>
      <point x="120" y="452" type="qcurve"/>
      <point x="120" y="420" type="line"/>
      <point x="300" y="420" type="line"/>
      <point x="300" y="442" type="line"/>
      <point x="300" y="522"/>
      <point x="384" y="600"/>
      <point x="457" y="600" type="qcurve"/>
      <point x="499" y="600"/>
      <point x="540" y="591" type="qcurve"/>
      <point x="590" y="600" type="line"/>
      <point x="600" y="600" type="line"/>
      <point x="600" y="376" type="line"/>
      <point x="601" y="376" type="line"/>
      <point x="655" y="420"/>
      <point x="720" y="420" type="qcurve"/>
      <point x="793" y="420"/>
      <point x="880" y="306"/>
      <point x="880" y="220" type="qcurve"/>
      <point x="880" y="123"/>
      <point x="775" y="0"/>
      <point x="676" y="0" type="qcurve"/>
      <point x="615" y="0"/>
      <point x="540" y="19" type="qcurve"/>
      <point x="540" y="536" type="line"/>
      <point x="503" y="545"/>
      <point x="458" y="545" type="qcurve"/>
      <point x="407" y="545"/>
      <point x="360" y="497"/>
      <point x="360" y="452" type="qcurve"/>
      <point x="360" y="420" type="line"/>
    </contour>
    <contour>
      <point x="600" y="61" type="line"/>
      <point x="636" y="53"/>
      <point x="672" y="53" type="qcurve"/>
      <point x="745" y="53"/>
      <point x="815" y="133"/>
      <point x="815" y="211" type="qcurve"/>
      <point x="815" y="282"/>
      <point x="754" y="365"/>
      <point x="700" y="365" type="qcurve"/>
      <point x="646" y="365"/>
      <point x="600" y="324" type="qcurve"/>
    </contour>
  </outline>
</glyph>
